<svg xmlns="http://www.w3.org/2000/svg" xmlns:xlink="http://www.w3.org/1999/xlink" fill="none" version="1.1" width="104.16000366210938" height="104.16000366210938" viewBox="0 0 104.16000366210938 104.16000366210938"><defs><clipPath id="master_svg0_12_0"><rect x="0" y="0" width="104.16000366210938" height="104.16000366210938" rx="0"/></clipPath><linearGradient x1="-0.014828001148998737" y1="-0.014827989041805267" x2="1.014815092086792" y2="1.014815092086792" id="master_svg1_12_90"><stop offset="0%" stop-color="#33E3EE" stop-opacity="1"/><stop offset="100%" stop-color="#2000DB" stop-opacity="1"/></linearGradient><linearGradient x1="-0.08365294337272644" y1="0.1374678760766983" x2="1.052898645401001" y2="0.9274267554283142" id="master_svg2_12_91"><stop offset="0%" stop-color="#33E3EE" stop-opacity="1"/><stop offset="100%" stop-color="#2000DB" stop-opacity="1"/></linearGradient></defs><g clip-path="url(#master_svg0_12_0)"><g><g><rect x="1.5" y="1.5" width="101.16000366210938" height="101.16000366210938" rx="0" stroke="url(#master_svg1_12_90)" fill-opacity="0" fill="none" stroke-width="3" style="mix-blend-mode:passthrough"/></g><g><path d="M51.37000015258789,68.87000038146974C51.070000152587895,68.87000038146974,50.86000015258789,68.77000038146973,50.66000015258789,68.67000038146972C46.41000015258789,65.53000038146973,43.98000015258789,60.98000038146973,44.08000015258789,56.13000038146973C44.08000015258789,51.27000038146973,46.61000015258789,46.52000038146973,50.76000015258789,43.49000038146973C51.16000015258789,43.19000038146973,51.77000015258789,43.19000038146973,52.28000015258789,43.49000038146973C55.62000015258789,46.02000038146973,57.95000015258789,49.460000381469726,58.65000015258789,53.30000038146973C58.850000152587896,54.210000381469726,58.95000015258789,55.220000381469724,58.95000015258789,56.13000038146973C58.95000015258789,57.140000381469726,58.850000152587896,58.150000381469724,58.65000015258789,59.17000038146973C57.84000015258789,62.91000038146973,55.51000015258789,66.25000038146973,52.180000152587894,68.68000038146972C51.88000015258789,68.77000038146973,51.67000015258789,68.87000038146974,51.37000015258789,68.87000038146974ZM51.470000152587886,46.11000038146973C48.44000015258789,48.640000381469726,46.61000015258789,52.280000381469726,46.61000015258789,56.12000038146973C46.61000015258789,59.860000381469725,48.330000152587886,63.400000381469724,51.470000152587886,66.03000038146973C53.90000015258789,64.11000038146972,55.52000015258789,61.48000038146973,56.12000015258789,58.650000381469724C56.320000152587895,57.84000038146973,56.42000015258789,57.030000381469726,56.42000015258789,56.12000038146973C56.42000015258789,55.31000038146973,56.320000152587895,54.500000381469725,56.220000152587886,53.790000381469724C55.52000015258789,50.87000038146972,53.90000015258789,48.13000038146973,51.470000152587886,46.11000038146973ZM52.69000015258789,72.31000038146973L52.69000015258789,51.17000038146973C52.69000015258789,50.460000381469726,52.080000152587886,49.85000038146973,51.38000015258789,49.85000038146973C50.680000152587894,49.85000038146973,50.06000015258789,50.460000381469726,50.06000015258789,51.17000038146973L50.06000015258789,72.31000038146973C50.06000015258789,73.02000038146973,50.67000015258789,73.63000038146973,51.38000015258789,73.63000038146973C52.09000015258789,73.63000038146973,52.59000015258789,73.02000038146973,52.69000015258789,72.31000038146973ZM68.57000015258788,80.00000038146973L68.57000015258788,28.100000381469727C68.57000015258788,27.390000381469726,67.9600001525879,26.790000381469728,67.25000015258789,26.790000381469728C66.5400001525879,26.790000381469728,65.9300001525879,27.400000381469727,65.9300001525879,28.100000381469727L65.9300001525879,79.90000038146972C65.9300001525879,80.61000038146972,66.5400001525879,81.22000038146973,67.25000015258789,81.22000038146973C67.9600001525879,81.22000038146973,68.57000015258788,80.61000038146972,68.57000015258788,80.00000038146973ZM37.01000015258789,80.00000038146973L37.01000015258789,28.100000381469727C37.01000015258789,27.390000381469726,36.40000015258789,26.790000381469728,35.69000015258789,26.790000381469728C34.98000015258789,26.790000381469728,34.38000015258789,27.400000381469727,34.38000015258789,28.100000381469727L34.38000015258789,79.90000038146972C34.38000015258789,80.61000038146972,34.99000015258789,81.22000038146973,35.69000015258789,81.22000038146973C36.30000015258789,81.21000038146973,36.91000015258789,80.61000038146972,37.01000015258789,80.00000038146973ZM63.51000015258789,28.000000381469725L63.51000015258789,24.160000381469725C63.51000015258789,23.450000381469728,62.90000015258789,22.850000381469727,62.20000015258789,22.850000381469727L54.51000015258789,22.850000381469727C53.80000015258789,22.850000381469727,53.20000015258789,23.460001381469727,53.20000015258789,24.160000381469725L53.20000015258789,28.000000381469725C53.20000015258789,28.710000381469726,53.81000015258789,29.310000381469727,54.51000015258789,29.310000381469727C55.220000152587886,29.310000381469727,55.830000152587886,28.700000381469728,55.830000152587886,28.000000381469725L55.830000152587886,25.470000381469728L60.89000015258789,25.470000381469728L60.89000015258789,28.000000381469725C60.89000015258789,28.710000381469726,61.50000015258789,29.310000381469727,62.210000152587895,29.310000381469727C62.92000015258789,29.310000381469727,63.51000015258789,28.710000381469726,63.51000015258789,28.000000381469725ZM71.20000015258789,28.000000381469725C71.20000015258789,27.290000381469728,70.59000015258789,26.680000381469725,69.88000015258788,26.680000381469725L33.16000015258789,26.680000381469725C32.45000115258789,26.680000381469725,31.84000015258789,27.290000381469728,31.84000015258789,28.000000381469725C31.84000015258789,28.710000381469726,32.45000115258789,29.310000381469727,33.16000015258789,29.310000381469727L69.78000015258789,29.310000381469727C70.4900001525879,29.320000381469725,71.10000015258788,28.710000381469726,71.20000015258789,28.000000381469725ZM44.59000015258789,35.59000038146973C44.59000015258789,34.88000038146973,43.98000015258789,34.280000381469726,43.27000015258789,34.280000381469726L33.16000015258789,34.280000381469726C32.45000115258789,34.280000381469726,31.84000015258789,34.890000381469726,31.84000015258789,35.59000038146973C31.84000015258789,36.290000381469724,32.45000115258789,36.91000038146973,33.16000015258789,36.91000038146973L43.28000015258789,36.91000038146973C43.89000015258789,36.91000038146973,44.49000015258789,36.30000038146973,44.59000015258789,35.59000038146973ZM44.59000015258789,39.44000038146973C44.59000015258789,38.73000038146973,43.98000015258789,38.12000038146972,43.27000015258789,38.12000038146972L33.16000015258789,38.12000038146972C32.45000115258789,38.12000038146972,31.84000015258789,38.73000038146973,31.84000015258789,39.44000038146973C31.84000015258789,40.150000381469724,32.45000115258789,40.750000381469725,33.16000015258789,40.750000381469725L43.28000015258789,40.750000381469725C43.89000015258789,40.750000381469725,44.59000015258789,40.140000381469726,44.59000015258789,39.44000038146973ZM44.59000015258789,68.47000038146973C44.59000015258789,67.76000038146972,43.98000015258789,67.15000038146972,43.27000015258789,67.15000038146972L33.16000015258789,67.15000038146972C32.45000115258789,67.15000038146972,31.84000015258789,67.76000038146972,31.84000015258789,68.47000038146973C31.84000015258789,69.18000038146972,32.45000115258789,69.79000038146972,33.16000015258789,69.79000038146972L43.28000015258789,69.79000038146972C43.89000015258789,69.78000038146973,44.49000015258789,69.18000038146972,44.59000015258789,68.47000038146973ZM72.41000015258788,72.31000038146973C72.41000015258788,71.60000038146973,71.8000001525879,71.00000038146973,71.09000015258789,71.00000038146973L33.16000015258789,71.00000038146973C32.45000115258789,71.00000038146973,31.84000015258789,71.61000038146972,31.84000015258789,72.31000038146973C31.84000015258789,73.02000038146973,32.45000115258789,73.63000038146973,33.16000015258789,73.63000038146973L71.10000015258788,73.63000038146973C71.70000015258789,73.63000038146973,72.31000015258789,73.02000038146973,72.41000015258788,72.31000038146973ZM72.41000015258788,35.59000038146973C72.41000015258788,34.88000038146973,71.8000001525879,34.280000381469726,71.09000015258789,34.280000381469726L60.98000015258789,34.280000381469726C60.27000015258789,34.280000381469726,59.66000015258789,34.890000381469726,59.66000015258789,35.59000038146973C59.66000015258789,36.290000381469724,60.27000015258789,36.91000038146973,60.98000015258789,36.91000038146973L71.10000015258788,36.91000038146973C71.70000015258789,36.91000038146973,72.31000015258789,36.30000038146973,72.41000015258788,35.59000038146973ZM72.41000015258788,39.44000038146973C72.41000015258788,38.73000038146973,71.8000001525879,38.12000038146972,71.09000015258789,38.12000038146972L60.98000015258789,38.12000038146972C60.27000015258789,38.12000038146972,59.66000015258789,38.73000038146973,59.66000015258789,39.44000038146973C59.66000015258789,40.150000381469724,60.27000015258789,40.750000381469725,60.98000015258789,40.750000381469725L71.10000015258788,40.750000381469725C71.70000015258789,40.750000381469725,72.41000015258788,40.140000381469726,72.41000015258788,39.44000038146973ZM72.41000015258788,68.47000038146973C72.41000015258788,67.76000038146972,71.8000001525879,67.15000038146972,71.09000015258789,67.15000038146972L60.98000015258789,67.15000038146972C60.27000015258789,67.15000038146972,59.66000015258789,67.76000038146972,59.66000015258789,68.47000038146973C59.66000015258789,69.18000038146972,60.27000015258789,69.79000038146972,60.98000015258789,69.79000038146972L71.10000015258788,69.79000038146972C71.70000015258789,69.78000038146973,72.31000015258789,69.18000038146972,72.41000015258788,68.47000038146973ZM71.20000015258789,79.90000038146972C71.20000015258789,79.19000038146973,70.59000015258789,78.59000038146974,69.88000015258788,78.59000038146974L33.16000015258789,78.59000038146974C32.45000115258789,78.59000038146974,31.84000015258789,79.20000038146972,31.84000015258789,79.90000038146972C31.84000015258789,80.60000038146973,32.45000115258789,81.22000038146973,33.16000015258789,81.22000038146973L69.78000015258789,81.22000038146973C70.4900001525879,81.21000038146973,71.10000015258788,80.61000038146972,71.20000015258789,79.90000038146972Z" fill="url(#master_svg2_12_91)" fill-opacity="1" style="mix-blend-mode:passthrough"/></g></g></g></svg>