<svg xmlns="http://www.w3.org/2000/svg" xmlns:xlink="http://www.w3.org/1999/xlink" fill="none" version="1.1" width="103.81999969482422" height="103.81999969482422" viewBox="0 0 103.81999969482422 103.81999969482422"><defs><clipPath id="master_svg0_12_8"><rect x="0" y="0" width="103.81999969482422" height="103.81999969482422" rx="0"/></clipPath><linearGradient x1="-0.014878155663609505" y1="-0.014877844601869583" x2="1.0148957967758179" y2="1.0148957967758179" id="master_svg1_12_92"><stop offset="0%" stop-color="#33E3EE" stop-opacity="1"/><stop offset="100%" stop-color="#2000DB" stop-opacity="1"/></linearGradient><linearGradient x1="0.19337019324302673" y1="0.23900644481182098" x2="0.9695444703102112" y2="1.0164622068405151" id="master_svg2_12_93"><stop offset="0%" stop-color="#33E3EE" stop-opacity="1"/><stop offset="100%" stop-color="#2000DB" stop-opacity="1"/></linearGradient></defs><g clip-path="url(#master_svg0_12_8)"><g><g><rect x="1.5" y="1.5" width="100.81999969482422" height="100.81999969482422" rx="0" stroke="url(#master_svg1_12_92)" fill-opacity="0" fill="none" stroke-width="3" style="mix-blend-mode:passthrough"/></g><g><path d="M33.25999984741211,81.64999984741212C32.54999984741211,81.64999984741212,31.94999984741211,81.04999984741211,31.94999984741211,80.33999984741212L31.94999984741211,74.3899998474121C31.94999984741211,73.67999984741212,32.55999984741211,73.07999984741211,33.25999984741211,73.07999984741211C33.96999984741211,73.07999984741211,34.569999847412106,73.67999984741212,34.569999847412106,74.3899998474121L34.569999847412106,80.33999984741212C34.569999847412106,81.04999984741211,33.95999984741211,81.64999984741212,33.25999984741211,81.64999984741212ZM28.61999984741211,80.33999984741212L28.61999984741211,74.3899998474121C28.61999984741211,73.67999984741212,28.01999984741211,73.07999984741211,27.309999847412108,73.07999984741211C26.59999984741211,73.07999984741211,25.99999984741211,73.67999984741212,25.99999984741211,74.3899998474121L25.99999984741211,80.33999984741212C25.99999984741211,81.04999984741211,26.59999984741211,81.64999984741212,27.309999847412108,81.64999984741212C28.01999984741211,81.64999984741212,28.61999984741211,81.04999984741211,28.61999984741211,80.33999984741212ZM64.2099998474121,80.33999984741212L64.2099998474121,74.3899998474121C64.2099998474121,73.67999984741212,63.60999984741211,73.07999984741211,62.89999984741211,73.07999984741211C62.18999984741211,73.07999984741211,61.58999984741211,73.67999984741212,61.58999984741211,74.3899998474121L61.58999984741211,80.33999984741212C61.58999984741211,81.04999984741211,62.18999984741211,81.64999984741212,62.89999984741211,81.64999984741212C63.50999984741211,81.64999984741212,64.10999984741211,81.04999984741211,64.2099998474121,80.33999984741212ZM58.25999984741211,80.33999984741212L58.25999984741211,74.3899998474121C58.25999984741211,73.67999984741212,57.65999984741211,73.07999984741211,56.94999984741211,73.07999984741211C56.23999984741211,73.07999984741211,55.639999847412106,73.67999984741212,55.639999847412106,74.3899998474121L55.639999847412106,80.33999984741212C55.639999847412106,81.04999984741211,56.23999984741211,81.64999984741212,56.94999984741211,81.64999984741212C57.65999984741211,81.64999984741212,58.15999984741211,81.04999984741211,58.25999984741211,80.33999984741212ZM69.04999984741211,74.49999984741211L69.04999984741211,58.66999984741211C69.04999984741211,57.95999984741211,68.4499998474121,57.35999984741211,67.73999984741211,57.35999984741211L64.8199998474121,57.35999984741211C64.10999984741211,57.35999984741211,63.50999984741211,57.95999984741211,63.50999984741211,58.66999984741211C63.50999984741211,59.37999984741211,64.10999984741211,59.97999984741211,64.8199998474121,59.97999984741211L66.52999984741211,59.97999984741211L66.52999984741211,73.2899998474121L23.67999984741211,73.2899998474121L23.67999984741211,59.97999984741211L25.38999984741211,59.97999984741211C26.09999984741211,59.97999984741211,26.69999984741211,59.37999984741211,26.69999984741211,58.66999984741211C26.69999984741211,57.95999984741211,26.09999984741211,57.35999984741211,25.38999984741211,57.35999984741211L22.469999847412108,57.35999984741211C21.75999984741211,57.35999984741211,21.15999984741211,57.95999984741211,21.15999984741211,58.66999984741211L21.15999984741211,74.39999984741212C21.15999984741211,75.10999984741211,21.77000084741211,75.7099998474121,22.469999847412108,75.7099998474121L67.83999984741212,75.7099998474121C68.4499998474121,75.7099998474121,69.04999984741211,75.1999998474121,69.04999984741211,74.49999984741211ZM65.8199998474121,59.46999984741211C66.01999984741211,59.16999984741211,66.11999984741212,58.75999984741211,66.01999984741211,58.35999984741211L61.07999984741211,39.50999984741211C60.97999984741211,39.00999984741211,60.47999984741211,38.59999984741211,59.86999984741211,38.59999984741211L52.00999984741211,38.59999984741211C51.29999984741211,38.59999984741211,50.69999984741211,39.19999984741211,50.69999984741211,39.90999984741211C50.69999984741211,40.61999984741211,51.29999984741211,41.21999984741211,52.00999984741211,41.21999984741211L58.96999984741211,41.21999984741211L63.30999984741211,57.54999984741211L27.10999984741211,57.54999984741211L31.33999984741211,41.319999847412106L36.27999984741211,41.319999847412106C36.98999984741211,41.319999847412106,37.58999984741211,40.71999984741211,37.58999984741211,40.00999984741211C37.58999984741211,39.29999984741211,36.98999984741211,38.69999984741211,36.27999984741211,38.69999984741211L30.32999984741211,38.69999984741211C29.72999984741211,38.69999984741211,29.21999984741211,39.09999984741211,29.11999984741211,39.60999984741211L24.17999984741211,58.35999984741211C24.07999984741211,58.75999984741211,24.17999984741211,59.16999984741211,24.37999984741211,59.46999984741211C24.57999984741211,59.76999984741211,24.97999984741211,59.96999984741211,25.38999984741211,59.96999984741211L64.80999984741212,59.96999984741211C65.21999984741211,59.97999984741211,65.61999984741212,59.76999984741211,65.8199998474121,59.46999984741211ZM53.319999847412106,39.90999984741211L53.319999847412106,34.96999984741211C53.319999847412106,34.25999984741211,52.71999984741211,33.65999984741211,52.00999984741211,33.65999984741211L36.179999847412105,33.65999984741211C35.46999984741211,33.65999984741211,34.86999984741211,34.25999984741211,34.86999984741211,34.96999984741211L34.86999984741211,39.90999984741211C34.86999984741211,40.61999984741211,35.46999984741211,41.21999984741211,36.179999847412105,41.21999984741211L52.00999984741211,41.21999984741211C52.71999984741211,41.21999984741211,53.21999984741211,40.61999984741211,53.319999847412106,39.90999984741211ZM37.48999984741211,36.27999984741211L50.79999984741211,36.27999984741211L50.79999984741211,38.69999984741211L37.48999984741211,38.69999984741211L37.48999984741211,36.27999984741211ZM35.57999984741211,66.52999984741211C35.57999984741211,63.60999984741211,33.15999984741211,61.28999984741211,30.33999984741211,61.28999984741211C27.419999847412107,61.28999984741211,25.09999984741211,63.70999984741211,25.09999984741211,66.52999984741211C25.09999984741211,69.4499998474121,27.51999984741211,71.76999984741211,30.33999984741211,71.76999984741211C33.15999984741211,71.76999984741211,35.47999984741211,69.4499998474121,35.57999984741211,66.52999984741211ZM33.05999984741211,66.62999984741211C33.05999984741211,68.1399998474121,31.849999847412107,69.3499998474121,30.33999984741211,69.3499998474121C28.82999984741211,69.3499998474121,27.61999984741211,68.1399998474121,27.61999984741211,66.62999984741211C27.61999984741211,65.11999984741212,28.82999984741211,63.90999984741211,30.33999984741211,63.90999984741211C31.74999984741211,63.90999984741211,32.95999984741211,65.11999984741212,33.05999984741211,66.62999984741211ZM65.11999984741212,66.52999984741211C65.11999984741212,63.60999984741211,62.69999984741211,61.28999984741211,59.87999984741211,61.28999984741211C56.95999984741211,61.28999984741211,54.639999847412106,63.70999984741211,54.639999847412106,66.52999984741211C54.639999847412106,69.4499998474121,57.05999984741211,71.76999984741211,59.87999984741211,71.76999984741211C62.79999984741211,71.76999984741211,65.11999984741212,69.4499998474121,65.11999984741212,66.52999984741211ZM62.59999984741211,66.62999984741211C62.59999984741211,68.1399998474121,61.389999847412106,69.3499998474121,59.87999984741211,69.3499998474121C58.36999984741211,69.3499998474121,57.15999984741211,68.1399998474121,57.15999984741211,66.62999984741211C57.15999984741211,65.11999984741212,58.36999984741211,63.90999984741211,59.87999984741211,63.90999984741211C61.389999847412106,63.90999984741211,62.59999984741211,65.11999984741212,62.59999984741211,66.62999984741211ZM53.319999847412106,66.52999984741211C53.319999847412106,65.8199998474121,52.71999984741211,65.21999984741211,52.00999984741211,65.21999984741211L38.19999984741211,65.21999984741211C37.48999984741211,65.21999984741211,36.88999984741211,65.8199998474121,36.88999984741211,66.52999984741211C36.88999984741211,67.23999984741211,37.48999984741211,67.83999984741212,38.19999984741211,67.83999984741212L52.00999984741211,67.83999984741212C52.71999984741211,67.83999984741212,53.21999984741211,67.23999984741211,53.319999847412106,66.52999984741211ZM81.74999984741211,80.33999984741212C81.74999984741211,79.62999984741211,81.1399998474121,79.02999984741211,80.43999984741211,79.02999984741211L22.469999847412108,79.02999984741211C21.75999984741211,79.02999984741211,21.15999984741211,79.62999984741211,21.15999984741211,80.33999984741212C21.15999984741211,81.04999984741211,21.77000084741211,81.64999984741212,22.469999847412108,81.64999984741212L80.43999984741211,81.64999984741212C81.04999984741211,81.64999984741212,81.64999984741212,81.04999984741211,81.74999984741211,80.33999984741212ZM81.64999984741212,31.849999847412107C81.64999984741212,25.99999984741211,76.90999984741211,21.15999984741211,70.9599998474121,21.15999984741211C65.0099998474121,21.15999984741211,60.26999984741211,26.09999984741211,60.26999984741211,31.94999984741211C60.26999984741211,37.79999984741211,65.0099998474121,42.63999984741211,70.9599998474121,42.63999984741211C76.80999984741212,42.63999984741211,81.64999984741212,37.69999984741211,81.64999984741212,31.849999847412107ZM79.12999984741211,31.849999847412107C79.12999984741211,36.38999984741211,75.49999984741211,40.01999984741211,70.9599998474121,40.01999984741211C66.4199998474121,40.01999984741211,62.78999984741211,36.38999984741211,62.78999984741211,31.849999847412107C62.78999984741211,27.309999847412108,66.4199998474121,23.67999984741211,70.9599998474121,23.67999984741211C75.49999984741211,23.67999984741211,79.12999984741211,27.309999847412108,79.12999984741211,31.849999847412107ZM75.1999998474121,37.899999847412104C75.6999998474121,37.59999984741211,75.90999984741211,36.98999984741211,75.6999998474121,36.48999984741211L74.58999984741212,33.15999984741211L77.40999984741211,31.13999984741211C77.90999984741211,30.83999984741211,78.11999984741212,30.32999984741211,77.90999984741211,29.72999984741211C77.7099998474121,29.12999984741211,77.1999998474121,28.81999984741211,76.6999998474121,28.81999984741211L73.26999984741211,28.81999984741211L72.15999984741211,25.489999847412108C71.9599998474121,24.88999984741211,71.55999984741212,24.57999984741211,70.9499998474121,24.57999984741211C70.3499998474121,24.57999984741211,69.93999984741211,24.97999984741211,69.73999984741211,25.489999847412108L68.62999984741211,28.81999984741211L65.1999998474121,28.81999984741211C64.5999998474121,28.81999984741211,64.18999984741211,29.21999984741211,63.98999984741211,29.72999984741211C63.78999984741211,30.22999984741211,63.98999984741211,30.739999847412108,64.2899998474121,31.13999984741211L67.10999984741211,33.15999984741211L65.99999984741211,36.48999984741211C65.89999984741212,36.98999984741211,66.0999998474121,37.59999984741211,66.49999984741211,37.899999847412104C66.99999984741211,38.19999984741211,67.60999984741211,38.19999984741211,68.0099998474121,37.899999847412104L70.82999984741211,35.87999984741211L73.64999984741212,37.899999847412104C73.8499998474121,37.99999984741211,74.04999984741211,38.09999984741211,74.35999984741211,38.09999984741211C74.6999998474121,38.09999984741211,74.89999984741212,37.99999984741211,75.1999998474121,37.899999847412104ZM69.04999984741211,31.33999984741211L69.64999984741212,31.33999984741211C70.2599998474121,31.33999984741211,70.65999984741211,30.93999984741211,70.85999984741211,30.42999984741211L70.9599998474121,29.92999984741211L71.05999984741212,30.42999984741211C71.2599998474121,31.029999847412107,71.76999984741211,31.33999984741211,72.26999984741211,31.33999984741211L72.76999984741211,31.33999984741211L72.36999984741212,31.63999984741211C71.86999984741212,31.93999984741211,71.65999984741211,32.54999984741211,71.86999984741212,33.04999984741211L72.0699998474121,33.54999984741211L71.6699998474121,33.24999984741211C71.1699998474121,32.94999984741211,70.55999984741212,32.94999984741211,70.15999984741211,33.24999984741211L69.7599998474121,33.54999984741211L69.9599998474121,33.04999984741211C70.05999984741212,32.54999984741211,69.85999984741211,31.93999984741211,69.4599998474121,31.63999984741211L69.04999984741211,31.33999984741211Z" fill="url(#master_svg2_12_93)" fill-opacity="1" style="mix-blend-mode:passthrough"/></g></g></g></svg>