<svg xmlns="http://www.w3.org/2000/svg" xmlns:xlink="http://www.w3.org/1999/xlink" fill="none" version="1.1" width="103.98999786376953" height="103" viewBox="0 0 103.98999786376953 103"><defs><clipPath id="master_svg0_12_06"><rect x="0" y="0" width="103.98999786376953" height="103" rx="0"/></clipPath><linearGradient x1="-0.012394296005368233" y1="-0.017482999712228775" x2="1.0124260187149048" y2="1.0174829959869385" id="master_svg1_12_94"><stop offset="0%" stop-color="#33E3EE" stop-opacity="1"/><stop offset="100%" stop-color="#2000DB" stop-opacity="1"/></linearGradient><linearGradient x1="-0.01065114140510559" y1="0.10838888585567474" x2="0.9991770386695862" y2="0.8838194608688354" id="master_svg2_12_95"><stop offset="0%" stop-color="#33E3EE" stop-opacity="1"/><stop offset="100%" stop-color="#2000DB" stop-opacity="1"/></linearGradient></defs><g clip-path="url(#master_svg0_12_06)"><g><g><rect x="1.5" y="1.5" width="100.98999786376953" height="100" rx="0" stroke="url(#master_svg1_12_94)" fill-opacity="0" fill="none" stroke-width="3" style="mix-blend-mode:passthrough"/></g><g><path d="M51.39000068664551,70.29999923706055C49.67000068664551,70.29999923706055,48.26000068664551,71.69999923706055,48.26000068664551,73.39999923706054C48.26000068664551,75.09999923706054,49.67000068664551,76.49999923706055,51.39000068664551,76.49999923706055C53.110000686645506,76.49999923706055,54.5200006866455,75.09999923706054,54.5200006866455,73.39999923706054C54.5200006866455,71.69999923706055,53.110000686645506,70.29999923706055,51.39000068664551,70.29999923706055ZM51.39000068664551,73.99999923706055C51.09000068664551,73.99999923706055,50.78000068664551,73.69999923706055,50.78000068664551,73.39999923706054C50.78000068664551,73.09999923706054,51.080000686645505,72.79999923706055,51.39000068664551,72.79999923706055C51.690000686645504,72.79999923706055,52.00000068664551,73.09999923706054,52.00000068664551,73.39999923706054C52.00000068664551,73.69999923706055,51.690000686645504,73.99999923706055,51.39000068664551,73.99999923706055ZM48.1600006866455,27.699999237060545C48.1600006866455,26.999999237060546,48.7700006866455,26.39999923706055,49.470000686645506,26.39999923706055L53.31000068664551,26.39999923706055C54.0200006866455,26.39999923706055,54.62000068664551,26.999999237060546,54.62000068664551,27.699999237060545C54.62000068664551,28.39999923706055,54.01000068664551,28.999999237060546,53.31000068664551,28.999999237060546L49.470000686645506,28.999999237060546C48.76000068664551,28.999999237060546,48.26000068664551,28.39999923706055,48.1600006866455,27.699999237060545ZM63.41000068664551,30.299999237060547L39.37000068664551,30.299999237060547C38.66000068664551,30.299999237060547,38.06000068664551,30.89999923706055,38.06000068664551,31.599999237060548L38.06000068664551,67.89999923706054C38.06000068664551,68.59999923706054,38.67000068664551,69.19999923706055,39.37000068664551,69.19999923706055L63.41000068664551,69.19999923706055C64.12000068664551,69.19999923706055,64.7200006866455,68.59999923706054,64.7200006866455,67.89999923706054L64.7200006866455,31.499999237060546C64.62000068664551,30.799999237060547,64.0100006866455,30.299999237060547,63.41000068664551,30.299999237060547ZM62.10000068664551,66.49999923706055L40.690000686645504,66.49999923706055L40.690000686645504,32.79999923706055L62.10000068664551,32.79999923706055L62.10000068664551,66.49999923706055ZM64.7200006866455,22.799999237060547L37.96000068664551,22.799999237060547C35.23000068664551,22.799999237060547,33.010000686645505,24.999999237060546,33.010000686645505,27.699999237060545L33.010000686645505,75.49999923706055C33.010000686645505,78.19999923706055,35.23000068664551,80.39999923706054,37.96000068664551,80.39999923706054L64.7200006866455,80.39999923706054C67.45000068664551,80.39999923706054,69.67000068664551,78.19999923706055,69.67000068664551,75.49999923706055L69.67000068664551,27.599999237060548C69.67000068664551,24.89999923706055,67.45000068664551,22.799999237060547,64.7200006866455,22.799999237060547ZM67.15000068664551,75.39999923706054C67.15000068664551,76.69999923706055,66.0400006866455,77.79999923706055,64.73000068664551,77.79999923706055L37.96000068664551,77.79999923706055C36.650000686645505,77.79999923706055,35.540000686645506,76.69999923706055,35.540000686645506,75.39999923706054L35.540000686645506,27.599999237060548C35.540000686645506,26.299999237060547,36.650000686645505,25.199999237060545,37.96000068664551,25.199999237060545L64.7200006866455,25.199999237060545C66.03000068664551,25.199999237060545,67.14000068664551,26.299999237060547,67.14000068664551,27.599999237060548L67.14000068664551,75.39999923706054L67.15000068664551,75.39999923706054ZM51.39000068664551,52.79999923706055C55.930000686645506,52.79999923706055,59.57000068664551,49.199999237060545,59.57000068664551,44.699999237060545C59.57000068664551,40.199999237060545,55.930000686645506,36.49999923706055,51.39000068664551,36.49999923706055C46.85000068664551,36.49999923706055,43.21000068664551,40.099999237060544,43.21000068664551,44.599999237060544C43.21000068664551,49.099999237060544,46.85000068664551,52.79999923706055,51.39000068664551,52.79999923706055ZM51.39000068664551,38.99999923706055C54.5200006866455,38.99999923706055,57.050000686645504,41.49999923706055,57.050000686645504,44.599999237060544C57.050000686645504,47.699999237060545,54.53000068664551,50.199999237060545,51.39000068664551,50.199999237060545C48.26000068664551,50.199999237060545,45.73000068664551,47.699999237060545,45.73000068664551,44.599999237060544C45.74000068664551,41.49999923706055,48.26000068664551,38.99999923706055,51.39000068664551,38.99999923706055ZM72.20000068664551,65.19999923706055C72.93000068664551,65.19999923706055,73.5100006866455,65.77999923706054,73.5100006866455,66.49999923706055C73.5100006866455,67.21999923706055,72.92000068664551,67.79999923706055,72.20000068664551,67.79999923706055C71.4700006866455,67.79999923706055,70.89000068664551,67.21999923706055,70.89000068664551,66.49999923706055C70.89000068664551,65.77999923706054,71.4700006866455,65.19999923706055,72.20000068664551,65.19999923706055ZM50.080000686645505,45.99999923706055L48.1600006866455,45.99999923706055C47.45000068664551,45.99999923706055,46.85000068664551,45.39999923706055,46.85000068664551,44.699999237060545C46.85000068664551,43.99999923706055,47.46000068664551,43.39999923706055,48.1600006866455,43.39999923706055L50.080000686645505,43.39999923706055L50.080000686645505,41.49999923706055C50.080000686645505,40.79999923706055,50.690000686645504,40.199999237060545,51.39000068664551,40.199999237060545C52.10000068664551,40.199999237060545,52.70000068664551,40.79999923706055,52.70000068664551,41.49999923706055L52.70000068664551,43.29999923706055L54.62000068664551,43.29999923706055C55.330000686645505,43.29999923706055,55.930000686645506,43.89999923706055,55.930000686645506,44.599999237060544C55.930000686645506,45.29999923706055,55.32000068664551,45.89999923706055,54.62000068664551,45.89999923706055L52.70000068664551,45.89999923706055L52.70000068664551,47.79999923706055C52.70000068664551,48.49999923706055,52.09000068664551,49.099999237060544,51.39000068664551,49.099999237060544C50.680000686645506,49.099999237060544,50.080000686645505,48.49999923706055,50.080000686645505,47.79999923706055L50.080000686645505,45.89999923706055L50.080000686645505,45.99999923706055ZM31.90000068664551,28.999999237060546L31.90000068664551,50.39999923706055C31.90000068664551,51.099999237060544,31.290000686645506,51.699999237060545,30.590000686645507,51.699999237060545C29.88000068664551,51.699999237060545,29.280000686645508,51.099999237060544,29.280000686645508,50.39999923706055L29.280000686645508,29.099999237060548C29.280000686645508,28.39999923706055,29.89000168664551,27.799999237060547,30.590000686645507,27.799999237060547C31.190000686645508,27.799999237060547,31.800000686645507,28.299999237060547,31.90000068664551,28.999999237060546ZM73.5100006866455,50.29999923706055L73.5100006866455,62.79999923706055C73.5100006866455,63.49999923706055,72.90000068664551,64.09999923706054,72.20000068664551,64.09999923706054C71.49000068664552,64.09999923706054,70.89000068664551,63.49999923706055,70.89000068664551,62.79999923706055L70.89000068664551,50.29999923706055C70.89000068664551,49.599999237060544,71.5000006866455,48.99999923706055,72.20000068664551,48.99999923706055C72.90000068664551,48.99999923706055,73.5100006866455,49.599999237060544,73.5100006866455,50.29999923706055ZM46.95000068664551,63.99999923706055L55.84000068664551,63.99999923706055C57.96000068664551,63.99999923706055,59.680000686645506,62.29999923706055,59.680000686645506,60.199999237060545C59.680000686645506,58.099999237060544,57.860000686645506,56.49999923706055,55.84000068664551,56.49999923706055L46.95000068664551,56.49999923706055C44.830000686645505,56.49999923706055,43.110000686645506,58.199999237060545,43.110000686645506,60.29999923706055C43.110000686645506,62.39999923706055,44.830000686645505,63.99999923706055,46.95000068664551,63.99999923706055ZM57.050000686645504,60.29999923706055C57.050000686645504,60.99999923706055,56.440000686645504,61.599999237060544,55.74000068664551,61.599999237060544L52.60000068664551,61.599999237060544L52.60000068664551,59.099999237060544L55.73000068664551,59.099999237060544C56.440000686645504,58.99999923706055,57.050000686645504,59.599999237060544,57.050000686645504,60.29999923706055ZM46.95000068664551,58.99999923706055L50.080000686645505,58.99999923706055L50.080000686645505,61.49999923706055L46.95000068664551,61.49999923706055C46.24000068664551,61.49999923706055,45.64000068664551,60.89999923706055,45.64000068664551,60.199999237060545C45.64000068664551,59.49999923706055,46.24000068664551,58.99999923706055,46.95000068664551,58.99999923706055Z" fill="url(#master_svg2_12_95)" fill-opacity="1" style="mix-blend-mode:passthrough"/></g></g></g></svg>