<svg xmlns="http://www.w3.org/2000/svg" xmlns:xlink="http://www.w3.org/1999/xlink" fill="none" version="1.1" width="103" height="103" viewBox="0 0 103 103"><defs><clipPath id="master_svg0_12_14"><rect x="0" y="0" width="103" height="103" rx="0"/></clipPath><linearGradient x1="-0.014999999664723873" y1="-0.014999999664723873" x2="1.0149999856948853" y2="1.0149999856948853" id="master_svg1_12_96"><stop offset="0%" stop-color="#33E3EE" stop-opacity="1"/><stop offset="100%" stop-color="#2000DB" stop-opacity="1"/></linearGradient><linearGradient x1="0.00938648171722889" y1="0.09663224965333939" x2="0.9179670810699463" y2="1.046362280845642" id="master_svg2_12_97"><stop offset="0%" stop-color="#33E3EE" stop-opacity="1"/><stop offset="100%" stop-color="#2000DB" stop-opacity="1"/></linearGradient></defs><g clip-path="url(#master_svg0_12_14)"><g><g><rect x="1.5" y="1.5" width="100" height="100" rx="0" stroke="url(#master_svg1_12_96)" fill-opacity="0" fill="none" stroke-width="3" style="mix-blend-mode:passthrough"/></g><g><path d="M80.30000152587891,48.10000076293945L66.5000015258789,48.10000076293945C66.10000152587891,48.10000076293945,65.80000152587891,47.900000762939456,65.5000015258789,47.60000076293945C65.30000152587891,47.300000762939455,65.2000015258789,46.900000762939456,65.30000152587891,46.50000076293945L67.80000152587891,36.50000076293945C67.9000015258789,35.900000762939456,68.4000015258789,35.60000076293945,69.0000015258789,35.60000076293945L77.80000152587891,35.60000076293945C78.4000015258789,35.60000076293945,78.9000015258789,36.00000076293945,79.0000015258789,36.50000076293945L81.5000015258789,46.400000762939456C81.5000015258789,46.50000076293945,81.60000152587891,46.60000076293945,81.60000152587891,46.800000762939455C81.5000015258789,47.50000076293945,80.9000015258789,48.10000076293945,80.30000152587891,48.10000076293945ZM68.10000152587891,45.60000076293945L78.60000152587891,45.60000076293945L76.7000015258789,38.10000076293945L69.9000015258789,38.10000076293945L68.10000152587891,45.60000076293945ZM75.30000152587891,79.10000076293946L75.30000152587891,47.800000762939455C75.30000152587891,47.10000076293945,74.7000015258789,46.50000076293945,74.0000015258789,46.50000076293945C73.30000152587891,46.50000076293945,72.7000015258789,47.10000076293945,72.7000015258789,47.800000762939455L72.7000015258789,79.00000076293945C72.7000015258789,79.70000076293945,73.30000152587891,80.30000076293945,74.0000015258789,80.30000076293945C74.7000015258789,80.30000076293945,75.30000152587891,79.80000076293945,75.30000152587891,79.10000076293946ZM71.60000152587891,52.50000076293945L71.60000152587891,48.70000076293945C71.60000152587891,48.00000076293945,71.0000015258789,47.400000762939456,70.30000152587891,47.400000762939456C69.60000152587891,47.400000762939456,69.0000015258789,48.00000076293945,69.0000015258789,48.70000076293945L69.0000015258789,52.50000076293945C69.0000015258789,53.20000076293945,69.60000152587891,53.800000762939455,70.30000152587891,53.800000762939455C70.9000015258789,53.800000762939455,71.5000015258789,53.300000762939455,71.60000152587891,52.50000076293945ZM69.0000015258789,74.00000076293945L69.0000015258789,60.900000762939456C69.0000015258789,58.50000076293945,67.0000015258789,56.50000076293945,64.60000152587891,56.50000076293945C63.400001525878906,56.50000076293945,62.300001525878905,57.00000076293945,61.50000152587891,57.800000762939455C60.7000015258789,58.60000076293945,60.2000015258789,59.70000076293945,60.2000015258789,60.900000762939456L60.2000015258789,66.50000076293945L32.7000015258789,66.50000076293945L32.7000015258789,60.900000762939456C32.7000015258789,58.50000076293945,30.700001525878907,56.50000076293945,28.300001525878905,56.50000076293945C27.100001525878906,56.50000076293945,26.000001525878908,57.00000076293945,25.200001525878907,57.800000762939455C24.400001525878906,58.60000076293945,23.900001525878906,59.70000076293945,23.900001525878906,60.900000762939456L23.900001525878906,73.90000076293946C23.900001525878906,74.60000076293946,24.500001525878908,75.20000076293945,25.200001525878907,75.20000076293945L29.000001525878908,75.20000076293945C29.700001525878907,75.20000076293945,30.300001525878905,74.60000076293946,30.300001525878905,73.90000076293946C30.300001525878905,73.20000076293945,29.700001525878907,72.60000076293946,29.000001525878908,72.60000076293946L26.500001525878908,72.60000076293946L26.500001525878908,60.70000076293945C26.500001525878908,60.20000076293945,26.600001525878906,59.800000762939455,27.000001525878908,59.400000762939456C27.300001525878905,59.10000076293945,27.800001525878905,58.900000762939456,28.300001525878905,58.900000762939456C29.400001525878906,58.900000762939456,30.200001525878907,59.800000762939455,30.200001525878907,60.800000762939455L30.200001525878907,67.70000076293945C30.200001525878907,68.40000076293946,30.800001525878905,69.00000076293945,31.500001525878908,69.00000076293945L61.50000152587891,69.00000076293945C62.2000015258789,69.00000076293945,62.800001525878905,68.40000076293946,62.800001525878905,67.70000076293945L62.800001525878905,60.800000762939455C62.800001525878905,60.300000762939455,62.900001525878906,59.900000762939456,63.300001525878905,59.50000076293945C63.60000152587891,59.20000076293945,64.10000152587891,59.00000076293945,64.60000152587891,59.00000076293945C65.7000015258789,59.00000076293945,66.5000015258789,59.900000762939456,66.5000015258789,60.900000762939456L66.5000015258789,72.70000076293945L64.0000015258789,72.70000076293945C63.300001525878905,72.70000076293945,62.7000015258789,73.30000076293945,62.7000015258789,74.00000076293945C62.7000015258789,74.70000076293945,63.300001525878905,75.30000076293945,64.0000015258789,75.30000076293945L67.80000152587891,75.30000076293945C68.4000015258789,75.30000076293945,69.0000015258789,74.70000076293945,69.0000015258789,74.00000076293945ZM60.300001525878905,74.00000076293945C60.300001525878905,73.30000076293945,59.7000015258789,72.70000076293945,59.00000152587891,72.70000076293945L34.00000152587891,72.70000076293945C33.300001525878905,72.70000076293945,32.7000015258789,73.30000076293945,32.7000015258789,74.00000076293945C32.7000015258789,74.70000076293945,33.300001525878905,75.30000076293945,34.00000152587891,75.30000076293945L59.00000152587891,75.30000076293945C59.7000015258789,75.30000076293945,60.300001525878905,74.70000076293945,60.300001525878905,74.00000076293945ZM62.7000015258789,60.800000762939455L62.7000015258789,55.00000076293945C62.7000015258789,51.60000076293945,60.00000152587891,48.900000762939456,56.60000152587891,48.900000762939456L36.300001525878905,48.900000762939456C32.900001525878906,48.900000762939456,30.200001525878907,51.60000076293945,30.200001525878907,55.00000076293945L30.200001525878907,60.800000762939455C30.200001525878907,61.50000076293945,30.800001525878905,62.10000076293945,31.500001525878908,62.10000076293945C32.2000015258789,62.10000076293945,32.800001525878905,61.50000076293945,32.800001525878905,60.800000762939455L32.800001525878905,55.00000076293945C32.800001525878905,53.00000076293945,34.400001525878906,51.400000762939456,36.400001525878906,51.400000762939456L56.60000152587891,51.400000762939456C58.60000152587891,51.400000762939456,60.2000015258789,53.00000076293945,60.2000015258789,55.00000076293945L60.2000015258789,60.800000762939455C60.2000015258789,61.50000076293945,60.800001525878905,62.10000076293945,61.50000152587891,62.10000076293945C62.2000015258789,62.10000076293945,62.800001525878905,61.60000076293945,62.7000015258789,60.800000762939455ZM33.900001525878906,79.40000076293946L35.2000015258789,74.40000076293946C35.300001525878905,74.00000076293945,35.2000015258789,73.60000076293946,35.00000152587891,73.30000076293945C34.7000015258789,73.00000076293945,34.400001525878906,72.80000076293945,34.00000152587891,72.80000076293945L29.000001525878908,72.80000076293945C28.300001525878905,72.80000076293945,27.700001525878907,73.40000076293946,27.700001525878907,74.10000076293946L27.700001525878907,79.10000076293946C27.700001525878907,79.80000076293945,28.300001525878905,80.40000076293946,29.000001525878908,80.40000076293946C29.700001525878907,80.40000076293946,30.300001525878905,79.80000076293945,30.300001525878905,79.10000076293946L30.300001525878905,75.30000076293945L32.50000152587891,75.30000076293945L31.600001525878906,78.80000076293945C31.400001525878906,79.50000076293945,31.800001525878905,80.10000076293946,32.50000152587891,80.30000076293945C32.60000152587891,80.30000076293945,32.7000015258789,80.30000076293945,32.800001525878905,80.30000076293945C33.300001525878905,80.30000076293945,33.800001525878905,79.90000076293946,33.900001525878906,79.40000076293946ZM60.400001525878906,80.30000076293945C61.10000152587891,80.10000076293946,61.50000152587891,79.50000076293945,61.300001525878905,78.80000076293945L60.400001525878906,75.30000076293945L62.60000152587891,75.30000076293945L62.60000152587891,79.10000076293946C62.60000152587891,79.80000076293945,63.2000015258789,80.40000076293946,63.900001525878906,80.40000076293946C64.60000152587891,80.40000076293946,65.2000015258789,79.80000076293945,65.2000015258789,79.10000076293946L65.2000015258789,74.10000076293946C65.2000015258789,73.40000076293946,64.60000152587891,72.80000076293945,63.900001525878906,72.80000076293945L58.900001525878906,72.80000076293945C58.50000152587891,72.80000076293945,58.10000152587891,73.00000076293945,57.900001525878906,73.30000076293945C57.7000015258789,73.60000076293946,57.60000152587891,74.00000076293945,57.7000015258789,74.40000076293946L59.00000152587891,79.40000076293946C59.10000152587891,79.90000076293946,59.60000152587891,80.30000076293945,60.2000015258789,80.30000076293945C60.300001525878905,80.30000076293945,60.50000152587891,80.30000076293945,60.400001525878906,80.30000076293945ZM62.800001525878905,64.00000076293945C62.800001525878905,63.300000762939455,62.2000015258789,62.70000076293945,61.50000152587891,62.70000076293945L31.500001525878908,62.70000076293945C30.800001525878905,62.70000076293945,30.200001525878907,63.300000762939455,30.200001525878907,64.00000076293945C30.200001525878907,64.70000076293945,30.800001525878905,65.30000076293945,31.500001525878908,65.30000076293945L61.50000152587891,65.30000076293945C62.2000015258789,65.30000076293945,62.800001525878905,64.70000076293945,62.800001525878905,64.00000076293945ZM39.60000152587891,65.30000076293945C39.300001525878905,65.30000076293945,39.00000152587891,65.20000076293945,38.7000015258789,64.90000076293946L34.400001525878906,60.50000076293945C33.900001525878906,60.00000076293945,33.900001525878906,59.20000076293945,34.400001525878906,58.70000076293945L38.800001525878905,54.300000762939455C39.300001525878905,53.800000762939455,40.10000152587891,53.800000762939455,40.60000152587891,54.300000762939455L45.00000152587891,58.70000076293945C45.50000152587891,59.20000076293945,45.50000152587891,60.00000076293945,45.00000152587891,60.50000076293945L40.50000152587891,64.90000076293946C40.300001525878905,65.10000076293946,39.900001525878906,65.30000076293945,39.60000152587891,65.30000076293945ZM37.00000152587891,59.60000076293945L39.60000152587891,62.20000076293945L42.2000015258789,59.60000076293945L39.60000152587891,57.00000076293945L37.00000152587891,59.60000076293945ZM53.400001525878906,65.30000076293945C53.10000152587891,65.30000076293945,52.800001525878905,65.20000076293945,52.50000152587891,64.90000076293946L48.10000152587891,60.50000076293945C47.60000152587891,60.00000076293945,47.60000152587891,59.20000076293945,48.10000152587891,58.70000076293945L52.50000152587891,54.300000762939455C53.00000152587891,53.800000762939455,53.800001525878905,53.800000762939455,54.300001525878905,54.300000762939455L58.7000015258789,58.70000076293945C59.2000015258789,59.20000076293945,59.2000015258789,60.00000076293945,58.7000015258789,60.50000076293945L54.300001525878905,64.90000076293946C54.00000152587891,65.10000076293946,53.7000015258789,65.30000076293945,53.400001525878906,65.30000076293945ZM50.800001525878905,59.60000076293945L53.400001525878906,62.20000076293945L56.00000152587891,59.60000076293945L53.400001525878906,57.00000076293945L50.800001525878905,59.60000076293945ZM47.800001525878905,56.50000076293945L47.800001525878905,50.20000076293945C47.800001525878905,49.50000076293945,47.2000015258789,48.900000762939456,46.50000152587891,48.900000762939456C45.800001525878905,48.900000762939456,45.2000015258789,49.50000076293945,45.2000015258789,50.20000076293945L45.2000015258789,56.50000076293945C45.2000015258789,57.20000076293945,45.800001525878905,57.800000762939455,46.50000152587891,57.800000762939455C47.2000015258789,57.800000762939455,47.800001525878905,57.20000076293945,47.800001525878905,56.50000076293945ZM40.300001525878905,37.800000762939455L30.300001525878905,37.800000762939455C29.600001525878906,37.800000762939455,29.000001525878908,37.20000076293945,29.000001525878908,36.50000076293945L29.000001525878908,26.500000762939454C29.000001525878908,25.799998762939452,29.600001525878906,25.200000762939453,30.300001525878905,25.200000762939453L40.300001525878905,25.200000762939453C41.00000152587891,25.200000762939453,41.60000152587891,25.800000762939455,41.60000152587891,26.500000762939454L41.60000152587891,36.50000076293945C41.50000152587891,37.20000076293945,40.900001525878906,37.800000762939455,40.300001525878905,37.800000762939455ZM31.500001525878908,35.300000762939455L39.00000152587891,35.300000762939455L39.00000152587891,27.800000762939455L31.500001525878908,27.800000762939455L31.500001525878908,35.300000762939455ZM54.00000152587891,45.300000762939455L44.00000152587891,45.300000762939455C43.300001525878905,45.300000762939455,42.7000015258789,44.70000076293945,42.7000015258789,44.00000076293945L42.7000015258789,34.00000076293945C42.7000015258789,33.300000762939455,43.300001525878905,32.70000076293945,44.00000152587891,32.70000076293945L54.00000152587891,32.70000076293945C54.7000015258789,32.70000076293945,55.300001525878905,33.300000762939455,55.300001525878905,34.00000076293945L55.300001525878905,44.00000076293945C55.300001525878905,44.70000076293945,54.7000015258789,45.300000762939455,54.00000152587891,45.300000762939455ZM45.300001525878905,42.800000762939455L52.800001525878905,42.800000762939455L52.800001525878905,35.300000762939455L45.300001525878905,35.300000762939455L45.300001525878905,42.800000762939455ZM44.900001525878906,44.900000762939456L49.900001525878906,39.900000762939456C50.400001525878906,39.400000762939456,50.400001525878906,38.60000076293945,49.900001525878906,38.10000076293945C49.400001525878906,37.60000076293945,48.60000152587891,37.60000076293945,48.10000152587891,38.10000076293945L43.10000152587891,43.10000076293945C42.60000152587891,43.60000076293945,42.60000152587891,44.400000762939456,43.10000152587891,44.900000762939456C43.400001525878906,45.20000076293945,43.7000015258789,45.300000762939455,44.00000152587891,45.300000762939455C44.300001525878905,45.300000762939455,44.60000152587891,45.10000076293945,44.900001525878906,44.900000762939456ZM31.200001525878907,37.400000762939456L36.2000015258789,32.400000762939456C36.7000015258789,31.900000762939452,36.7000015258789,31.10000076293945,36.2000015258789,30.60000076293945C35.7000015258789,30.10000076293945,34.900001525878906,30.10000076293945,34.400001525878906,30.60000076293945L29.400001525878906,35.60000076293945C28.900001525878906,36.10000076293945,28.900001525878906,36.900000762939456,29.400001525878906,37.400000762939456C29.700001525878907,37.70000076293945,30.000001525878908,37.800000762939455,30.300001525878905,37.800000762939455C30.600001525878906,37.800000762939455,30.900001525878906,37.60000076293945,31.200001525878907,37.400000762939456ZM80.30000152587891,79.00000076293945C80.30000152587891,78.30000076293945,79.7000015258789,77.70000076293945,79.0000015258789,77.70000076293945L25.900001525878906,77.70000076293945C25.200001525878907,77.70000076293945,24.600000525878905,78.30000076293945,24.600000525878905,79.00000076293945C24.600000525878905,79.70000076293945,25.200001525878907,80.30000076293945,25.900001525878906,80.30000076293945L79.0000015258789,80.30000076293945C79.7000015258789,80.30000076293945,80.30000152587891,79.70000076293945,80.30000152587891,79.00000076293945Z" fill="url(#master_svg2_12_97)" fill-opacity="1" style="mix-blend-mode:passthrough"/></g></g></g></svg>