<svg xmlns="http://www.w3.org/2000/svg" xmlns:xlink="http://www.w3.org/1999/xlink" fill="none" version="1.1" width="104.16000366210938" height="104.16000366210938" viewBox="0 0 104.16000366210938 104.16000366210938"><defs><clipPath id="master_svg0_12_22"><rect x="0" y="0" width="104.16000366210938" height="104.16000366210938" rx="0"/></clipPath><linearGradient x1="-0.014829237014055252" y1="-0.014826753176748753" x2="1.014816164970398" y2="1.0148191452026367" id="master_svg1_12_98"><stop offset="0%" stop-color="#33E3EE" stop-opacity="1"/><stop offset="100%" stop-color="#2000DB" stop-opacity="1"/></linearGradient><linearGradient x1="-0.04241712763905525" y1="0.08549165725708008" x2="0.9790509343147278" y2="0.9410179853439331" id="master_svg2_12_99"><stop offset="0%" stop-color="#33E3EE" stop-opacity="1"/><stop offset="100%" stop-color="#2000DB" stop-opacity="1"/></linearGradient></defs><g clip-path="url(#master_svg0_12_22)"><g><g><rect x="1.5" y="1.5" width="101.16000366210938" height="101.16000366210938" rx="0" stroke="url(#master_svg1_12_98)" fill-opacity="0" fill="none" stroke-width="3" style="mix-blend-mode:passthrough"/></g><g><path d="M69.68000091552734,36.500001983642576C69.68000091552734,36.60000198364258,69.78000091552735,36.80000198364258,69.78000091552735,36.90000198364258C69.78000091552735,37.41000198364258,69.48000091552734,37.91000198364258,68.87000091552734,38.110001983642576C68.16000091552735,38.31000198364258,67.45000091552734,38.01000198364258,67.25000091552735,37.30000198364258C67.25000091552735,37.20000198364258,67.15000091552734,37.000001983642576,67.15000091552734,36.89000198364258C67.15000091552734,36.38000198364258,67.45000091552734,35.88000198364258,68.06000091552735,35.680001983642576C68.16000091552735,35.680001983642576,68.36000091552734,35.580001983642575,68.46000091552735,35.580001983642575C69.07000091552734,35.690001983642574,69.58000091552734,36.000001983642576,69.68000091552734,36.500001983642576ZM41.960000915527345,24.260001983642578C41.860000915527344,24.260001983642578,41.66000091552734,24.36000198364258,41.56000091552734,24.36000198364258C40.95000091552734,24.56000198364258,40.65000091552734,25.070001983642577,40.65000091552734,25.570001983642577C40.65000091552734,25.670001983642578,40.750000915527345,25.870001983642577,40.750000915527345,25.97000198364258C40.95000091552734,26.680001983642576,41.66000091552734,26.980001983642577,42.37000091552734,26.780001983642578C42.98000091552734,26.58000198364258,43.28000091552734,26.070001983642577,43.28000091552734,25.570001983642577C43.28000091552734,25.47000198364258,43.180000915527344,25.27000198364258,43.180000915527344,25.16000198364258C42.98000091552734,24.56000198364258,42.47000091552734,24.260001983642578,41.960000915527345,24.260001983642578ZM30.530000915527346,36.91000198364258C30.430000915527344,36.91000198364258,30.230000915527345,37.01000198364258,30.130000915527344,37.01000198364258C29.520000915527344,37.21000198364258,29.220000915527343,37.720001983642575,29.220000915527343,38.220001983642575C29.220000915527343,38.32000198364258,29.320000915527345,38.52000198364258,29.320000915527345,38.62000198364258C29.520000915527344,39.330001983642575,30.230000915527345,39.63000198364258,30.940000915527342,39.43000198364258C31.55000091552734,39.23000198364258,31.850000915527342,38.720001983642575,31.850000915527342,38.220001983642575C31.850000915527342,38.12000198364258,31.750000915527345,37.92000198364258,31.750000915527345,37.82000198364258C31.650000915527343,37.21000198364258,31.140000915527345,36.91000198364258,30.530000915527346,36.91000198364258ZM55.320000915527345,40.24000198364258C55.62000091552734,38.32000198364258,55.83000091552734,35.99000198364258,55.83000091552734,33.56000198364258C55.83000091552734,30.73000198364258,55.53000091552734,28.000001983642576,55.12000091552734,25.97000198364258C54.72000091552734,24.250001983642576,54.01000091552734,21.920001983642578,52.290000915527344,21.920001983642578C50.570000915527345,21.920001983642578,49.960000915527345,24.15000198364258,49.76000091552734,24.960001983642577C49.360000915527344,26.38000198364258,49.05000091552735,28.40000198364258,48.95000091552734,30.63000198364258C48.850000915527346,31.540001983642576,48.850000915527346,32.45000198364258,48.850000915527346,33.46000198364258C48.850000915527346,35.89000198364258,49.05000091552735,38.21000198364258,49.360000915527344,40.14000198364258C49.460000915527345,40.85000198364258,50.070000915527345,41.250001983642576,50.78000091552734,41.15000198364258C51.49000091552735,41.050001983642574,51.890000915527345,40.440001983642574,51.790000915527344,39.73000198364258C51.49000091552735,38.01000198364258,51.28000091552734,35.78000198364258,51.28000091552734,33.46000198364258C51.28000091552734,32.55000198364258,51.28000091552734,31.640001983642577,51.38000091552735,30.73000198364258C51.48000091552734,28.000001983642576,51.890000915527345,26.180001983642576,52.19000091552734,25.170001983642578C52.290000915527344,25.47000198364258,52.390000915527345,25.88000198364258,52.49000091552735,26.38000198364258C52.890000915527345,28.20000198364258,53.100000915527346,30.73000198364258,53.100000915527346,33.46000198364258C53.100000915527346,35.690001983642574,52.90000091552734,38.01000198364258,52.59000091552734,39.73000198364258C52.49000091552735,40.34000198364258,52.890000915527345,41.04000198364258,53.600000915527346,41.15000198364258C53.70000091552734,41.15000198364258,53.70000091552734,41.15000198364258,53.80000091552735,41.15000198364258C54.41000091552735,41.15000198364258,54.91000091552735,40.750001983642576,55.320000915527345,40.24000198364258ZM71.30000091552733,54.71000198364258C72.11000091552734,53.190001983642574,70.49000091552735,51.470001983642575,69.18000091552734,50.26000198364258C67.56000091552735,48.940001983642574,65.34000091552734,47.330001983642575,62.91000091552734,45.91000198364257C60.790000915527344,44.70000198364258,58.66000091552735,43.690001983642574,56.84000091552734,42.98000198364258C56.23000091552734,42.68000198364258,55.42000091552734,43.080001983642575,55.22000091552734,43.690001983642574C54.92000091552734,44.300001983642574,55.320000915527345,45.110001983642576,55.930000915527344,45.31000198364258C57.65000091552734,45.92000198364258,59.570000915527345,46.93000198364258,61.59000091552734,48.04000198364258C65.13000091552735,50.06000198364258,67.36000091552734,51.88000198364258,68.37000091552734,53.000001983642576C66.75000091552735,52.70000198364258,63.920000915527346,51.48000198364258,60.680000915527344,49.66000198364257C58.66000091552735,48.550001983642574,56.84000091552734,47.23000198364258,55.42000091552734,46.12000198364258C54.81000091552734,45.71000198364258,54.000000915527345,45.82000198364258,53.600000915527346,46.32000198364258C53.20000091552734,46.93000198364258,53.30000091552735,47.74000198364258,53.80000091552735,48.14000198364258C55.320000915527345,49.35000198364258,57.24000091552735,50.67000198364258,59.360000915527344,51.88000198364258C62.600000915527346,53.800001983642574,66.85000091552735,55.720001983642575,69.17000091552734,55.720001983642575C70.39000091552734,55.720001983642575,70.89000091552734,55.21000198364258,71.30000091552733,54.71000198364258ZM38.02000091552735,55.21000198364258C39.94000091552734,54.500001983642576,42.37000091552734,53.39000198364258,44.90000091552734,51.970001983642575C47.02000091552735,50.76000198364258,48.95000091552734,49.440001983642574,50.460000915527345,48.23000198364258C51.070000915527345,47.720001983642575,51.070000915527345,46.91000198364257,50.66000091552735,46.41000198364257C50.15000091552734,45.800001983642574,49.34000091552734,45.800001983642574,48.84000091552734,46.21000198364258C47.42000091552734,47.32000198364258,45.600000915527346,48.64000198364258,43.58000091552734,49.750001983642576C40.040000915527344,51.77000198364258,37.31000091552734,52.78000198364258,35.890000915527345,53.09000198364258C36.90000091552734,52.080001983642575,39.13000091552735,50.16000198364257,42.570000915527345,48.13000198364258C44.59000091552734,47.02000198364258,46.52000091552735,46.01000198364258,48.24000091552735,45.40000198364258C48.750000915527345,45.20000198364258,49.15000091552734,44.79000198364258,49.15000091552734,44.190001983642574C49.15000091552734,43.48000198364258,48.540000915527344,42.87000198364258,47.84000091552734,42.87000198364258C47.74000091552735,42.87000198364258,47.540000915527344,42.87000198364258,47.44000091552734,42.970001983642575C45.62000091552734,43.68000198364258,43.49000091552735,44.690001983642574,41.37000091552734,45.90000198364258C39.140000915527345,47.220001983642575,37.02000091552735,48.63000198364258,35.500000915527345,49.95000198364258C33.070000915527345,52.07000198364258,32.77000091552735,53.190001983642574,32.77000091552735,53.79000198364258C32.77000091552735,54.09000198364258,32.77000091552735,54.400001983642575,32.97000091552734,54.70000198364258C33.370010915527345,55.51000198364258,34.180000915527344,55.71000198364258,34.99000091552735,55.71000198364258C36.000000915527345,55.720001983642575,37.01000091552734,55.42000198364258,38.02000091552735,55.21000198364258ZM44.49000091552735,75.25000198364258L50.860000915527344,47.63000198364258C51.06000091552734,46.92000198364258,50.66000091552735,46.31000198364258,49.95000091552734,46.110001983642576C49.24000091552735,45.91000198364257,48.640000915527345,46.31000198364258,48.430000915527344,47.02000198364258L42.06000091552734,74.64000198364258C41.860000915527344,75.35000198364258,42.26000091552734,75.96000198364257,42.97000091552734,76.16000198364259C43.070000915527345,76.16000198364259,43.17000091552734,76.16000198364259,43.27000091552735,76.16000198364259C43.78000091552734,76.16000198364259,44.290000915527344,75.75000198364258,44.49000091552735,75.25000198364258ZM61.280000915527346,76.05000198364257C61.890000915527345,75.85000198364258,62.390000915527345,75.24000198364257,62.19000091552734,74.53000198364258L55.72000091552734,46.91000198364257C55.52000091552735,46.300001983642574,54.91000091552735,45.800001983642574,54.20000091552734,46.000001983642576C53.59000091552734,46.20000198364258,53.09000091552734,46.81000198364258,53.290000915527344,47.52000198364258L59.66000091552734,75.14000198364258C59.76000091552734,75.75000198364258,60.27000091552734,76.15000198364257,60.87000091552734,76.15000198364257C60.98000091552734,76.16000198364259,61.08000091552734,76.05000198364257,61.280000915527346,76.05000198364257ZM55.320000915527345,48.13000198364258C56.53000091552734,47.220001983642575,57.34000091552734,45.800001983642574,57.55000091552735,44.29000198364258C57.55000091552735,44.09000198364258,57.55000091552735,43.89000198364258,57.55000091552735,43.68000198364258C57.55000091552735,41.45000198364258,56.34000091552734,39.53000198364258,54.31000091552734,38.62000198364258C53.600000915527346,38.32000198364258,52.890000915527345,38.110001983642576,52.08000091552734,38.110001983642576C51.27000091552735,38.110001983642576,50.56000091552734,38.31000198364258,49.850000915527346,38.62000198364258C47.930000915527344,39.53000198364258,46.610000915527344,41.45000198364258,46.610000915527344,43.68000198364258C46.610000915527344,43.88000198364258,46.610000915527344,44.080001983642575,46.610000915527344,44.29000198364258C46.81000091552734,45.81000198364258,47.62000091552734,47.220001983642575,48.84000091552734,48.13000198364258C49.750000915527345,48.84000198364258,50.860000915527344,49.24000198364258,52.08000091552734,49.24000198364258C53.290000915527344,49.250001983642576,54.41000091552735,48.940001983642574,55.320000915527345,48.13000198364258ZM53.09000091552734,40.95000198364258C54.20000091552734,41.46000198364258,54.91000091552735,42.470001983642575,54.91000091552735,43.68000198364258C54.91000091552735,43.78000198364258,54.91000091552735,43.88000198364258,54.91000091552735,43.98000198364258C54.81000091552734,44.79000198364258,54.40000091552734,45.500001983642576,53.70000091552734,46.000001983642576C53.19000091552734,46.40000198364258,52.59000091552734,46.610001983642576,51.98000091552734,46.610001983642576C51.37000091552734,46.610001983642576,50.77000091552735,46.41000198364257,50.26000091552734,46.000001983642576C49.55000091552735,45.60000198364258,49.15000091552734,44.79000198364258,49.05000091552735,43.98000198364258C49.05000091552735,43.88000198364258,49.05000091552735,43.78000198364258,49.05000091552735,43.68000198364258C49.05000091552735,42.470001983642575,49.76000091552734,41.45000198364258,50.87000091552734,40.95000198364258C51.27000091552735,40.85000198364258,51.680000915527344,40.750001983642576,52.08000091552734,40.750001983642576C52.48000091552734,40.750001983642576,52.890000915527345,40.85000198364258,53.09000091552734,40.95000198364258ZM69.38000091552735,82.22000198364258C69.99000091552735,81.92000198364258,70.19000091552735,81.11000198364258,69.79000091552734,80.50000198364258L65.95000091552734,74.13000198364259C65.65000091552734,73.73000198364258,65.24000091552735,73.52000198364257,64.84000091552734,73.52000198364257L39.540000915527344,73.52000198364257C39.030000915527346,73.52000198364257,38.63000091552735,73.72000198364258,38.430000915527344,74.13000198364259L34.59000091552734,80.50000198364258C34.19000091552734,81.11000198364258,34.390000915527345,81.82000198364258,34.99000091552735,82.22000198364258C35.600000915527346,82.62000198364258,36.30000091552734,82.42000198364258,36.710000915527345,81.82000198364258L40.15000091552734,76.15000198364257L64.02000091552733,76.15000198364257L67.46000091552735,81.82000198364258C67.76000091552734,82.22000198364258,68.17000091552734,82.43000198364257,68.57000091552734,82.43000198364257C68.77000091552733,82.43000198364257,68.97000091552735,82.33000198364257,69.38000091552735,82.22000198364258ZM73.63000091552735,81.11000198364258C73.63000091552735,80.40000198364257,73.02000091552733,79.79000198364258,72.31000091552735,79.79000198364258L31.850000915527342,79.79000198364258C31.140000915527345,79.79000198364258,30.530000915527346,80.40000198364257,30.530000915527346,81.11000198364258C30.530000915527346,81.82000198364258,31.140000915527345,82.42000198364258,31.850000915527342,82.42000198364258L72.31000091552735,82.42000198364258C73.02000091552733,82.43000198364257,73.63000091552735,81.82000198364258,73.63000091552735,81.11000198364258ZM59.77000091552734,34.38000198364258C59.77000091552734,33.67000198364258,59.16000091552734,33.06000198364258,58.45000091552734,33.06000198364258L54.30000091552735,33.06000198364258C53.59000091552734,33.06000198364258,52.98000091552734,33.67000198364258,52.98000091552734,34.38000198364258C52.98000091552734,35.09000198364258,53.59000091552734,35.690001983642574,54.30000091552735,35.690001983642574L58.45000091552734,35.690001983642574C59.06000091552735,35.690001983642574,59.670000915527346,35.080001983642575,59.77000091552734,34.38000198364258ZM51.17000091552734,34.580001983642575C51.17000091552734,33.87000198364258,50.56000091552734,33.26000198364258,49.860000915527344,33.26000198364258L34.38000091552735,33.26000198364258C33.670000915527346,33.26000198364258,33.06000091552734,32.65000198364258,33.06000091552734,31.940001983642578C33.06000091552734,31.23000198364258,33.670000915527346,30.63000198364258,34.38000091552735,30.63000198364258C35.09000091552734,30.63000198364258,35.69000091552734,30.02000198364258,35.69000091552734,29.31000198364258C35.69000091552734,28.600001983642578,35.08000091552734,28.000001983642576,34.38000091552735,28.000001983642576C32.26000091552734,28.000001983642576,30.540000915527344,29.72000198364258,30.540000915527344,31.84000198364258C30.540000915527344,33.96000198364258,32.26000091552734,35.680001983642576,34.38000091552735,35.680001983642576L49.860000915527344,35.680001983642576C50.56000091552734,35.690001983642574,51.17000091552734,35.080001983642575,51.17000091552734,34.580001983642575ZM77.47000091552735,32.860001983642576C77.47000091552735,30.73000198364258,75.75000091552735,29.02000198364258,73.63000091552735,29.02000198364258L54.31000091552734,29.02000198364258C53.600000915527346,29.02000198364258,52.99000091552735,29.63000198364258,52.99000091552735,30.34000198364258C52.99000091552735,31.05000198364258,53.600000915527346,31.66000198364258,54.31000091552734,31.66000198364258L73.63000091552735,31.66000198364258C74.34000091552734,31.66000198364258,74.95000091552734,32.27000198364258,74.95000091552734,32.970001983642575C74.95000091552734,33.680001983642576,74.34000091552734,34.290001983642576,73.63000091552735,34.290001983642576C72.92000091552734,34.290001983642576,72.31000091552735,34.90000198364258,72.31000091552735,35.610001983642576C72.31000091552735,36.32000198364258,72.92000091552734,36.92000198364258,73.63000091552735,36.92000198364258C75.65000091552734,36.91000198364258,77.47000091552735,34.98000198364258,77.47000091552735,32.860001983642576ZM51.27000091552735,30.530001983642578C51.27000091552735,29.820001983642577,50.66000091552735,29.22000198364258,49.95000091552734,29.22000198364258L40.640000915527345,29.22000198364258C39.930000915527344,29.22000198364258,39.33000091552734,29.83000198364258,39.33000091552734,30.530001983642578C39.33000091552734,31.23000198364258,39.94000091552734,31.850001983642578,40.640000915527345,31.850001983642578L49.95000091552734,31.850001983642578C50.66000091552735,31.850001983642578,51.27000091552735,31.24000198364258,51.27000091552735,30.530001983642578ZM69.88000091552735,26.79000198364258C69.88000091552735,26.08000198364258,69.27000091552733,25.47000198364258,68.57000091552734,25.47000198364258L60.98000091552734,25.47000198364258C60.27000091552734,25.47000198364258,59.66000091552734,26.08000198364258,59.66000091552734,26.79000198364258C59.66000091552734,27.500001983642576,60.27000091552734,28.100001983642578,60.98000091552734,28.100001983642578L68.57000091552734,28.100001983642578C69.18000091552734,28.100001983642578,69.78000091552735,27.500001983642576,69.88000091552735,26.79000198364258ZM66.04000091552734,36.91000198364258C66.04000091552734,36.20000198364258,65.43000091552734,35.60000198364258,64.72000091552735,35.60000198364258L60.88000091552735,35.60000198364258C60.170000915527346,35.60000198364258,59.56000091552735,36.21000198364258,59.56000091552735,36.91000198364258C59.56000091552735,37.610001983642576,60.170000915527346,38.23000198364258,60.88000091552735,38.23000198364258L64.72000091552735,38.23000198364258C65.43000091552734,38.220001983642575,66.04000091552734,37.610001983642576,66.04000091552734,36.91000198364258ZM44.59000091552734,38.12000198364258C44.59000091552734,37.41000198364258,43.98000091552734,36.81000198364258,43.27000091552735,36.81000198364258L34.37000091552734,36.81000198364258C33.66000091552734,36.81000198364258,33.05000091552734,37.42000198364258,33.05000091552734,38.12000198364258C33.05000091552734,38.82000198364258,33.66000091552734,39.440001983642574,34.37000091552734,39.440001983642574L43.27000091552735,39.440001983642574C43.890000915527345,39.43000198364258,44.59000091552734,38.830001983642575,44.59000091552734,38.12000198364258ZM39.540000915527344,25.47000198364258C39.540000915527344,24.760001983642578,38.930000915527344,24.15000198364258,38.23000091552734,24.15000198364258L28.100000915527342,24.15000198364258C27.390000915527345,24.15000198364258,26.790000915527344,24.760001983642578,26.790000915527344,25.47000198364258C26.790000915527344,26.180001983642576,27.400001915527344,26.79000198364258,28.100000915527342,26.79000198364258L38.22000091552734,26.79000198364258C38.83000091552734,26.79000198364258,39.430000915527344,26.180001983642576,39.540000915527344,25.47000198364258ZM50.87000091552734,74.84000198364258L50.87000091552734,67.25000198364258C50.87000091552734,66.54000198364258,50.26000091552734,65.94000198364259,49.56000091552734,65.94000198364259C48.850000915527346,65.94000198364259,48.250000915527345,66.55000198364257,48.250000915527345,67.25000198364258L48.250000915527345,74.84000198364258C48.250000915527345,75.55000198364257,48.860000915527344,76.16000198364259,49.56000091552734,76.16000198364259C50.26000091552734,76.16000198364259,50.87000091552734,75.55000198364257,50.87000091552734,74.84000198364258ZM55.92000091552734,74.84000198364258L55.92000091552734,67.25000198364258C55.92000091552734,66.54000198364258,55.31000091552734,65.94000198364259,54.600000915527346,65.94000198364259C53.890000915527345,65.94000198364259,53.290000915527344,66.55000198364257,53.290000915527344,67.25000198364258L53.290000915527344,74.84000198364258C53.290000915527344,75.55000198364257,53.90000091552734,76.16000198364259,54.600000915527346,76.16000198364259C55.320000915527345,76.16000198364259,55.92000091552734,75.55000198364257,55.92000091552734,74.84000198364258Z" fill="url(#master_svg2_12_99)" fill-opacity="1" style="mix-blend-mode:passthrough"/></g></g></g></svg>