<svg xmlns="http://www.w3.org/2000/svg" xmlns:xlink="http://www.w3.org/1999/xlink" fill="none" version="1.1" width="308.5" height="811" viewBox="0 0 308.5 811"><defs><clipPath id="master_svg0_18_3"><rect x="0" y="0" width="308.5" height="811" rx="0"/></clipPath><linearGradient x1="-0.4072684049606323" y1="0.1549331694841385" x2="1.4071426391601562" y2="0.8451253771781921" id="master_svg1_18_99"><stop offset="0%" stop-color="#33E2ED" stop-opacity="1"/><stop offset="100%" stop-color="#2000DA" stop-opacity="1"/></linearGradient></defs><g clip-path="url(#master_svg0_18_3)"><g><g><g><path d="M308.4,635.0000244140625L113.1,647.0000244140625L35.2,614.2000244140625L0,599.4000244140625L187,567.9000244140625L256.7,606.4000244140625L308.4,635.0000244140625Z" fill="#004383" fill-opacity="1" style="mix-blend-mode:passthrough"/></g></g><g><g><path d="M308.4,213.5L113.1,225.5L35.2,192.8L0,178L187,146.5L256.7,185L308.4,213.5Z" fill="#004383" fill-opacity="1" style="mix-blend-mode:passthrough"/></g></g><g><g><path d="M308.4,387.70001220703125L286.7,399.70001220703125L187,454.70001220703125L0,423.20001220703125L63.9,396.40001220703124L113.1,375.70001220703125L308.4,387.70001220703125Z" fill="#004383" fill-opacity="1" style="mix-blend-mode:passthrough"/></g></g><g><path d="M220.4,176.1L0,176.1L0,0L220.4,0C269,0,308.4,39.4,308.4,88C308.5,136.7,269,176.1,220.4,176.1ZM308.5,511.3C308.5,462.7,269.1,423.3,220.5,423.3L0,423.3L0,599.4L220.4,599.4C269,599.3,308.5,559.9,308.5,511.3ZM0,299.7C0,348.3,39.4,387.7,88,387.7L308.4,387.7L308.4,211.6L88,211.6C39.4,211.6,0,251,0,299.7ZM0,723C0,771.6,39.4,811,88,811L308.4,811L308.4,635L88,635C39.4,635,0,674.4,0,723Z" fill="url(#master_svg1_18_99)" fill-opacity="1" style="mix-blend-mode:passthrough"/></g></g><g><g><g><g><g><g><path d="M202.10000915527343,107.4000015258789C202.99999915527343,107.4000015258789,203.79999915527344,108.20000452587891,203.79999915527344,109.10000152587891C203.79999915527344,110.0000015258789,202.99999915527343,110.79999152587891,202.10000915527343,110.79999152587891C201.20001215527344,110.79999152587891,200.40000915527344,109.99999152587891,200.40000915527344,109.10000152587891C200.39999389647343,108.1999965258789,201.10000615527343,107.4000015258789,202.10000915527343,107.4000015258789Z" fill="#000000" fill-opacity="1" style="mix-blend-mode:passthrough"/></g><g><path d="M198.5000030517578,61.599998474121094C199.3999930517578,61.599998474121094,200.19999305175782,62.39999747412109,200.19999305175782,63.2999984741211C200.19999305175782,64.19999847412109,199.3999930517578,64.9999984741211,198.5000030517578,64.9999984741211C197.60000605175782,64.9999984741211,196.8000030517578,64.19999847412109,196.8000030517578,63.2999984741211C196.8000030517578,62.40000147412109,197.5000000517578,61.599998474121094,198.5000030517578,61.599998474121094Z" fill="#000000" fill-opacity="1" style="mix-blend-mode:passthrough"/></g><g><ellipse cx="179.30000615119934" cy="134.00000309944153" rx="1.7000000476837158" ry="1.7000000476837158" fill="#000000" fill-opacity="1" style="mix-blend-mode:passthrough"/></g><g><path d="M134.39999694824218,137C135.29998694824218,137,136.0999869482422,137.800003,136.0999869482422,138.7C136.0999869482422,139.59999,135.29998694824218,140.39999,134.39999694824218,140.39999C133.4999999482422,140.39999,132.6999969482422,139.59999,132.6999969482422,138.7C132.6999969482422,137.699997,133.39999394824218,137,134.39999694824218,137Z" fill="#000000" fill-opacity="1" style="mix-blend-mode:passthrough"/></g><g><path d="M110.60000152587891,108.69999694824219C111.5000015258789,108.69999694824219,112.29999152587891,109.49999994824219,112.29999152587891,110.39999694824219C112.29999152587891,111.29999694824218,111.49999152587891,112.09998694824219,110.60000152587891,112.09998694824219C109.6999965258789,112.09998694824219,108.9000015258789,111.29998694824219,108.9000015258789,110.39999694824219C108.9000015258789,109.49999994824219,109.6999965258789,108.69999694824219,110.60000152587891,108.69999694824219Z" fill="#000000" fill-opacity="1" style="mix-blend-mode:passthrough"/></g><g><path d="M108.40000457763672,45.099998474121094C109.30000457763671,45.099998474121094,110.09999457763672,45.89999747412109,110.09999457763672,46.7999984741211C110.09999457763672,47.699998474121095,109.29999457763672,48.49999847412109,108.40000457763672,48.49999847412109C107.49999957763671,48.49999847412109,106.70000457763672,47.699998474121095,106.70000457763672,46.7999984741211C106.69999694824672,45.799999474121094,107.40000157763671,45.099998474121094,108.40000457763672,45.099998474121094Z" fill="#000000" fill-opacity="1" style="mix-blend-mode:passthrough"/></g><g><path d="M101.2,79.19999694824219C102.1,79.19999694824219,102.89999,79.99999994824219,102.89999,80.89999694824219C102.89999,81.79999694824218,102.09999,82.59998694824219,101.2,82.59998694824219C100.299995,82.59998694824219,99.5,81.79998694824219,99.5,80.89999694824219C99.5,79.90000194824219,100.199997,79.19999694824219,101.2,79.19999694824219Z" fill="#000000" fill-opacity="1" style="mix-blend-mode:passthrough"/></g><g><path d="M151.60000305175782,37.900001525878906C127.30000305175781,37.900001525878906,107.80000305175781,57.50000152587891,107.80000305175781,81.4000015258789C107.80000305175781,90.80000152587891,110.80000305175781,99.9000015258789,116.50000305175782,107.60000152587891C122.00000305175782,114.80000152587891,129.60000305175782,120.2000015258789,138.10000305175782,123.0000015258789L150.4000030517578,144.3000015258789C150.8000030517578,145.1000015258789,151.9000030517578,145.1000015258789,152.5000030517578,144.3000015258789L164.8000030517578,123.0000015258789C173.3000030517578,120.2000015258789,181.10000305175782,114.9000015258789,186.4000030517578,107.60000152587891C192.10000305175782,100.10000152587891,195.10000305175782,91.0000015258789,195.10000305175782,81.4000015258789C195.4000030517578,57.50000152587891,175.70000305175782,37.900001525878906,151.60000305175782,37.900001525878906ZM164.0000030517578,120.80000152587891C163.60000305175782,120.80000152587891,163.4000030517578,121.0000015258789,163.20000305175782,121.4000015258789L151.60000305175782,141.4000015258789L140.0000030517578,121.4000015258789C139.8000030517578,121.2000015258789,139.60000305175782,121.0000015258789,139.20000305175782,120.80000152587891C121.70000305175782,115.5000015258789,109.99998305175781,99.7000015258789,109.99998305175781,81.4000015258789C109.99998305175781,58.60000152587891,128.60000305175782,40.19999152587891,151.5000030517578,40.19999152587891C174.5000030517578,40.19999152587891,193.0000030517578,58.7000015258789,193.0000030517578,81.4000015258789C193.20000305175782,99.7000015258789,181.4000030517578,115.5000015258789,164.0000030517578,120.80000152587891Z" fill="#000000" fill-opacity="1" style="mix-blend-mode:passthrough"/></g><g><path d="M183.0999984741211,80.99999694824218C183.0999984741211,72.89999694824219,180.0999984741211,65.19999694824219,174.3999984741211,59.29999694824219C168.29999847412108,53.099996948242186,160.3999984741211,49.69999694824219,151.5999984741211,49.69999694824219L151.3999984741211,49.69999694824219C133.9999984741211,49.999999948242184,120.0999984741211,64.0999969482422,120.0999984741211,80.99999694824218C120.0999984741211,98.0999969482422,134.0999984741211,112.29999694824218,151.5999984741211,112.29999694824218C169.29999847412108,112.29999694824218,183.0999984741211,98.19999694824219,183.0999984741211,80.99999694824218ZM173.3999984741211,100.0999969482422C171.29999847412108,98.19999694824219,169.1999984741211,96.49999694824218,166.79999847412108,95.19999694824219C167.8999984741211,91.19999694824219,168.4999984741211,86.69999694824219,168.6999984741211,82.19999694824219L180.79999847412108,82.19999694824219C180.4999984741211,88.79999694824218,177.9999984741211,95.19999694824219,173.3999984741211,100.0999969482422ZM122.39999847412109,82.19999694824219L134.4999984741211,82.19999694824219C134.4999984741211,86.69999694824219,135.29999847412108,91.19999694824219,136.3999984741211,95.19999694824219C133.8999984741211,96.49999694824218,131.6999984741211,98.19999694824219,129.7999884741211,100.0999969482422C125.2999984741211,95.19999694824219,122.7999984741211,88.79999694824218,122.39999847412109,82.19999694824219ZM129.6000084741211,61.79999694824219C131.6999984741211,63.69999694824219,133.79999847412108,65.39999694824219,136.1999984741211,66.69999694824219C135.0999984741211,70.69999694824219,134.4999984741211,75.19999694824219,134.29999847412108,79.69999694824219L122.2000184741211,79.69999694824219C122.7999984741211,73.0999969482422,125.2999984741211,66.89999694824219,129.6000084741211,61.79999694824219ZM180.5999984741211,79.89999694824219L168.4999984741211,79.89999694824219C168.4999984741211,75.39999694824219,167.6999984741211,70.89999694824219,166.5999984741211,66.89999694824219C169.0999984741211,65.5999969482422,171.29999847412108,63.89999694824219,173.1999984741211,61.999996948242185C177.9999984741211,66.89999694824219,180.4999984741211,73.0999969482422,180.5999984741211,79.89999694824219ZM152.79999847412108,52.19999694824219C157.3999984741211,52.999996948242185,161.4999984741211,57.999996948242185,163.9999984741211,65.5999969482422C160.3999984741211,67.29999694824218,156.79999847412108,68.19999694824219,152.79999847412108,68.19999694824219L152.79999847412108,52.19999694824219ZM150.4999984741211,52.19999694824219L150.4999984741211,68.39999694824219C146.4999984741211,68.19999694824219,142.6999984741211,67.29999694824218,139.29999847412108,65.79999694824218C141.79999847412108,57.89999694824219,145.8999984741211,52.999996948242185,150.4999984741211,52.19999694824219ZM138.4999984741211,67.89999694824219C142.29999847412108,69.5999969482422,146.29999847412108,70.49999694824218,150.4999984741211,70.69999694824219L150.4999984741211,79.89999694824219L136.9999984741211,79.89999694824219C136.9999984741211,75.5999969482422,137.5999984741211,71.5999969482422,138.4999984741211,67.89999694824219ZM150.4999984741211,82.19999694824219L150.4999984741211,91.39999694824219C146.29999847412108,91.5999969482422,142.29999847412108,92.49999694824218,138.4999984741211,94.19999694824219C137.5999984741211,90.39999694824219,136.9999984741211,86.49999694824218,136.9999984741211,82.29999694824218L150.4999984741211,82.29999694824218L150.4999984741211,82.19999694824219ZM150.4999984741211,93.69999694824219L150.4999984741211,109.89999694824219C145.8999984741211,109.0999969482422,141.79999847412108,104.0999969482422,139.29999847412108,96.49999694824218C142.6999984741211,94.79999694824218,146.4999984741211,93.79999694824218,150.4999984741211,93.69999694824219ZM152.79999847412108,109.79999694824218L152.79999847412108,93.69999694824219C156.79999847412108,93.89999694824219,160.5999984741211,94.79999694824218,163.9999984741211,96.29999694824218C161.4999984741211,103.99999694824218,157.29999847412108,109.0999969482422,152.79999847412108,109.79999694824218ZM164.6999984741211,93.99999694824218C160.8999984741211,92.29999694824218,156.8999984741211,91.39999694824219,152.6999984741211,91.19999694824219L152.6999984741211,81.99999694824218L166.1999984741211,81.99999694824218C166.1999984741211,86.29999694824218,165.6999984741211,90.49999694824218,164.6999984741211,93.99999694824218ZM152.79999847412108,79.89999694824219L152.79999847412108,70.69999694824219C156.9999984741211,70.49999694824218,160.9999984741211,69.5999969482422,164.79999847412108,67.89999694824219C165.6999984741211,71.69999694824219,166.29999847412108,75.5999969482422,166.29999847412108,79.79999694824218L152.79999847412108,79.79999694824218L152.79999847412108,79.89999694824219ZM166.1999984741211,64.49999694824218C164.4999984741211,59.599996948242186,162.1999984741211,55.599996948242186,159.5999984741211,53.19999694824219C164.1999984741211,54.499996948242185,168.4999984741211,56.999996948242185,171.8999984741211,60.39999694824219C170.1999984741211,61.79999694824219,168.0999984741211,63.29999694824219,166.1999984741211,64.49999694824218ZM136.9999984741211,64.49999694824218C134.8999984741211,63.39999694824219,132.9999984741211,61.89999694824219,131.29999847412108,60.19999694824219C134.8999984741211,56.79999694824219,139.0999984741211,54.39999694824219,143.5999984741211,52.999996948242185C140.9999984741211,55.599996948242186,138.6999984741211,59.599996948242186,136.9999984741211,64.49999694824218ZM136.9999984741211,97.39999694824219C138.6999984741211,102.29999694824218,140.9999984741211,106.29999694824218,143.5999984741211,108.69999694824219C138.9999984741211,107.39999694824219,134.6999984741211,104.89999694824219,131.29999847412108,101.49999694824218C132.9999984741211,100.0999969482422,134.8999984741211,98.69999694824219,136.9999984741211,97.39999694824219ZM166.1999984741211,97.39999694824219C168.29999847412108,98.49999694824218,170.1999984741211,99.99999694824218,171.8999984741211,101.69999694824219C168.29999847412108,105.0999969482422,164.0999984741211,107.49999694824218,159.5999984741211,108.89999694824219C162.1999984741211,106.29999694824218,164.4999984741211,102.49999694824218,166.1999984741211,97.39999694824219Z" fill="#000000" fill-opacity="1" style="mix-blend-mode:passthrough"/></g><g><path d="M197.89999694824218,55.59999771118164C201.89999694824218,55.59999771118164,205.0999969482422,52.39999771118164,205.0999969482422,48.39999771118164C205.0999969482422,44.39999771118164,201.6999969482422,41.39999771118164,197.89999694824218,41.39999771118164C194.0999869482422,41.39999771118164,190.6999969482422,44.59999771118164,190.6999969482422,48.59999771118164C190.6999969482422,52.59999771118164,193.89999694824218,55.59999771118164,197.89999694824218,55.59999771118164ZM197.89999694824218,43.79999771118164C200.5999869482422,43.79999771118164,202.5999969482422,45.89999771118164,202.5999969482422,48.49999771118164C202.5999969482422,51.09999771118164,200.4999869482422,53.19999771118164,197.89999694824218,53.19999771118164C195.1999969482422,53.19999771118164,193.1999969482422,51.09999771118164,193.1999969482422,48.49999771118164C193.1999969482422,45.89999771118164,195.30000694824218,43.79999771118164,197.89999694824218,43.79999771118164Z" fill="#000000" fill-opacity="1" style="mix-blend-mode:passthrough"/></g><g><path d="M113.69999694824219,121.5C108.39999694824219,121.5,104.19999694824219,125.6,104.19999694824219,130.89999C104.19999694824219,136.2,108.39999694824219,140.3,113.69999694824219,140.3C118.99999694824218,140.3,123.19999694824219,136.2,123.19999694824219,130.89999C123.19999694824219,125.7,118.79999694824218,121.5,113.69999694824219,121.5ZM113.69999694824219,137.9C109.69999694824219,137.9,106.49999694824218,134.7,106.49999694824218,130.7C106.49999694824218,126.7,109.69999694824219,123.5,113.69999694824219,123.5C117.69999694824219,123.5,120.89999694824219,126.7,120.89999694824219,130.7C120.89999694824219,134.7,117.69999694824219,137.9,113.69999694824219,137.9Z" fill="#000000" fill-opacity="1" style="mix-blend-mode:passthrough"/></g></g></g></g></g><g></g></g><g><g><g><g><g><g><path d="M192.60000915527343,316.1000061035156C193.49999915527343,316.1000061035156,194.29999915527344,316.8999941035156,194.29999915527344,317.80001610351565C194.29999915527344,318.7000161035156,193.49999915527343,319.5000261035156,192.60000915527343,319.5000261035156C191.70001215527344,319.5000261035156,190.90000915527344,318.7000461035156,190.90000915527344,317.80001610351565C190.89999389647343,316.7999881035156,191.60000615527343,316.1000061035156,192.60000915527343,316.1000061035156Z" fill="#000000" fill-opacity="1" style="mix-blend-mode:passthrough"/></g><g><path d="M191.39999694824218,273.70001220703125C192.29998694824218,273.70001220703125,193.0999869482422,274.50000020703123,193.0999869482422,275.40002220703127C193.0999869482422,276.30002220703125,192.29998694824218,277.10003220703123,191.39999694824218,277.10003220703123C190.4999999482422,277.10003220703123,189.6999969482422,276.30005220703123,189.6999969482422,275.40002220703127C189.6999969482422,274.3999942070312,190.4999999482422,273.70001220703125,191.39999694824218,273.70001220703125Z" fill="#000000" fill-opacity="1" style="mix-blend-mode:passthrough"/></g><g><path d="M176.10000915527343,345.3999938964844C176.99999915527343,345.3999938964844,177.79999915527344,346.19998189648436,177.79999915527344,347.1000038964844C177.79999915527344,348.0000038964844,176.99999915527343,348.80001389648436,176.10000915527343,348.80001389648436C175.20001215527344,348.80001389648436,174.40000915527344,348.00003389648435,174.40000915527344,347.1000038964844C174.39999389647343,346.2000118964844,175.10000615527343,345.3999938964844,176.10000915527343,345.3999938964844Z" fill="#000000" fill-opacity="1" style="mix-blend-mode:passthrough"/></g><g><path d="M151.2,287.79998779296875C152.09999,287.79998779296875,152.89999,288.59997579296873,152.89999,289.49999779296877C152.89999,290.39999779296875,152.09999,291.20000779296873,151.2,291.20000779296873C150.300003,291.20000779296873,149.5,290.40002779296873,149.5,289.49999779296877C149.5,288.6000057929688,150.300003,287.79998779296875,151.2,287.79998779296875Z" fill="#000000" fill-opacity="1" style="mix-blend-mode:passthrough"/></g><g><path d="M140.99999915527343,322.8C140.39998915527343,322.6,139.69999915527345,322.2,139.10000915527343,321.9Q138.90000915527344,321.9,138.70000915527345,321.7L137.40000915527344,324.3C138.70000915527345,325.2,140.40000915527344,325.6,142.10000915527343,325.8L142.10000915527343,327.9L143.40000915527344,327.9L143.40000915527344,325.8C144.50001915527343,325.8,145.70000915527345,325.4,146.40000915527344,324.9C146.79999915527344,324.5,147.20000915527345,324.1,147.29999915527344,323.8C147.50000915527343,323.2,147.70000915527345,322.7,147.70000915527345,322.1C147.70000915527345,320.59998,146.89998915527343,319.49997,145.39998915527343,318.69998C144.79998915527344,318.49997,144.29998915527344,318.29999,143.69999915527345,318.09998L142.89998915527343,317.89996L142.89998915527343,315.49997C143.29998915527344,315.49997,143.69999915527345,315.69998,143.79998915527344,315.69998C144.39998915527343,315.89999,144.89998915527343,316.09998,145.29998915527344,316.49997C145.49998915527343,316.69998,145.49998915527343,316.69998,145.69997915527344,316.69998L146.99998915527343,314.29999C146.39997915527343,313.89999,145.89997915527343,313.69998,145.29998915527344,313.5C144.49998915527343,313.29999,143.79998915527344,313.10001,142.99998915527343,312.89999L142.99998915527343,311L141.69997915527344,311L141.69997915527344,312.89999C139.99998915527343,313.10001,138.69997915527344,313.79999,137.89997815527343,315.29999C137.69998215527343,315.89999,137.49998475527343,316.39999,137.49998475527343,317C137.49998475527343,318.29999,138.09999115527344,319.29999,139.39997915527343,320C140.29996915527343,320.60001,141.49998915527343,320.79999,141.89997915527343,320.79999L141.89997915527343,323.2C141.69999915527345,323,141.39998915527343,323,140.99999915527343,322.8ZM143.10000915527343,321C143.49999915527343,321.2,143.90000915527344,321.4,143.99999915527343,321.6C144.39998915527343,321.8,144.39998915527343,322,144.39998915527343,322.4C144.39998915527343,323,143.99999915527343,323.3,143.09998915527345,323.3L143.10000915527343,321ZM141.19999915527345,317.20001C140.99999915527343,317,140.79999915527344,316.80002,140.79999915527344,316.40002C140.79999915527344,315.80002,141.19999915527345,315.50003,142.10000915527343,315.30002L142.10000915527343,317.60001C141.69999915527345,317.60001,141.60000915527343,317.39999,141.19999915527345,317.20001Z" fill="#000000" fill-opacity="1" style="mix-blend-mode:passthrough"/></g><g><path d="M129.8000061035156,257.1000061035156C130.69999610351562,257.1000061035156,131.49999610351563,257.8999941035156,131.49999610351563,258.80001610351565C131.49999610351563,259.7000161035156,130.69999610351562,260.5000261035156,129.8000061035156,260.5000261035156C128.90000910351563,260.5000261035156,128.10000610351562,259.7000461035156,128.10000610351562,258.80001610351565C128.10000610351562,257.8999941035156,128.80000310351562,257.1000061035156,129.8000061035156,257.1000061035156Z" fill="#000000" fill-opacity="1" style="mix-blend-mode:passthrough"/></g><g><ellipse cx="104.8999969959259" cy="344.90001225471497" rx="1.7000000476837158" ry="1.7000000476837158" fill="#000000" fill-opacity="1" style="mix-blend-mode:passthrough"/></g><g><ellipse cx="93.00000309944153" cy="302.49998784065247" rx="1.7000000476837158" ry="1.7000000476837158" fill="#000000" fill-opacity="1" style="mix-blend-mode:passthrough"/></g><g><path d="M192.00002899169922,268.8000061035156C192.60002899169922,268.8000061035156,192.90002899169923,268.40000610351564,193.10002899169922,268.0000061035156C193.3000289916992,267.6000061035156,193.10002899169922,267.1000061035156,192.7000289916992,266.70000610351565L171.60002899169922,247.90000910351563C171.2000289916992,247.50001530351562,170.50002899169922,247.50001530351562,170.10002899169922,247.90000910351563L149.60002899169922,266.70000610351565C149.2000289916992,267.1000061035156,149.00002899169922,267.5000061035156,149.2000289916992,268.0000061035156C149.40002899169923,268.6000061035156,149.8000289916992,268.8000061035156,150.3000289916992,268.8000061035156L162.3000289916992,268.8000061035156L162.3000289916992,314.20000610351565C162.3000289916992,319.3000061035156,160.2000289916992,324.20000610351565,156.60002899169922,327.90000610351564C158.10002899169922,325.5000061035156,158.90002899169923,322.40000610351564,158.90002899169923,319.40000610351564C158.90002899169923,310.40000610351564,151.50002899169922,303.0000061035156,142.40002899169923,303.0000061035156C133.3000289916992,303.0000061035156,125.90002899169922,310.3000061035156,125.90002899169922,319.40000610351564C125.90002899169922,321.70000610351565,126.50002899169922,323.90000610351564,127.20002899169921,325.8000061035156C124.70002899169921,322.6000061035156,123.20002899169921,318.6000061035156,123.20002899169921,313.90000610351564L123.20002899169921,293.6000061035156C123.20002899169921,293.0000061035156,122.60002899169922,292.5000061035156,122.10002899169922,292.5000061035156L106.70002899169921,292.5000061035156C106.10002899169922,292.5000061035156,105.60002899169922,293.1000061035156,105.60002899169922,293.6000061035156L105.60002899169922,315.40000610351564C105.60002899169922,335.90000610351564,122.30002899169922,352.5000061035156,143.00002899169922,352.5000061035156C163.7000289916992,352.5000061035156,180.40002899169923,335.90000610351564,180.40002899169923,315.40000610351564L180.40002899169923,268.70000610351565L192.00002899169922,268.70000610351565L192.00002899169922,268.8000061035156ZM171.10002899169922,250.49999610351563L188.90002899169923,266.5000061035156L153.40002899169923,266.5000061035156L171.10002899169922,250.49999610351563ZM142.50002899169922,305.3000061035156C150.3000289916992,305.3000061035156,156.7000289916992,311.70000610351565,156.7000289916992,319.40000610351564C156.7000289916992,326.90000610351564,150.40002899169923,333.5000061035156,142.50002899169922,333.5000061035156C141.60002899169922,333.5000061035156,140.60002899169922,333.3000061035156,139.7000289916992,333.1000061035156C133.3000289916992,331.8000061035156,128.3000289916992,326.1000061035156,128.3000289916992,319.40000610351564C128.3000289916992,311.70000610351565,134.7000289916992,305.3000061035156,142.50002899169922,305.3000061035156ZM177.8000289916992,315.3000061035156C177.8000289916992,334.5000061035156,162.10002899169922,350.0000061035156,142.90002899169923,350.0000061035156C123.60002899169922,350.0000061035156,107.99998899169921,334.6000061035156,107.99998899169921,315.3000061035156L107.99998899169921,294.8000061035156L121.10002899169922,294.8000061035156L121.10002899169922,314.20000610351565C121.10002899169922,333.6000061035156,144.8000289916992,343.20000610351565,158.50002899169922,329.6000061035156C162.7000289916992,325.5000061035156,164.90002899169923,320.0000061035156,164.90002899169923,314.20000610351565L164.90002899169923,268.8000061035156L178.00002899169922,268.8000061035156L178.00002899169922,315.3000061035156L177.8000289916992,315.3000061035156Z" fill="#000000" fill-opacity="1" style="mix-blend-mode:passthrough"/></g><g><path d="M111.39999823730469,271.2000213623047C115.99996823730469,271.2000213623047,119.69996823730469,267.4000213623047,119.69996823730469,262.9000213623047C119.69996823730469,258.4000213623047,115.89996823730469,254.6000213623047,111.39999823730469,254.6000213623047C106.79999823730469,254.6000213623047,103.09999847730468,258.4000213623047,103.09999847730468,262.9000213623047C103.00000003730469,267.50002136230466,106.79999823730469,271.2000213623047,111.39999823730469,271.2000213623047ZM111.39999823730469,257.1000013623047C114.5999682373047,257.1000013623047,117.29996823730468,259.7000113623047,117.29996823730468,262.89999136230466C117.29996823730468,266.1000213623047,114.5999682373047,268.7000213623047,111.39999823730469,268.7000213623047C108.19999823730468,268.7000213623047,105.49999823730468,266.1000213623047,105.49999823730468,262.89999136230466C105.49999823730468,259.7999913623047,108.19999823730468,257.1000013623047,111.39999823730469,257.1000013623047Z" fill="#000000" fill-opacity="1" style="mix-blend-mode:passthrough"/></g><g><path d="M189.69999305175782,332.3999938964844C186.5000030517578,332.3999938964844,183.8000030517578,335.0000038964844,183.8000030517578,338.19998389648435C183.8000030517578,341.3999938964844,186.5000030517578,343.9999938964844,189.69999305175782,343.9999938964844C192.8999930517578,343.9999938964844,195.60000305175782,341.3999638964844,195.60000305175782,338.19998389648435C195.60000305175782,335.1000038964844,193.0000030517578,332.3999938964844,189.69999305175782,332.3999938964844ZM189.69999305175782,341.8999938964844C187.8000030517578,341.8999938964844,186.09999305175782,340.3999938964844,186.09999305175782,338.2999838964844C186.09999305175782,336.3999938964844,187.59999305175782,334.69998389648435,189.69999305175782,334.69998389648435C191.8000030517578,334.69998389648435,193.3000030517578,336.19998389648435,193.3000030517578,338.2999838964844C193.3000030517578,340.2000138964844,191.60000305175782,341.8999938964844,189.69999305175782,341.8999938964844Z" fill="#000000" fill-opacity="1" style="mix-blend-mode:passthrough"/></g></g></g></g></g><g></g></g><g><g><g><g><g><g><path d="M185.39999694824218,458.8999938964844C186.29998694824218,458.8999938964844,187.0999869482422,459.69998189648436,187.0999869482422,460.6000038964844C187.0999869482422,461.5000038964844,186.29998694824218,462.30001389648436,185.39999694824218,462.30001389648436C184.4999999482422,462.30001389648436,183.6999969482422,461.50003389648435,183.6999969482422,460.6000038964844C183.6999969482422,459.6000058964844,184.39999394824218,458.8999938964844,185.39999694824218,458.8999938964844Z" fill="#000000" fill-opacity="1" style="mix-blend-mode:passthrough"/></g><g><path d="M129.60000915527343,457.70001220703125C130.49999915527343,457.70001220703125,131.29999915527344,458.50000020703123,131.29999915527344,459.40002220703127C131.29999915527344,460.30002220703125,130.49999915527343,461.10003220703123,129.60000915527343,461.10003220703123C128.70001215527344,461.10003220703123,127.90000915527344,460.30005220703123,127.90000915527344,459.40002220703127C127.90000152588344,458.50000020703123,128.69999715527345,457.70001220703125,129.60000915527343,457.70001220703125Z" fill="#000000" fill-opacity="1" style="mix-blend-mode:passthrough"/></g><g><path d="M103.60000152587891,474.29998779296875C104.5000015258789,474.29998779296875,105.29999152587891,475.09997579296873,105.29999152587891,475.99999779296877C105.29999152587891,476.89999779296875,104.49999152587891,477.70000779296873,103.60000152587891,477.70000779296873C102.6999965258789,477.70000779296873,101.9000015258789,476.90002779296873,101.9000015258789,475.99999779296877C101.9000015258789,475.1000057929688,102.6999965258789,474.29998779296875,103.60000152587891,474.29998779296875Z" fill="#000000" fill-opacity="1" style="mix-blend-mode:passthrough"/></g><g><path d="M203.99998626708984,547.7000244140625C206.09998626708983,546.0000244140625,207.39998626708984,543.2000244140625,207.39998626708984,540.4000244140625L207.39998626708984,486.9000244140625C207.39998626708984,481.6000244140625,202.99998626708984,477.1000244140625,197.49998626708984,477.1000244140625L182.49998626708984,477.1000244140625L181.69998626708986,468.8000244140625C181.69998626708986,468.2000244140625,181.09998626708983,467.7000244140625,180.59998626708983,467.7000244140625C166.19998626708986,467.3000244140625,156.29998626708985,455.8000484140625,156.29998626708985,455.6000364140625C155.89998626708984,455.0000304140625,154.99998626708984,455.0000304140625,154.39998626708984,455.6000364140625C154.19998626708986,455.8000484140625,144.49998626708984,467.5000244140625,130.09998626708983,467.7000244140625C129.49998626708984,467.7000244140625,128.99998626708984,468.3000244140625,128.99998626708984,468.8000244140625L128.19998626708986,477.1000244140625L115.09998626708985,477.1000244140625C109.79997626708985,477.1000244140625,105.19998626708984,481.4000244140625,105.19998626708984,486.9000244140625L105.19998626708984,540.4000244140625C105.19998626708984,543.4000244140625,106.49998626708984,546.0000244140625,108.59998626708985,547.7000244140625C103.99998626708984,547.7000244140625,100.39998626708984,551.5000244140625,100.39998626708984,556.0000244140625C100.39998626708984,560.5000244140625,104.19998626708984,564.3000244140625,108.69998626708984,564.3000244140625L203.49998626708984,564.3000244140625C208.09998626708983,564.3000244140625,211.79998626708985,560.5000244140625,211.79998626708985,556.0000244140625C212.09998626708983,551.5000244140625,208.49998626708984,547.7000244140625,203.99998626708984,547.7000244140625ZM196.79998626708985,487.7000244140625L196.79998626708985,540.0000244140625L116.19998626708984,540.0000244140625L116.19998626708984,487.6000244140625L127.79998626708985,487.6000244140625C128.19998626708986,495.9000244140625,132.49998626708984,503.6000244140625,139.19998626708986,508.5000244140625L154.89998626708984,519.8000244140625C154.89998626708984,520.0000244140625,155.29998626708985,520.0000244140625,155.49998626708984,520.0000244140625C155.69998626708986,520.0000244140625,156.09998626708983,520.0000244140625,156.29998626708985,519.8000244140625L171.99998626708984,508.5000244140625C178.79998626708985,503.6000244140625,182.99998626708984,495.9000244140625,183.39998626708984,487.6000244140625L196.79998626708985,487.6000244140625L196.79998626708985,487.7000244140625ZM155.39998626708984,458.1000044140625C158.19998626708986,461.1000044140625,166.99998626708984,469.2000244140625,179.49998626708984,470.0000244140625L180.79998626708985,483.7000244140625C181.59998626708983,492.7000244140625,177.59998626708983,501.4000244140625,170.39998626708984,506.5000244140625L155.39998626708984,517.4000244140625L140.39998626708984,506.7000244140625C133.39998626708984,501.6000244140625,129.19998626708986,493.0000244140625,129.99998626708984,483.9000244140625L131.29998626708985,470.2000244140625C143.79998626708985,469.4000244140625,152.59998626708983,461.1000044140625,155.39998626708984,458.1000044140625ZM107.80000626708984,540.4000244140625L107.80000626708984,486.9000244140625C107.80000626708984,482.8000244140625,111.19998626708984,479.6000244140625,115.19998626708984,479.6000244140625L128.09998626708983,479.6000244140625C127.69998626708984,483.4000244140625,127.69998626708984,483.9000244140625,127.49998626708984,485.4000244140625L114.79998626708985,485.4000244140625C114.19998626708984,485.4000244140625,113.69998626708984,486.0000244140625,113.69998626708984,486.5000244140625L113.69998626708984,541.3000244140625C113.69998626708984,541.9000244140625,114.29998626708985,542.4000244140625,114.79998626708985,542.4000244140625L197.89998626708984,542.4000244140625C198.49998626708984,542.4000244140625,198.99998626708984,541.8000244140625,198.99998626708984,541.3000244140625L198.99998626708984,486.5000244140625C198.99998626708984,485.9000244140625,198.39998626708984,485.4000244140625,197.89998626708984,485.4000244140625L183.29998626708985,485.4000244140625C183.29998626708985,483.9000244140625,183.09998626708983,483.3000244140625,182.69998626708986,479.6000244140625L197.49998626708984,479.6000244140625C201.69998626708986,479.6000244140625,204.89998626708984,483.0000244140625,204.89998626708984,486.9000244140625L204.89998626708984,540.4000244140625C204.89998626708984,544.5000244140625,201.49998626708984,547.7000244140625,197.49998626708984,547.7000244140625C193.49998626708984,547.7000244140625,172.49998626708984,547.7000244140625,168.09998626708983,547.7000244140625C167.49998626708984,547.7000244140625,166.99998626708984,548.3000244140625,166.99998626708984,548.8000244140625L166.99998626708984,552.3999244140625L145.79998626708985,552.3999244140625L145.79998626708985,548.8000244140625C145.79998626708985,548.2000244140625,145.19998626708986,547.7000244140625,144.69998626708986,547.7000244140625C140.09998626708983,547.7000244140625,127.59998626708985,547.7000244140625,115.29998626708985,547.7000244140625C110.99998626708984,547.7000244140625,107.80000626708984,544.3000244140625,107.80000626708984,540.4000244140625ZM184.79998626708985,550.0000244140625L195.39998626708984,550.0000244140625L195.39998626708984,552.4000244140625L184.79998626708985,552.4000244140625L184.79998626708985,550.0000244140625ZM117.29998626708985,550.0000244140625L127.89998626708984,550.0000244140625L127.89998626708984,552.4000244140625L117.29998626708985,552.4000244140625L117.29998626708985,550.0000244140625ZM203.79998626708985,561.9000244140625L108.99999626708984,561.9000244140625C105.80000626708984,561.9000244140625,103.09999626708985,559.3000244140625,103.09999626708985,556.1000244140625C103.09999626708985,552.9000244140625,105.79999626708984,550.3000244140625,108.99999626708984,550.3000244140625L114.89998626708984,550.3000244140625L114.89998626708984,553.9000244140625C114.89998626708984,554.5000244140625,115.49998626708984,555.0000244140625,115.99998626708984,555.0000244140625L128.99998626708984,555.0000244140625C129.59998626708983,555.0000244140625,130.09998626708983,554.4000244140625,130.09998626708983,553.9000244140625L130.09998626708983,550.3000244140625L143.19998626708986,550.3000244140625L143.19998626708986,553.9000244140625C143.19998626708986,554.5000244140625,143.79998626708985,555.0000244140625,144.29998626708985,555.0000244140625L167.99998626708984,555.0000244140625C168.59998626708983,555.0000244140625,169.09998626708983,554.4000244140625,169.09998626708983,553.9000244140625L169.09998626708983,550.3000244140625L182.19998626708986,550.3000244140625L182.19998626708986,553.9000244140625C182.19998626708986,554.5000244140625,182.79998626708985,555.0000244140625,183.29998626708985,555.0000244140625L196.40008626708985,555.0000244140625C197.00008626708984,555.0000244140625,197.50008626708984,554.4000244140625,197.50008626708984,553.9000244140625L197.50008626708984,550.3000244140625L203.39998626708984,550.3000244140625C206.59998626708983,550.3000244140625,209.29998626708985,552.9000244140625,209.29998626708985,556.1000244140625C209.69998626708986,559.2000244140625,206.99998626708984,561.9000244140625,203.79998626708985,561.9000244140625Z" fill="#000000" fill-opacity="1" style="mix-blend-mode:passthrough"/></g><g><path d="M143.1000051611328,503.29999389648435L154.6999651611328,511.59999389648436C154.8999651611328,511.79999389648435,155.09996516113281,511.79999389648435,155.50006516113282,511.79999389648435C155.6999651611328,511.79999389648435,156.10006516113282,511.79999389648435,156.3000651611328,511.59999389648436L167.90006516113283,503.29999389648435C173.8000651611328,498.9999938964844,177.0000651611328,491.7999838964844,176.40006516113283,484.69998389648435C176.40006516113283,484.09997589648435,175.8000651611328,483.59997589648435,175.10006516113282,483.59997589648435C174.5000651611328,483.59997589648435,174.0000651611328,484.19998189648436,174.0000651611328,484.8999638964844C174.60006516113282,491.2999538964844,171.6999651611328,497.6999938964844,166.3999651611328,501.4999938964844L155.59996516113281,509.1999938964844L144.7999651611328,501.29999389648435C139.4999951611328,497.4999938964844,136.6000051611328,491.09997389648436,137.19999516113282,484.69998389648435C137.19999516113282,484.09997589648435,136.80000516113282,483.59997589648435,136.09999516113282,483.3999938964844C135.49998516113283,483.3999938964844,134.9999851611328,483.79998789648437,134.7999881611328,484.5000038964844C134.00000016113282,491.7999838964844,137.19999516113282,498.9999938964844,143.1000051611328,503.29999389648435Z" fill="#000000" fill-opacity="1" style="mix-blend-mode:passthrough"/></g><g><path d="M164.6999969482422,521.2000166210937C164.6999969482422,521.7999866210937,165.3000029482422,522.2999866210937,165.80000694824218,522.2999866210937L178.89999694824218,522.2999866210937C179.4999969482422,522.2999866210937,179.9999969482422,521.7000166210937,179.9999969482422,521.2000166210937C179.9999969482422,520.6000366210938,179.39999694824218,520.1000366210938,178.89999694824218,520.1000366210938L165.80000694824218,520.1000366210938C165.3000029482422,520.0999755858937,164.6999969482422,520.5999756210938,164.6999969482422,521.2000166210937Z" fill="#000000" fill-opacity="1" style="mix-blend-mode:passthrough"/></g><g><path d="M164.6999969482422,525.900028828125C164.6999969482422,526.499998828125,165.3000029482422,526.999998828125,165.80000694824218,526.999998828125L190.6999969482422,526.999998828125C191.29999694824218,526.999998828125,191.79999694824218,526.400028828125,191.79999694824218,525.900028828125C191.79999694824218,525.300048828125,191.1999969482422,524.800048828125,190.6999969482422,524.800048828125L165.80000694824218,524.800048828125C165.3000029482422,524.799987792925,164.6999969482422,525.299987828125,164.6999969482422,525.900028828125Z" fill="#000000" fill-opacity="1" style="mix-blend-mode:passthrough"/></g><g><path d="M190.6999969482422,529.5L165.80000694824218,529.5C165.1999969482422,529.5,164.6999969482422,530.099976,164.6999969482422,530.59998C164.6999969482422,531.19995,165.3000029482422,531.69995,165.80000694824218,531.69995L190.6999969482422,531.69995C191.29999694824218,531.69995,191.79999694824218,531.09998,191.79999694824218,530.59998C191.79999694824218,530,191.4999969482422,529.5,190.6999969482422,529.5Z" fill="#000000" fill-opacity="1" style="mix-blend-mode:passthrough"/></g><g><path d="M190.6999969482422,534.2000122070312L165.80000694824218,534.2000122070312C165.1999969482422,534.2000122070312,164.6999969482422,534.7999882070312,164.6999969482422,535.2999922070312C164.6999969482422,535.8999622070312,165.3000029482422,536.3999622070312,165.80000694824218,536.3999622070312L190.6999969482422,536.3999622070312C191.29999694824218,536.3999622070312,191.79999694824218,535.7999922070312,191.79999694824218,535.2999922070312C191.79999694824218,534.7000122070312,191.4999969482422,534.2000122070312,190.6999969482422,534.2000122070312Z" fill="#000000" fill-opacity="1" style="mix-blend-mode:passthrough"/></g><g><path d="M200.2,470.6999877929687C204.2,470.6999877929687,207.4,467.49998779296874,207.4,463.49999779296877C207.4,459.49999779296877,204.2,456.29998779296875,200.2,456.29998779296875C196.2,456.29998779296875,193,459.49999779296877,193,463.49999779296877C193,467.49998779296874,196.39999,470.6999877929687,200.2,470.6999877929687ZM200.2,458.89999779296875C202.89999,458.89999779296875,204.9,460.99999779296877,204.9,463.60000779296877C204.9,466.20000779296873,202.79999,468.29998779296875,200.2,468.29998779296875C197.5,468.29998779296875,195.5,466.20000779296873,195.5,463.60000779296877C195.5,460.99999779296877,197.5,458.89999779296875,200.2,458.89999779296875Z" fill="#000000" fill-opacity="1" style="mix-blend-mode:passthrough"/></g><g><path d="M114.80000152587891,473.0000244140625C118.0000015258789,473.0000244140625,120.7000015258789,470.3999944140625,120.7000015258789,467.2000144140625C120.7000015258789,464.0000044140625,118.0000115258789,461.4000244140625,114.80000152587891,461.4000244140625C111.60000152587891,461.4000244140625,108.9000015258789,464.0000344140625,108.9000015258789,467.2000144140625C108.9000015258789,470.2999844140625,111.60000152587891,473.0000244140625,114.80000152587891,473.0000244140625ZM114.80000152587891,463.6000044140625C116.7000015258789,463.6000044140625,118.4000015258789,465.1000044140625,118.4000015258789,467.2000144140625C118.4000015258789,469.3000144140625,116.9000015258789,470.8000144140625,114.80000152587891,470.8000144140625C112.9000015258789,470.8000144140625,111.2000015258789,469.3000144140625,111.2000015258789,467.2000144140625C111.2000015258789,465.1000044140625,112.9000015258789,463.6000044140625,114.80000152587891,463.6000044140625Z" fill="#000000" fill-opacity="1" style="mix-blend-mode:passthrough"/></g></g></g></g></g><g></g></g><g><g><g><g><g><g><path d="M198.10000915527343,746.7999877929688C198.99999915527343,746.7999877929688,199.79999915527344,747.5999757929687,199.79999915527344,748.4999977929688C199.79999915527344,749.4000277929688,198.99999915527343,750.2000077929688,198.10000915527343,750.2000077929688C197.20001215527344,750.2000077929688,196.40000915527344,749.4000277929688,196.40000915527344,748.4999977929688C196.39999389647343,747.5999757929687,197.19999715527345,746.7999877929688,198.10000915527343,746.7999877929688Z" fill="#000000" fill-opacity="1" style="mix-blend-mode:passthrough"/></g><g><ellipse cx="189.8999969959259" cy="716.7000000476837" rx="1.7000000476837158" ry="1.7000000476837158" fill="#000000" fill-opacity="1" style="mix-blend-mode:passthrough"/></g><g><path d="M179.3000061035156,672.5999755859375C180.19999610351562,672.5999755859375,180.99999610351563,673.3999635859375,180.99999610351563,674.2999855859375C180.99999610351563,675.2000155859375,180.19999610351562,675.9999955859375,179.3000061035156,675.9999955859375C178.40000910351563,675.9999955859375,177.60000610351562,675.2000155859375,177.60000610351562,674.2999855859375C177.60000610351562,673.4000245859374,178.39999410351564,672.5999755859375,179.3000061035156,672.5999755859375Z" fill="#000000" fill-opacity="1" style="mix-blend-mode:passthrough"/></g><g><path d="M179.10000915527343,759.7999877929688C179.99999915527343,759.7999877929688,180.79999915527344,760.5999757929687,180.79999915527344,761.4999977929688C180.79999915527344,762.4000277929688,179.99999915527343,763.2000077929688,179.10000915527343,763.2000077929688C178.20001215527344,763.2000077929688,177.40000915527344,762.4000277929688,177.40000915527344,761.4999977929688C177.39999389647343,760.5999757929687,178.19999715527345,759.7999877929688,179.10000915527343,759.7999877929688Z" fill="#000000" fill-opacity="1" style="mix-blend-mode:passthrough"/></g><g><path d="M136.60000915527343,685.5C137.49999915527343,685.5,138.29999915527344,686.299988,138.29999915527344,687.20001C138.29999915527344,688.10004,137.49999915527343,688.90002,136.60000915527343,688.90002C135.70001215527344,688.90002,134.90000915527344,688.10004,134.90000915527344,687.20001C134.89999389647343,686.200012,135.69999715527345,685.5,136.60000915527343,685.5Z" fill="#000000" fill-opacity="1" style="mix-blend-mode:passthrough"/></g><g><path d="M104.60000152587891,672.5999755859375C105.5000015258789,672.5999755859375,106.29999152587891,673.3999635859375,106.29999152587891,674.2999855859375C106.29999152587891,675.2000155859375,105.49999152587891,675.9999955859375,104.60000152587891,675.9999955859375C103.6999965258789,675.9999955859375,102.9000015258789,675.2000155859375,102.9000015258789,674.2999855859375C102.9000015258789,673.4000245859374,103.5999985258789,672.5999755859375,104.60000152587891,672.5999755859375Z" fill="#000000" fill-opacity="1" style="mix-blend-mode:passthrough"/></g><g><path d="M101.2,737.2000122070312C102.1,737.2000122070312,102.89999,738.0000002070312,102.89999,738.9000222070313C102.89999,739.8000522070313,102.09999,740.6000322070313,101.2,740.6000322070313C100.299995,740.6000322070313,99.5,739.8000522070313,99.5,738.9000222070313C99.5,738.0000002070312,100.199997,737.2000122070312,101.2,737.2000122070312Z" fill="#000000" fill-opacity="1" style="mix-blend-mode:passthrough"/></g><g><path d="M111.19999389648437,719.5000244140625C115.79999389648438,719.5000244140625,119.49999389648437,715.7000244140625,119.49999389648437,711.2000144140625C119.49999389648437,706.7000144140625,115.69999389648437,702.9000244140625,111.19999389648437,702.9000244140625C106.59999389648438,702.9000244140625,102.89999389648438,706.7000144140625,102.89999389648438,711.2000144140625C102.90000152587437,716.0000244140625,106.69999389648437,719.5000244140625,111.19999389648437,719.5000244140625ZM111.19999389648437,705.4000244140625C114.39999389648438,705.4000244140625,117.09999389648438,708.0000044140625,117.09999389648438,711.2000144140625C117.09999389648438,714.4000244140625,114.39999389648438,717.0000244140625,111.19999389648437,717.0000244140625C108.00000389648437,717.0000244140625,105.29999389648438,714.4000244140625,105.29999389648438,711.2000144140625C105.30000389648437,708.0999744140624,108.00000389648437,705.4000244140625,111.19999389648437,705.4000244140625Z" fill="#000000" fill-opacity="1" style="mix-blend-mode:passthrough"/></g><g><path d="M201.30000915527344,685.4999977929688C201.30000915527344,681.4999977929688,198.10000915527343,678.2999877929688,194.10000915527343,678.2999877929688C190.10000915527343,678.2999877929688,186.90000915527344,681.4999977929688,186.90000915527344,685.4999977929688C186.90000915527344,689.4999877929688,190.10000915527343,692.4999877929688,194.10000915527343,692.4999877929688C198.10000915527343,692.3999877929688,201.30000915527344,689.3999877929688,201.30000915527344,685.4999977929688ZM194.10000915527343,690.1999877929687C191.40000915527344,690.1999877929687,189.40000915527344,688.1000377929688,189.40000915527344,685.4999977929688C189.40000915527344,682.8999677929687,191.50001915527343,680.7999877929688,194.10000915527343,680.7999877929688C196.79999915527344,680.7999877929688,198.80000915527344,682.8999677929687,198.80000915527344,685.4999977929688C198.80000915527344,688.1000377929688,196.79999915527344,690.1999877929687,194.10000915527343,690.1999877929687Z" fill="#000000" fill-opacity="1" style="mix-blend-mode:passthrough"/></g><g><path d="M184.59998016357423,730.2999633789062C184.79998016357422,725.5999633789063,180.9999801635742,721.7999633789062,176.29998016357422,721.7999633789062C173.79998016357422,721.7999633789062,171.59998016357423,722.6999633789062,169.9999801635742,724.5999633789063C167.4999801635742,723.0999633789063,164.69998016357422,722.6999633789062,161.9999801635742,723.2999633789062L161.9999801635742,717.4999633789063C166.8999801635742,718.2999633789062,171.8999801635742,716.6999633789062,175.29998016357422,713.1999633789062C179.09998016357423,709.4000633789062,180.59998016357423,703.7999633789062,179.29998016357422,698.4999633789063C179.09998016357423,698.0999633789063,178.8999801635742,697.6999633789062,178.4999801635742,697.6999633789062C172.3999801635742,695.9999633789063,165.79998016357422,698.2999633789062,161.9999801635742,703.4999633789063L161.9999801635742,694.0999633789063C164.9999801635742,694.4999633789063,167.8999801635742,693.2999633789062,169.9999801635742,691.2999633789062C172.4999801635742,688.8999633789062,173.3999801635742,685.2999833789063,172.69998016357422,681.8999633789062C172.4999801635742,681.4999433789062,172.29998016357422,681.0999733789063,171.8999801635742,681.0999733789063C168.4999801635742,680.1999533789062,164.8999801635742,681.0999733789063,162.19998016357422,683.6999533789062L162.19998016357422,678.9999433789062C162.19998016357422,678.3999633789062,161.59998016357423,677.8999633789062,161.09998016357423,677.8999633789062C160.4999801635742,677.8999633789062,159.9999801635742,678.4999393789062,159.9999801635742,678.9999433789062L159.9999801635742,683.6999533789062C157.4999801635742,681.0999733789063,153.69998016357422,680.0999733789063,150.29998016357422,681.0999733789063C149.8999801635742,681.2999833789063,149.4999801635742,681.5000033789063,149.4999801635742,681.8999633789062C148.59998016357423,685.2999833789063,149.4999801635742,688.8999633789062,152.19998016357422,691.2999633789062C154.29998016357422,693.3999633789062,157.09998016357423,694.4999633789063,160.19998016357422,694.0999633789063L160.19998016357422,703.4999633789063C156.3999801635742,698.1999633789062,149.79998016357422,695.9999633789063,143.69998016357422,697.6999633789062C143.29998016357422,697.9000633789062,142.8999801635742,698.1000633789063,142.8999801635742,698.4999633789063C141.59998016357423,703.7999633789062,143.09998016357423,709.4000633789062,146.8999801635742,713.1999633789062C150.29998016357422,716.6000633789063,155.3999801635742,718.2999633789062,160.19998016357422,717.4999633789063L160.19998016357422,724.2999633789062C158.69998016357422,725.0999633789063,157.3999801635742,726.1999633789062,156.19998016357422,727.6999633789062C153.8999801635742,725.2999633789062,150.69998016357422,723.9000633789062,147.4999801635742,723.9000633789062C142.19998016357422,723.9000633789062,137.3999801635742,727.4999633789063,135.8999801635742,732.6000633789063C125.29998016357422,733.0000633789062,115.79998016357422,739.1999633789062,111.39998016357421,749.0000633789062L104.99997706357422,763.3000633789062C104.79998016357422,763.9000633789062,104.99997706357422,764.6000633789063,105.59997516357421,764.8000633789062L124.39998016357421,773.1000633789063C124.99998016357422,773.3000633789062,125.69998016357422,773.1000633789063,125.89998016357421,772.5000633789062L131.3999801635742,760.1000633789063C132.8999801635742,756.6999633789062,136.8999801635742,755.1999633789062,140.29998016357422,756.6999633789062C144.09998016357423,758.4000633789062,148.09998016357423,759.1000633789063,152.29998016357422,759.1000633789063C156.4999801635742,759.1000633789063,160.4999801635742,758.1999633789062,164.3999801635742,756.5000633789062L188.09998016357423,745.8000633789062C191.09998016357423,744.5000633789062,192.79998016357422,741.5000633789062,192.79998016357422,738.5000633789062C192.59998016357423,733.9999633789063,188.9999801635742,730.4999633789063,184.59998016357423,730.2999633789062ZM177.3999801635742,699.7999633789062C178.29998016357422,704.0999633789063,176.9999801635742,708.4999633789063,173.79998016357422,711.6999633789062C170.79998016357422,714.6999633789062,166.3999801635742,715.9999633789063,161.9999801635742,715.2999633789062L161.9999801635742,708.8999633789062C163.9999801635742,702.4000633789062,170.59998016357423,698.2999633789062,177.3999801635742,699.7999633789062ZM170.59998016357423,683.0000033789063C171.3999801635742,687.9000633789062,167.19998016357422,692.1999633789062,162.29998016357422,691.6999633789062L162.29998016357422,687.9000633789062C163.3999801635742,684.5000033789063,166.9999801635742,682.4000233789062,170.59998016357423,683.0000033789063ZM151.3999801635742,683.0000033789063C154.9999801635742,682.4000233789062,158.59998016357423,684.2999833789063,159.69998016357422,687.9000633789062L159.69998016357422,691.6999633789062C154.8999801635742,692.4000633789062,150.69998016357422,688.0999633789063,151.3999801635742,683.0000033789063ZM147.9999801635742,711.5999633789063C144.9999801635742,708.5999633789063,143.59998016357423,704.0999633789063,144.3999801635742,699.6999633789062C150.9999801635742,698.3999633789062,157.69998016357422,702.2999633789062,159.59998016357423,708.6999633789062L159.59998016357423,715.0999633789063C155.59998016357423,715.9999633789063,151.29998016357422,714.5999633789063,147.9999801635742,711.5999633789063ZM147.09998016357423,726.0999633789063C150.29998016357422,726.0999633789063,153.19998016357422,727.5999633789063,155.09998016357423,730.1999633789062C155.69998016357422,730.9999633789063,156.79998016357422,730.7999633789062,157.19998016357422,729.9999633789063C159.4999801635742,725.2999633789062,165.69998016357422,723.9999633789063,169.69998016357422,727.1999633789062C170.29998016357422,727.5999633789063,170.9999801635742,727.5999633789063,171.3999801635742,726.9999633789063C172.4999801635742,725.2999633789062,174.3999801635742,724.3999633789062,176.29998016357422,724.3999633789062C179.69998016357422,724.3999633789062,182.59998016357423,727.3999633789062,182.19998016357422,730.7999633789062C181.29998016357422,731.1999633789062,181.59998016357423,730.9999633789063,171.3999801635742,735.6999633789062C164.3999801635742,738.9000633789062,156.3999801635742,738.9000633789062,149.3999801635742,735.6999633789062C148.29998016357422,735.2999633789062,144.29998016357422,732.9000633789062,137.9999801635742,732.4999633789063C139.29998016357422,728.7999633789062,143.09998016357423,726.0999633789063,147.09998016357423,726.0999633789063ZM186.8999801635742,743.4999633789063L163.19998016357422,754.1999633789062C156.19998016357422,757.4000633789062,148.19998016357422,757.4000633789062,141.19998016357422,754.1999633789062C136.59998016357423,752.1000633789063,131.09998016357423,754.1999633789062,129.09998016357423,758.9000633789062L123.99998016357422,770.1999633789062L107.29999016357422,762.9000633789062L113.19999016357421,749.6999633789062C118.89998016357421,737.1000633789063,133.69998016357422,731.1999633789062,146.59998016357423,736.9000633789062L148.4999801635742,737.6999633789062C156.09998016357423,741.1000633789063,164.79998016357422,741.1000633789063,172.3999801635742,737.6999633789062L182.29998016357422,733.4000633789062C186.29998016357422,731.6999633789062,190.29998016357422,734.6999633789062,190.29998016357422,738.4999633789063C190.09998016357423,740.4000633789062,188.9999801635742,742.4999633789063,186.8999801635742,743.4999633789063Z" fill="#000000" fill-opacity="1" style="mix-blend-mode:passthrough"/></g></g></g></g></g><g></g></g></g></svg>