<svg xmlns="http://www.w3.org/2000/svg" xmlns:xlink="http://www.w3.org/1999/xlink" fill="none" version="1.1" width="665" height="1221.300048828125" viewBox="0 0 665 1221.300048828125"><defs><clipPath id="master_svg0_14_7"><rect x="0" y="0" width="665" height="1221.300048828125" rx="0"/></clipPath><linearGradient x1="-0.5115563273429871" y1="0.22525955736637115" x2="1.1830755472183228" y2="0.7747348546981812" id="master_svg1_14_192"><stop offset="0%" stop-color="#33E3EE" stop-opacity="1"/><stop offset="100%" stop-color="#2000DB" stop-opacity="1"/></linearGradient></defs><g clip-path="url(#master_svg0_14_7)"><g><path d="M269,72.6L394.7,0L520.4,72.6L520.4,217.8L394.7,290.4L269,217.7L269,72.6ZM407.2,448.5L532.9,521.1L658.6,448.5L658.6,303.3L532.9,230.7L407.2,303.3L407.2,448.5ZM274.29999,684.6L400,757.2L525.7,684.6L525.7,539.4L400,466.8L274.29999,539.4L274.29999,684.6ZM413.5,914.2L539.2,986.8L665,914.2L665,769.1L539.3,696.5L413.6,769.1L413.6,914.2L413.5,914.2ZM283.5,1148.7L409.2,1221.3L534.9,1148.7L534.9,1003.5L409.3,931L283.6,1003.6L283.6,1148.7L283.5,1148.7Z" fill="url(#master_svg1_14_192)" fill-opacity="1" style="mix-blend-mode:passthrough"/></g><g><path d="M67,48.49999923706055L138.4,7.299999237060547L209.8,48.49999923706055L209.8,130.99999923706054L138.4,172.19999923706055L67,130.99999923706054L67,48.49999923706055ZM108.6,1081.9999992370606L180,1123.1999992370606L251.4,1081.9999992370606L251.4,999.4999992370606L180,958.2999992370605L108.6,999.4999992370606L108.6,1081.9999992370606ZM82.7,1180.3999992370605L123.9,1204.1999992370606L165.1,1180.3999992370605L165.1,1132.8999992370605L123.9,1109.0999992370605L82.7,1132.8999992370605L82.7,1180.3999992370605ZM169.1,219.89999923706054L210.3,243.69999923706055L251.5,219.89999923706054L251.5,172.39999923706054L210.3,148.59999923706056L169.1,172.39999923706054L169.1,219.89999923706054ZM0,684.5999992370605L125.7,757.1999992370605L251.4,684.5999992370605L251.4,539.3999992370606L125.7,466.79999923706055L0,539.3999992370606L0,684.5999992370605ZM144.1,918.6999992370605L269.8,991.2999992370605L395.5,918.6999992370605L395.5,773.5999992370605L269.8,700.9999992370606L144.1,773.5999992370605L144.1,918.6999992370605ZM138.4,450.39999923706057L264.1,522.9999992370606L389.8,450.39999923706057L389.8,305.29999923706055L264.1,232.69999923706055L138.4,305.29999923706055L138.4,450.39999923706057Z" fill="#001948" fill-opacity="1" style="mix-blend-mode:passthrough"/></g><g><g><g><g><path d="M409.2000083105469,1115.300048828125C406.8000183105469,1115.300048828125,404.8000183105469,1117.200068828125,404.8000183105469,1119.700068828125C404.8000183105469,1122.200068828125,406.7000083105469,1124.100098828125,409.2000083105469,1124.100098828125C411.60000831054685,1124.100098828125,413.60000831054685,1122.200068828125,413.60000831054685,1119.700068828125C413.60000831054685,1117.200068828125,411.60000831054685,1115.300048828125,409.2000083105469,1115.300048828125ZM409.2000083105469,1121.999998828125C407.99999831054686,1121.999998828125,406.9000283105469,1120.999998828125,406.9000283105469,1119.699948828125C406.9000283105469,1118.499998828125,407.9000283105469,1117.399898828125,409.2000083105469,1117.399898828125C410.4000283105469,1117.399898828125,411.49999831054686,1118.399898828125,411.49999831054686,1119.699948828125C411.3999983105469,1120.900028828125,410.3999983105469,1121.999998828125,409.2000083105469,1121.999998828125Z" fill="#000000" fill-opacity="1" style="mix-blend-mode:passthrough"/></g></g><g><g><path d="M404.79998779296875,1033.5999755859375L413.49999779296877,1033.5999755859375C413.99998779296874,1033.5999755859375,414.49998779296874,1033.0999755859375,414.49998779296874,1032.5999755859375C414.49998779296874,1032.0999755859375,413.99998779296874,1031.5999755859375,413.49999779296877,1031.5999755859375L404.79998779296875,1031.5999755859375C404.29998779296875,1031.5999755859375,403.79998779296875,1032.0999755859375,403.79998779296875,1032.5999755859375C403.79998779296875,1033.0999755859375,404.1000057929688,1033.5999755859375,404.79998779296875,1033.5999755859375Z" fill="#000000" fill-opacity="1" style="mix-blend-mode:passthrough"/></g></g><g><g><path d="M369.39999779296875,1030.5C370.29998779296875,1030.5,370.99999779296877,1031.199951,370.99999779296877,1032.09998C370.99999779296877,1033,370.29998779296875,1033.69995,369.39999779296875,1033.69995C368.49999979296877,1033.69995,367.79998779296875,1033,367.79998779296875,1032.09998C367.89999379296876,1031.199951,368.6000057929688,1030.5,369.39999779296875,1030.5Z" fill="#000000" fill-opacity="1" style="mix-blend-mode:passthrough"/></g></g><g><g><ellipse cx="454.3000122308731" cy="1100.6999756097794" rx="1.600000023841858" ry="1.600000023841858" fill="#000000" fill-opacity="1" style="mix-blend-mode:passthrough"/></g></g><g><g transform="matrix(0.1607999950647354,-0.9869999885559082,0.9869999885559082,0.1607999950647354,-646.9835369730358,1301.1831646273931)"><ellipse cx="443.27532351017" cy="1032.6410156488419" rx="1.600000023841858" ry="1.600000023841858" fill="#000000" fill-opacity="1" style="mix-blend-mode:passthrough"/></g></g><g><g><path d="M444.5000038964844,1114.300048828125C445.3999938964844,1114.300048828125,446.1000038964844,1114.999999828125,446.1000038964844,1115.900028828125C446.1000038964844,1116.800048828125,445.3999938964844,1117.499998828125,444.5000038964844,1117.499998828125C443.6000058964844,1117.499998828125,442.8999938964844,1116.800048828125,442.8999938964844,1115.900028828125C442.9999998964844,1114.999999828125,443.7000118964844,1114.300048828125,444.5000038964844,1114.300048828125Z" fill="#000000" fill-opacity="1" style="mix-blend-mode:passthrough"/></g></g><g><g><path d="M366.10001,1058.699951171875C367,1058.699951171875,367.70001,1059.399902171875,367.70001,1060.299931171875C367.70001,1061.199951171875,367,1061.899901171875,366.10001,1061.899901171875C365.200012,1061.899901171875,364.5,1061.199951171875,364.5,1060.299931171875C364.600006,1059.400024171875,365.299988,1058.699951171875,366.10001,1058.699951171875Z" fill="#000000" fill-opacity="1" style="mix-blend-mode:passthrough"/></g></g><g><g><path d="M373.7999916894531,1077.300048828125C374.6999816894531,1077.300048828125,375.39999168945315,1077.999999828125,375.39999168945315,1078.900028828125C375.39999168945315,1079.800048828125,374.6999816894531,1080.499998828125,373.7999916894531,1080.499998828125C372.89999368945314,1080.499998828125,372.1999816894531,1079.800048828125,372.1999816894531,1078.900028828125C372.20001220705313,1078.099975828125,372.89999368945314,1077.300048828125,373.7999916894531,1077.300048828125Z" fill="#000000" fill-opacity="1" style="mix-blend-mode:passthrough"/></g></g><g><g><path d="M371.5000038964844,1120.9000244140625C372.3999938964844,1120.9000244140625,373.1000038964844,1121.5999754140626,373.1000038964844,1122.5000044140625C373.1000038964844,1123.4000244140625,372.3999938964844,1124.0999744140624,371.5000038964844,1124.0999744140624C370.6000058964844,1124.0999744140624,369.8999938964844,1123.4000244140625,369.8999938964844,1122.5000044140625C369.9999998964844,1121.5999754140626,370.7000118964844,1120.9000244140625,371.5000038964844,1120.9000244140625Z" fill="#000000" fill-opacity="1" style="mix-blend-mode:passthrough"/></g></g><g><g><path d="M368.39999779296875,1097.9000244140625C364.60000779296877,1097.9000244140625,361.29998779296875,1101.0000044140625,361.29998779296875,1105.0000044140625C361.29998779296875,1108.8000244140626,364.39999779296875,1112.1000244140625,368.39999779296875,1112.1000244140625C372.3999877929688,1112.1000244140625,375.49998779296874,1109.0000244140624,375.49998779296874,1105.0000044140625C375.3999877929688,1101.0000044140625,372.1999877929687,1097.9000244140625,368.39999779296875,1097.9000244140625ZM368.39999779296875,1109.9000244140625C365.60000779296877,1109.9000244140625,363.49999779296877,1107.5999744140624,363.49999779296877,1105.0000044140625C363.49999779296877,1102.1999544140624,365.79998779296875,1100.0999744140624,368.39999779296875,1100.0999744140624C370.99999779296877,1100.0999744140624,373.29998779296875,1102.4000244140625,373.29998779296875,1105.0000044140625C373.29998779296875,1107.5999744140624,370.99999779296877,1109.9000244140625,368.39999779296875,1109.9000244140625Z" fill="#000000" fill-opacity="1" style="mix-blend-mode:passthrough"/></g></g><g><g><path d="M438.6000183105469,1052.60000234375L438.6000183105469,1034.79992234375C438.6000183105469,1029.39990234375,434.20001831054685,1024.89990234375,428.70001831054685,1024.89990234375L389.7000083105469,1024.89990234375C384.3000183105469,1024.89990234375,379.8000183105469,1029.29992234375,379.8000183105469,1034.79992234375L379.8000183105469,1117.39990234375C379.8000183105469,1122.79990234375,384.2000083105469,1127.29990234375,389.7000083105469,1127.29990234375L428.70001831054685,1127.29990234375C434.1000183105469,1127.29990234375,438.6000183105469,1122.89990234375,438.6000183105469,1117.39990234375L438.6000183105469,1095.29990234375C448.50001831054686,1093.19990234375,456.00001831054686,1084.49990234375,456.00001831054686,1073.99990234375C456.00001831054686,1063.40000234375,448.50001831054686,1054.69990234375,438.6000183105469,1052.60000234375ZM434.3000183105469,1052.30000234375L434.3000183105469,1043.60010234375C434.3000183105469,1043.10010234375,433.8000183105469,1042.60010234375,433.3000183105469,1042.60010234375L385.3999983105469,1042.60010234375C384.8999983105469,1042.60010234375,384.3999983105469,1043.10010234375,384.3999983105469,1043.60010234375L384.3999983105469,1108.90010234375C384.3999983105469,1109.40010234375,384.8999983105469,1109.90010234375,385.3999983105469,1109.90010234375L433.3000183105469,1109.90010234375C433.8000183105469,1109.90010234375,434.3000183105469,1109.40010234375,434.3000183105469,1108.90010234375L434.3000183105469,1095.80020234375C435.00001831054686,1095.80020234375,435.70001831054685,1095.80020234375,436.6000183105469,1095.60020234375L436.6000183105469,1112.00020234375L381.99999831054686,1112.00020234375L381.99999831054686,1040.20020234375L436.50001831054686,1040.20020234375L436.50001831054686,1052.20020234375C435.70001831054685,1052.30000234375,435.00001831054686,1052.30000234375,434.3000183105469,1052.30000234375ZM432.00001831054686,1095.60000234375L432.00001831054686,1107.60000234375L386.2999883105469,1107.60000234375L386.2999883105469,1044.50000234375L432.1000183105469,1044.50000234375L432.1000183105469,1052.19990234375C421.1000183105469,1053.19990234375,412.39991831054687,1062.69990234375,412.39991831054687,1073.79990234375C412.50001831054686,1085.19990234375,421.00001831054686,1094.60000234375,432.00001831054686,1095.60000234375ZM425.50001831054686,1073.50000234375L429.9000183105469,1071.19990234375L429.9000183105469,1093.00000234375C428.3000183105469,1092.69990234375,426.9000183105469,1092.10000234375,425.50001831054686,1091.40000234375L425.50001831054686,1073.50000234375ZM436.3000183105469,1077.69990234375L436.3000183105469,1093.60000234375C434.9000183105469,1093.79990234375,433.3000183105469,1093.79990234375,431.9000183105469,1093.60000234375L431.9000183105469,1072.69990234375L436.3000183105469,1077.69990234375ZM438.6000183105469,1077.90000234375L443.00001831054686,1074.90000234375L443.00001831054686,1091.50000234375C441.6000183105469,1092.19990234375,440.20001831054685,1092.69990234375,438.6000183105469,1093.10000234375L438.6000183105469,1077.90000234375ZM423.3000183105469,1090.19990234375C421.70001831054685,1089.19990234375,420.20001831054685,1087.79990234375,418.9000183105469,1086.19990234375L418.9000183105469,1076.79990234375L423.3000183105469,1074.49990234375L423.3000183105469,1090.19990234375ZM389.60000831054685,1027.19995234375L428.6000183105469,1027.19995234375C432.8000183105469,1027.19995234375,436.3000183105469,1030.69995234375,436.3000183105469,1034.89990234375L436.3000183105469,1037.99990234375L381.99999831054686,1037.99990234375L381.99999831054686,1034.89990234375C381.99999831054686,1030.69995234375,385.49999831054686,1027.19995234375,389.60000831054685,1027.19995234375ZM428.70001831054685,1125.09990234375L389.7000083105469,1125.09990234375C385.49999831054686,1125.09990234375,381.99999831054686,1121.60000234375,381.99999831054686,1117.40000234375L381.99999831054686,1114.30000234375L436.50001831054686,1114.30000234375L436.50001831054686,1117.40000234375C436.3000183105469,1121.60000234375,432.9000183105469,1125.09990234375,428.70001831054685,1125.09990234375ZM445.1000183105469,1090.19990234375L445.1000183105469,1073.50000234375L449.50001831054686,1070.50000234375L449.50001831054686,1086.19990234375C448.20001831054685,1087.80000234375,446.8000183105469,1089.19990234375,445.1000183105469,1090.19990234375ZM451.70001831054685,1082.90000234375L451.70001831054685,1068.40000234375C451.70001831054685,1067.50000234375,450.70001831054685,1067.00000234375,450.00001831054686,1067.50000234375C449.00001831054686,1068.19990234375,438.8000183105469,1075.00000234375,437.8000183105469,1075.69990234375C431.70001831054685,1068.60000234375,431.9000183105469,1068.69990234375,431.50001831054686,1068.60000234375C431.3000183105469,1068.40000234375,431.00001831054686,1068.40000234375,430.6000183105469,1068.60000234375Q430.6000183105469,1068.60000234375,417.4000183105469,1075.19990234375C417.1000183105469,1075.39990234375,416.9000183105469,1075.69990234375,416.9000183105469,1076.19990234375L416.9000183105469,1083.00000234375C415.50001831054686,1080.40000234375,414.6000183105469,1077.19990234375,414.6000183105469,1073.90000234375C414.6000183105469,1063.10000234375,423.3000183105469,1054.20010234375,434.3000183105469,1054.20010234375C445.3000183105469,1054.20010234375,454.00001831054686,1062.90000234375,454.00001831054686,1073.90000234375C453.8000183105469,1077.19990234375,453.1000183105469,1080.30000234375,451.70001831054685,1082.90000234375Z" fill="#000000" fill-opacity="1" style="mix-blend-mode:passthrough"/></g></g><g><g><path d="M389.6000061035156,1095.800045234375C389.6000061035156,1096.300045234375,390.1000061035156,1096.800045234375,390.6000061035156,1096.800045234375L416.70000610351565,1096.800045234375C417.20000610351565,1096.800045234375,417.70000610351565,1096.300045234375,417.70000610351565,1095.800045234375C417.70000610351565,1095.300049234375,417.20000610351565,1094.800048834375,416.70000610351565,1094.800048834375L390.6000061035156,1094.800048834375C390.0000001035156,1094.599975234375,389.6000061035156,1095.099975234375,389.6000061035156,1095.800045234375Z" fill="#000000" fill-opacity="1" style="mix-blend-mode:passthrough"/></g></g><g><g><path d="M389.6000061035156,1091.4999963671876C389.6000061035156,1091.9999963671876,390.1000061035156,1092.4999963671876,390.6000061035156,1092.4999963671876L413.40000610351564,1092.4999963671876C413.90000610351564,1092.4999963671876,414.40000610351564,1091.9999963671876,414.40000610351564,1091.4999963671876C414.40000610351564,1091.0000003671876,413.90000610351564,1090.4999999671875,413.40000610351564,1090.4999999671875L390.6000061035156,1090.4999999671875C390.0000001035156,1090.1999513671874,389.6000061035156,1090.8000483671874,389.6000061035156,1091.4999963671876Z" fill="#000000" fill-opacity="1" style="mix-blend-mode:passthrough"/></g></g><g><g><path d="M390.70001220703125,1088.199951171875L411.40001220703124,1088.199951171875C411.90001220703124,1088.199951171875,412.40001220703124,1087.699951171875,412.40001220703124,1087.199951171875C412.40001220703124,1086.699951171875,411.90001220703124,1086.199951171875,411.40001220703124,1086.199951171875L390.70001220703125,1086.199951171875C390.20001220703125,1086.199951171875,389.70001220703125,1086.699951171875,389.70001220703125,1087.199951171875C389.70001220703125,1087.699951171875,390.00000020703123,1088.199951171875,390.70001220703125,1088.199951171875Z" fill="#000000" fill-opacity="1" style="mix-blend-mode:passthrough"/></g></g><g><g><path d="M390.700014453125,1083.800048828125L410.400014453125,1083.800048828125C410.900014453125,1083.800048828125,411.400014453125,1083.300048828125,411.400014453125,1082.800048828125C411.400014453125,1082.300048828125,410.900014453125,1081.800048828125,410.400014453125,1081.800048828125L390.700014453125,1081.800048828125C390.200012453125,1081.800048828125,389.700012253125,1082.300048828125,389.700012253125,1082.800048828125C389.600006153125,1083.300048828125,390.000000453125,1083.800048828125,390.700014453125,1083.800048828125Z" fill="#000000" fill-opacity="1" style="mix-blend-mode:passthrough"/></g></g><g><g><path d="M390.700014453125,1079.4000244140625L409.200014453125,1079.4000244140625C409.700014453125,1079.4000244140625,410.200014453125,1078.9000244140625,410.200014453125,1078.4000244140625C410.200014453125,1077.9000244140625,409.700014453125,1077.4000244140625,409.200014453125,1077.4000244140625L390.700014453125,1077.4000244140625C390.200012453125,1077.4000244140625,389.700012253125,1077.9000244140625,389.700012253125,1078.4000244140625C389.600006153125,1078.9000244140625,390.000000453125,1079.4000244140625,390.700014453125,1079.4000244140625Z" fill="#000000" fill-opacity="1" style="mix-blend-mode:passthrough"/></g></g><g><g><path d="M390.700014453125,1075.0999755859375L408.100014453125,1075.0999755859375C408.600014453125,1075.0999755859375,409.100014453125,1074.5999755859375,409.100014453125,1074.0999755859375C409.100014453125,1073.5999755859375,408.600014453125,1073.0999755859375,408.100014453125,1073.0999755859375L390.700014453125,1073.0999755859375C390.200012453125,1073.0999755859375,389.700012253125,1073.5999755859375,389.700012253125,1074.0999755859375C389.600006153125,1074.5999755859375,390.000000453125,1075.0999755859375,390.700014453125,1075.0999755859375Z" fill="#000000" fill-opacity="1" style="mix-blend-mode:passthrough"/></g></g><g><g><path d="M390.700014453125,1070.699951171875L409.200014453125,1070.699951171875C409.700014453125,1070.699951171875,410.200014453125,1070.199951171875,410.200014453125,1069.699951171875C410.200014453125,1069.199951171875,409.700014453125,1068.699951171875,409.200014453125,1068.699951171875L390.700014453125,1068.699951171875C390.200012453125,1068.699951171875,389.700012253125,1069.199951171875,389.700012253125,1069.699951171875C389.600006153125,1070.199951171875,390.000000453125,1070.699951171875,390.700014453125,1070.699951171875Z" fill="#000000" fill-opacity="1" style="mix-blend-mode:passthrough"/></g></g><g><g><path d="M390.700014453125,1066.4000244140625L410.400014453125,1066.4000244140625C410.900014453125,1066.4000244140625,411.400014453125,1065.9000244140625,411.400014453125,1065.4000244140625C411.400014453125,1064.9000244140625,410.900014453125,1064.4000244140625,410.400014453125,1064.4000244140625L390.700014453125,1064.4000244140625C390.200012453125,1064.4000244140625,389.700012253125,1064.9000244140625,389.700012253125,1065.4000244140625C389.600006153125,1065.9000244140625,390.000000453125,1066.4000244140625,390.700014453125,1066.4000244140625Z" fill="#000000" fill-opacity="1" style="mix-blend-mode:passthrough"/></g></g><g><g><path d="M390.700014453125,1062L411.400014453125,1062C411.900014453125,1062,412.400014453125,1061.5,412.400014453125,1061C412.400014453125,1060.5,411.900014453125,1060,411.400014453125,1060L390.700014453125,1060C390.200012453125,1060,389.700012253125,1060.5,389.700012253125,1061C389.600006153125,1061.5,390.000000453125,1062,390.700014453125,1062Z" fill="#000000" fill-opacity="1" style="mix-blend-mode:passthrough"/></g></g><g><g><path d="M390.70001220703125,1057.699951171875L412.50001220703126,1057.699951171875C413.00001220703126,1057.699951171875,413.50001220703126,1057.199951171875,413.50001220703126,1056.699951171875C413.50001220703126,1056.199951171875,413.00001220703126,1055.699951171875,412.50001220703126,1055.699951171875L390.70001220703125,1055.699951171875C390.20001220703125,1055.699951171875,389.70001220703125,1056.199951171875,389.70001220703125,1056.699951171875C389.70001220703125,1057.199951171875,390.00000020703123,1057.699951171875,390.70001220703125,1057.699951171875Z" fill="#000000" fill-opacity="1" style="mix-blend-mode:passthrough"/></g></g><g><g><path d="M450.60001,1046.7C454.3,1046.7,457.2,1043.7,457.2,1040.09998C457.2,1036.40002,454.2,1033.5,450.60001,1033.5C446.89999,1033.5,444,1036.59998,444,1040.30005C444,1043.9,447,1046.7,450.60001,1046.7ZM450.60001,1035.90002C453,1035.90002,455,1037.80005,455,1040.30005C455,1042.80005,453.10001,1044.7001,450.60001,1044.7001C448.10001,1044.7001,446.20001,1042.80005,446.20001,1040.30005C446.20001,1037.80005,448.20001,1035.90002,450.60001,1035.90002Z" fill="#000000" fill-opacity="1" style="mix-blend-mode:passthrough"/></g></g></g></g><g><g><g><g><path d="M570.2999921875,365.1000183105469C570.2999921875,364.9000183105469,562.2999921875,349.10000831054685,559.2999921875,343.3000183105469C559.0999921875,343.0000303105469,558.7999921875,342.8000183105469,558.2999921875,342.8000183105469C551.2999921875,342.8000183105469,507.8999921875,342.8000183105469,503.7999921875,342.8000183105469C503.4999921875,342.8000183105469,502.8999921875,343.0000303105469,502.7999921875,343.3000183105469C491.0999751875,366.6000183105469,491.7999877975,365.3000183105469,491.7999877975,365.6000183105469L491.7999877975,422.20001831054685C491.7999877975,422.70001831054685,492.2999881875,423.20001831054685,492.7999921875,423.20001831054685L569.0999921875,423.20001831054685C569.5999921875,423.20001831054685,570.0999921875,422.70001831054685,570.0999921875,422.20001831054685C570.0999921875,408.8000183105469,570.0999921875,365.70001831054685,570.0999921875,365.6000183105469C570.4999921875,365.50001831054686,570.4999921875,365.3000183105469,570.2999921875,365.1000183105469ZM515.6999921875,408.9000183105469C515.6999921875,408.4000183105469,515.3999921875,408.00001831054686,514.7999921875,407.9000183105469C513.7999921875,407.6000183105469,512.6999921875,407.20001831054685,511.7999921875,406.70001831054685C511.49999218749997,406.50001831054686,510.8999921875,406.50001831054686,510.5999921875,406.9000183105469L508.6999921875,408.50001831054686L506.2999921875,406.1000183105469L507.8999921875,404.20001831054685C508.1999921875,403.9000183105469,508.1999921875,403.3000183105469,508.0999921875,403.00001831054686C507.5999921875,402.1000183105469,507.0999921875,401.1000183105469,506.8999921875,400.00001831054686C506.6999921875,399.50001831054686,506.3999921875,399.3000183105469,505.8999921875,399.1000183105469L503.2999921875,398.9000183105469L503.2999921875,395.4000183105469L505.8999921875,395.20001831054685C506.3999921875,395.20001831054685,506.7999921875,394.9000183105469,506.8999921875,394.3000183105469C507.1999921875,393.3000183105469,507.5999921875,392.20001831054685,508.0999921875,391.3000183105469C508.2999921875,391.00001831054686,508.2999921875,390.4000183105469,507.8999921875,390.1000183105469L506.2999921875,388.20001831054685L508.6999921875,385.8000183105469L510.5999921875,387.4000183105469C510.8999921875,387.70001831054685,511.49999218749997,387.70001831054685,511.7999921875,387.6000183105469C512.6999921875,387.1000183105469,513.6999921875,386.6000183105469,514.7999921875,386.4000183105469C515.2999921875,386.20001831054685,515.4999921875,385.9000183105469,515.6999921875,385.4000183105469L515.8999921875,382.8000183105469L519.3999921875,382.8000183105469L519.5999921875,385.4000183105469C519.5999921875,385.9000183105469,519.8999921875,386.3000183105469,520.5000921875001,386.4000183105469C521.5000921875001,386.70001831054685,522.5999921875,387.1000183105469,523.5000921875001,387.6000183105469C523.8000921875,387.8000183105469,524.4000921875,387.8000183105469,524.7000921875,387.4000183105469L526.6000921875,385.8000183105469L529.0000921875001,388.20001831054685L527.4001921875,390.1000183105469C527.1001921874999,390.39991831054687,527.1001921874999,391.00001831054686,527.2000921875,391.3000183105469C527.7000921875,392.20001831054685,528.2000921875,393.20001831054685,528.4001921875,394.3000183105469C528.6001921874999,394.8000183105469,528.9001921875,395.00001831054686,529.4001921875,395.20001831054685L532.0000921875001,395.4000183105469L532.0000921875001,398.9000183105469L529.4001921875,399.1000183105469C528.9001921875,399.1000183105469,528.5000921875001,399.4000183105469,528.4001921875,400.00001831054686C528.1001921874999,401.00001831054686,527.7000921875,402.1000183105469,527.2000921875,403.00001831054686C527.0000921875001,403.3000183105469,527.0000921875001,403.9000183105469,527.4001921875,404.20001831054685L529.0000921875001,406.1000183105469L526.6000921875,408.50001831054686L524.9000921875,406.9000183105469C524.6000921875,406.6000183105469,524.0000921875001,406.6000183105469,523.7000921875,406.70001831054685C522.8000921875,407.20001831054685,521.8000921875,407.70001831054685,520.7000921875,407.9000183105469C520.2000921875,408.1000183105469,520.0000921875001,408.4000183105469,519.8000921875,408.9000183105469L519.5999921875,411.50001831054686L516.0999921875,411.50001831054686L515.6999921875,408.9000183105469ZM521.7999921875,409.70001831054685C522.4999921875,409.50001831054686,523.1999921875,409.20001831054685,523.8999921875,408.8000183105469L525.9998921875,410.50001831054686C526.2998921875,410.8000183105469,526.9998921875,410.8000183105469,527.3999921875,410.50001831054686L531.3999921875,406.50001831054686C531.6999921875,406.20001831054685,531.6999921875,405.50001831054686,531.3999921875,405.1000183105469L529.6999921875,403.00001831054686C529.9998921875,402.3000183105469,530.3999921875,401.6000183105469,530.5999921875,400.9000183105469L533.3999921875,400.70001831054685C533.8999921875,400.70001831054685,534.3999921875,400.20001831054685,534.3999921875,399.70001831054685L534.3999921875,394.1000183105469C534.3999921875,393.6000183105469,533.8999921875,393.1000183105469,533.3999921875,393.1000183105469L530.7999921875,392.8000183105469C530.5999921875,392.1000183105469,530.2999921875,391.4000183105469,529.8999921875,390.70001831054685L531.5999921875,388.6000183105469C531.8999921875,388.3000183105469,531.8999921875,387.6000183105469,531.5999921875,387.20001831054685L527.5999921875,383.20001831054685C527.2999921875,382.9000183105469,526.5999921875,382.9000183105469,526.1999921875,383.20001831054685L524.0999921875,384.9000183105469C523.3999921875,384.6000183105469,522.6999921875,384.20001831054685,521.9999921875,384.00001831054686L521.7999921875,381.20001831054685C521.7999921875,380.70001831054685,521.2999921875,380.20001831054685,520.7999921875,380.20001831054685L515.1999921875,380.20001831054685C514.6999921875,380.20001831054685,514.1999921875,380.70001831054685,514.1999921875,381.20001831054685L513.9999921875,384.00001831054686C513.2999921875,384.20001831054685,512.5999921875,384.50001831054686,511.8999921875,384.9000183105469L509.7999921875,383.20001831054685C509.49999218749997,382.9000183105469,508.7999921875,382.9000183105469,508.3999921875,383.20001831054685L504.3999921875,387.20001831054685C504.0999921875,387.50001831054686,504.0999921875,388.20001831054685,504.3999921875,388.6000183105469L506.0999921875,390.70001831054685C505.7999921875,391.4000183105469,505.3999921875,392.1000183105469,505.1999921875,392.8000183105469L502.3999921875,393.00001831054686C501.8999921875,393.00001831054686,501.4000221875,393.50001831054686,501.4000221875,394.00001831054686L501.4000221875,399.6000183105469C501.4000221875,400.1000183105469,501.8999921875,400.6000183105469,502.3999921875,400.6000183105469L505.1999921875,400.8000183105469C505.3999921875,401.50001831054686,505.6999921875,402.20001831054685,506.0999921875,402.9000183105469L504.3999921875,405.00001831054686C504.0999921875,405.3000183105469,504.0999921875,406.00001831054686,504.3999921875,406.4000183105469L508.3999921875,410.4000183105469C508.6999921875,410.70001831054685,509.3999921875,410.70001831054685,509.7999921875,410.4000183105469L511.8999921875,408.70001831054685C512.5999921875,409.00001831054686,513.2999921875,409.4000183105469,513.9999921875,409.6000183105469L514.1999921875,411.20001831054685L494.2000121875,411.20001831054685L494.2000121875,366.8000183105469L522.5999921875,366.8000183105469L522.5999921875,378.8000183105469C522.5999921875,379.3000183105469,523.0999921875,379.8000183105469,523.5999921875,379.8000183105469L538.8999921875,379.8000183105469C539.3999921875,379.8000183105469,539.8999921875,379.3000183105469,539.8999921875,378.8000183105469L539.8999921875,366.8000183105469L568.3000921875,366.8000183105469L568.3000921875,411.4000183105469L521.8000921875,411.4000183105469L521.7999921875,409.70001831054685ZM524.5999921875,366.70001831054685L537.6999921875,366.70001831054685L537.6999921875,377.70001831054685L524.5999921875,377.70001831054685L524.5999921875,366.70001831054685ZM567.4999921875,364.6000183105469L539.7999921875,364.6000183105469L536.9999921875,344.8999983105469L557.6999921875,344.8999983105469L567.4999921875,364.6000183105469ZM534.8999921875,344.8999983105469L537.4999921875,364.6000183105469L524.7999921875,364.6000183105469L527.5999921875,344.8999983105469L534.8999921875,344.8999983105469ZM504.5999921875,344.8999983105469L525.2999921875,344.8999983105469L522.4999921875,364.6000183105469L494.7999921875,364.6000183105469L504.5999921875,344.8999983105469ZM494.1000021875,421.20001831054685L494.1000021875,413.50001831054686C497.6000021875,413.50001831054686,563.9999921875,413.50001831054686,568.1999921875,413.50001831054686L568.1999921875,421.20001831054685L494.1000021875,421.20001831054685Z" fill="#000000" fill-opacity="1" style="mix-blend-mode:passthrough"/></g></g><g><g><path d="M527.099951171875,396.7999855859375C527.099951171875,391.6999855859375,522.899951171875,387.5999755859375,517.899961171875,387.5999755859375C512.799991171875,387.5999755859375,508.699951171875,391.7999855859375,508.699951171875,396.7999855859375C508.699951171875,401.7999755859375,512.899961171875,405.9999755859375,517.899961171875,405.9999755859375C522.900051171875,406.0999755859375,527.099951171875,401.8999755859375,527.099951171875,396.7999855859375ZM517.799991171875,403.7999755859375C514.000001171875,403.7999755859375,510.799991171875,400.6999755859375,510.799991171875,396.7999855859375C510.799991171875,392.8999955859375,513.899961171875,389.7999855859375,517.799991171875,389.7999855859375C521.599951171875,389.7999855859375,524.799951171875,392.8999955859375,524.799951171875,396.7999855859375C524.799951171875,400.6999755859375,521.700051171875,403.7999755859375,517.799991171875,403.7999755859375Z" fill="#000000" fill-opacity="1" style="mix-blend-mode:passthrough"/></g></g><g><g><path d="M564.5000366210937,394.60003662109375C563.5999366210938,395.10003662109375,562.5999366210938,395.60003662109375,561.5000366210937,395.80003662109374C561.0000366210937,396.0000366210937,560.8000366210938,396.30003662109374,560.5999366210938,396.80003662109374L560.3999366210937,399.40003662109376L557.0000366210937,399.40003662109376L556.7000366210938,396.80003662109374C556.7000366210938,396.30003662109374,556.4000366210937,395.90003662109376,555.8000366210938,395.80003662109374C554.8000366210938,395.5000366210937,553.7000366210938,395.10003662109375,552.8000366210938,394.60003662109375C552.5000366210937,394.40003662109376,551.8999666210938,394.40003662109376,551.5999766210938,394.80003662109374L549.6999466210938,396.40003662109376L547.2999266210937,394.0000366210937L548.8999066210938,392.10003662109375C549.1998866210937,391.80003662109374,549.1998866210937,391.2000366210938,549.0999166210937,390.90003662109376C548.5999166210937,390.0000366210937,548.0999166210937,389.0000366210937,547.8999066210938,387.90003662109376C547.6998866210937,387.40003662109376,547.3999066210938,387.2000366210938,546.8999066210938,387.0000366210937L544.2999266210937,386.80003662109374L544.2999266210937,383.30003662109374L546.8999066210938,383.10003662109375C547.3999066210938,383.10003662109375,547.7999266210937,382.80003662109374,547.8999066210938,382.2000366210938C548.1998866210937,381.2000366210938,548.5999166210937,380.10003662109375,549.0999166210937,379.2000366210938C549.2999266210937,378.90003662109376,549.2999266210937,378.30001662109373,548.8999066210938,377.99999662109377L547.2999266210937,376.10000662109377L549.6999466210938,373.70001662109377L551.5999766210938,375.30001662109373C551.8999666210938,375.60000662109377,552.5000366210937,375.60000662109377,552.8000366210938,375.50002662109375C553.7000366210938,375.00002662109375,554.7000366210938,374.50002662109375,555.8000366210938,374.30001662109373C556.3000366210938,374.10000662109377,556.5000366210937,373.80001662109373,556.7000366210938,373.30001662109373L556.9000366210937,370.70001662109377L560.4000366210937,370.70001662109377L560.6000366210938,373.30001662109373C560.6000366210938,373.80001662109373,560.9000366210937,374.20001662109377,561.5000366210937,374.30001662109373C562.5000366210937,374.60000662109377,563.6000366210938,375.00002662109375,564.5000366210937,375.50002662109375C565.0000366210937,375.80001662109373,565.7000366210938,375.70004662109375,566.1000366210938,375.20004662109375C566.4000366210937,374.70004662109375,566.3000366210938,374.00002662109375,565.8000366210938,373.60003662109375C564.9000366210937,373.10003662109375,564.1000366210938,372.70004662109375,563.0000366210937,372.40002662109373L562.8000366210938,369.60003662109375C562.8000366210938,369.10003662109375,562.3000366210938,368.60003662109375,561.8000366210938,368.60003662109375L556.0000366210937,368.60003662109375C555.5000366210937,368.60003662109375,555.0000366210937,369.10003662109375,555.0000366210937,369.60003662109375L554.7000366210938,372.00002662109375C554.0000366210937,372.20004662109375,553.3000366210938,372.50002662109375,552.6000366210938,372.90002662109373L550.5000566210938,371.20001662109377C550.2000766210938,370.90002662109373,549.5000566210938,370.90002662109373,549.1000366210938,371.20001662109377L545.1000366210938,375.20001662109377C544.8000466210938,375.49999662109377,544.8000466210938,376.20001662109377,545.1000366210938,376.60000662109377L546.8000466210938,378.7000366210938C546.5000566210938,379.40003662109376,546.1000366210938,380.10003662109375,545.9000266210937,380.80003662109374L543.1000366210938,381.0000366210937C542.6000366210938,381.0000366210937,542.1000366210938,381.5000366210937,542.1000366210938,382.0000366210937L542.1000366210938,387.80003662109374C542.1000366210938,388.30003662109374,542.6000366210938,388.80003662109374,543.1000366210938,388.80003662109374L545.9000266210937,389.0000366210937C546.1000366210938,389.7000366210938,546.4000266210937,390.40003662109376,546.8000466210938,391.10003662109375L544.9999966210937,393.0000366210937C544.7000166210937,393.30003662109374,544.7000166210937,394.0000366210937,544.9999966210937,394.40003662109376L548.9999966210937,398.40003662109376C549.2999866210937,398.69993662109374,549.9999966210937,398.69993662109374,550.4000266210937,398.40003662109376L552.5000366210937,396.69993662109374C553.2000366210938,396.99993662109375,553.9000366210937,397.40003662109376,554.5999366210938,397.5999366210938L554.8000366210938,400.39993662109373C554.8000366210938,400.89993662109373,555.3000366210938,401.39993662109373,555.8000366210938,401.39993662109373L561.3999366210937,401.39993662109373C561.8999366210937,401.39993662109373,562.3999366210937,400.89993662109373,562.3999366210937,400.39993662109373L562.5999366210938,397.5999366210938C563.5999366210938,397.30003662109374,564.5000366210937,396.89993662109373,565.3999366210937,396.39993662109373C565.8999366210937,396.0999366210938,566.0999366210938,395.39993662109373,565.6999366210938,394.79993662109376C565.7000366210938,394.40003662109376,565.0999366210938,394.40003662109376,564.5000366210937,394.60003662109375Z" fill="#000000" fill-opacity="1" style="mix-blend-mode:passthrough"/></g></g><g><g><path d="M558.7999855859375,377.79998779296875C559.2999855859375,377.79998779296875,559.7999755859375,377.29998779296875,559.7999755859375,376.79998779296875C559.7999755859375,376.29998779296875,559.2999855859375,375.79998779296875,558.7999855859375,375.79998779296875C553.7000155859375,375.79998779296875,549.5999755859375,379.99999779296877,549.5999755859375,384.99999779296877C549.5999755859375,390.09998779296876,553.7999855859375,394.1999877929687,558.7999855859375,394.1999877929687C559.2999855859375,394.1999877929687,559.7999755859375,393.6999877929687,559.7999755859375,393.1999877929687C559.7999755859375,392.6999877929687,559.2999855859375,392.1999877929687,558.7999855859375,392.1999877929687C554.9999955859375,392.1999877929687,551.7999855859375,389.09998779296876,551.7999855859375,385.20000779296873C551.7999855859375,380.99999779296877,554.9000255859376,377.79998779296875,558.7999855859375,377.79998779296875Z" fill="#000000" fill-opacity="1" style="mix-blend-mode:passthrough"/></g></g><g><g><path d="M517.7999833789063,391.3999938964844C514.7999833789063,391.3999938964844,512.3999633789062,393.7999838964844,512.3999633789062,396.7999838964844C512.3999633789062,399.7999838964844,514.7999833789063,402.1999938964844,517.7999833789063,402.1999938964844C520.7999833789063,402.1999938964844,523.1999633789062,399.7999838964844,523.1999633789062,396.7999838964844C523.1999633789062,393.7999838964844,520.7999833789063,391.3999938964844,517.7999833789063,391.3999938964844ZM517.7999833789063,400.1000038964844C516.0999733789063,400.1000038964844,514.5000033789063,398.7000138964844,514.5000033789063,396.80001389648436C514.5000033789063,395.1000038964844,515.9000233789062,393.50003389648435,517.7999833789063,393.50003389648435C519.5000033789063,393.50003389648435,521.0999733789063,394.90002389648436,521.0999733789063,396.80001389648436C521.0999733789063,398.6000038964844,519.5999733789063,400.1000038964844,517.7999833789063,400.1000038964844Z" fill="#000000" fill-opacity="1" style="mix-blend-mode:passthrough"/></g></g><g><g><path d="M491.9999961035156,340.50001220703126C494.9999961035156,340.50001220703126,497.40000610351564,338.10000220703125,497.40000610351564,335.10000220703125C497.40000610351564,332.10000220703125,494.9999961035156,329.70001220703125,491.9999961035156,329.70001220703125C488.9999961035156,329.70001220703125,486.6000061035156,332.10000220703125,486.6000061035156,335.10000220703125C486.6000061035156,338.10000220703125,489.1000061035156,340.50001220703126,491.9999961035156,340.50001220703126ZM491.9999961035156,331.79999220703127C493.7000161035156,331.79999220703127,495.2999861035156,333.19998220703127,495.2999861035156,335.09997220703127C495.2999861035156,336.79999220703127,493.8999961035156,338.39996220703125,491.9999961035156,338.39996220703125C490.1000061035156,338.39996220703125,488.7000161035156,336.79996220703123,488.7000161035156,335.09997220703127C488.7000161035156,333.20001220703125,490.1000061035156,331.79999220703127,491.9999961035156,331.79999220703127Z" fill="#000000" fill-opacity="1" style="mix-blend-mode:passthrough"/></g></g><g><g><path d="M574.7999855859375,328.5C570.5999755859375,328.5,567.0999755859375,332,567.0999755859375,336.20001C567.0999755859375,340.4,570.5999755859375,343.9,574.7999855859375,343.9C578.9999755859375,343.9,582.4999755859375,340.4,582.4999755859375,336.20001C582.4999755859375,332,578.9999755859375,328.5,574.7999855859375,328.5ZM574.7999855859375,341.6C571.7999855859375,341.6,569.3999655859375,339.2,569.3999655859375,336.20001C569.3999655859375,333.20001,571.7999855859375,330.80002,574.7999855859375,330.80002C577.7999755859375,330.80002,580.1999755859375,333.20001,580.1999755859375,336.20001C580.1999755859375,339.2,577.7999755859375,341.6,574.7999855859375,341.6Z" fill="#000000" fill-opacity="1" style="mix-blend-mode:passthrough"/></g></g><g><g><path d="M559.0000044140625,329.70001220703125C559.9000244140625,329.70001220703125,560.5999744140624,330.40002420703127,560.5999744140624,331.30002220703125C560.5999744140624,332.20001220703125,559.8999644140625,332.90002220703127,559.0000044140625,332.90002220703127C558.0999754140626,332.90002220703127,557.4000244140625,332.20001220703125,557.4000244140625,331.30002220703125C557.4000244140625,330.3999942070312,558.0999754140626,329.70001220703125,559.0000044140625,329.70001220703125Z" fill="#000000" fill-opacity="1" style="mix-blend-mode:passthrough"/></g></g><g><g><path d="M574.2999922070312,353.6000061035156C575.2000122070312,353.6000061035156,575.8999622070312,354.30001810351564,575.8999622070312,355.2000161035156C575.8999622070312,356.1000061035156,575.1999522070313,356.80001610351565,574.2999922070312,356.80001610351565C573.3999632070313,356.80001610351565,572.7000122070312,356.1000061035156,572.7000122070312,355.2000161035156C572.7000122070312,354.2999881035156,573.4000242070313,353.6000061035156,574.2999922070312,353.6000061035156Z" fill="#000000" fill-opacity="1" style="mix-blend-mode:passthrough"/></g></g><g><g><path d="M535.09998,328.70001220703125C536,328.70001220703125,536.69995,329.40002420703127,536.69995,330.30002220703125C536.69995,331.20001220703125,535.99994,331.90002220703127,535.09998,331.90002220703127C534.199951,331.90002220703127,533.5,331.20001220703125,533.5,330.30002220703125C533.5,329.3999942070312,534.200012,328.70001220703125,535.09998,328.70001220703125Z" fill="#000000" fill-opacity="1" style="mix-blend-mode:passthrough"/></g></g><g><g><ellipse cx="504.60000002384186" cy="332.3999878168106" rx="1.600000023841858" ry="1.600000023841858" fill="#000000" fill-opacity="1" style="mix-blend-mode:passthrough"/></g></g><g><g><path d="M487.2000161035156,366.70001220703125C488.1000061035156,366.70001220703125,488.80001610351565,367.40002420703127,488.80001610351565,368.30002220703125C488.80001610351565,369.20001220703125,488.1000061035156,369.90002220703127,487.2000161035156,369.90002220703127C486.30001810351564,369.90002220703127,485.6000061035156,369.20001220703125,485.6000061035156,368.30002220703125C485.6000061035156,367.3999942070312,486.2999881035156,366.70001220703125,487.2000161035156,366.70001220703125Z" fill="#000000" fill-opacity="1" style="mix-blend-mode:passthrough"/></g></g><g><g><path d="M484.89999779296875,410.20001220703125C485.79998779296875,410.20001220703125,486.49999779296877,410.90002420703127,486.49999779296877,411.80002220703125C486.49999779296877,412.70001220703125,485.79998779296875,413.40002220703127,484.89999779296875,413.40002220703127C483.99999979296877,413.40002220703127,483.29998779296875,412.70001220703125,483.29998779296875,411.80002220703125C483.29998779296875,410.8999942070312,483.99999979296877,410.20001220703125,484.89999779296875,410.20001220703125Z" fill="#000000" fill-opacity="1" style="mix-blend-mode:passthrough"/></g></g></g></g><g><g><g><path d="M402.20000779296873,611.9999955859375C401.20000779296873,611.7000155859375,400.30001779296873,611.2999855859375,400.10000779296877,611.2999855859375L400.10000779296877,608.9999955859375C401.30001779296873,609.2000155859375,402.70000779296873,609.9000255859376,402.89999779296875,609.9999955859375L404.10000779296877,607.7000155859375C403.60000779296877,607.4000255859376,403.10000779296877,607.2000155859375,402.39999779296875,606.7999855859375C401.69997779296875,606.4999955859375,400.99999779296877,606.4999955859375,400.29998779296875,606.2999855859375L400.29998779296875,604.5999755859375L399.09997779296873,604.5999755859375L399.09997779296873,606.2999855859375C396.49996779296873,606.5999755859375,395.29998779296875,608.2000155859375,395.29998779296875,610.0999755859375C395.29998779296875,610.9999955859375,395.49999979296877,611.6999555859375,396.19997779296875,612.1999555859375C397.09997779296873,613.0999755859375,398.79998779296875,613.3999655859375,399.49996779296873,613.7999255859374L399.49996779296873,616.0998755859375C397.89996779296877,615.8998755859375,396.39996779296877,615.0998755859375,396.19997779296875,614.6998755859375L394.79998779296875,617.2998755859375C395.99999779296877,618.1998755859375,397.79998779296875,618.6998755859375,399.19997779296875,618.6998755859375L399.19997779296875,620.5998755859375L400.39999779296875,620.5998755859375L400.39999779296875,618.9999755859375C401.99999779296877,618.9999755859375,403.49999779296877,618.2999755859375,404.19997779296875,616.8999755859375C404.69997779296875,615.9999755859375,404.69997779296875,614.6000755859375,404.19997779296875,613.8000455859375C403.99999779296877,612.9999955859375,403.49999779296877,612.4999955859375,402.20000779296873,611.9999955859375ZM399.39999779296875,611.0999755859375C399.10000779296877,610.8999655859375,398.69997779296875,610.7999855859375,398.49999779296877,610.5999755859375C398.20000779296873,610.5999755859375,398.20000779296873,610.2999855859375,398.20000779296873,610.0999755859375C398.20000779296873,609.5999755859375,398.49999779296877,609.1999555859375,399.40002779296873,609.0999755859375L399.39999779296875,611.0999755859375ZM400.10000779296877,616.3999755859375L400.10000779296877,614.3000455859375C400.39999779296875,614.5000655859375,400.80001779296873,614.6000755859375,400.99999779296877,614.8000755859375C401.20000779296873,615.0000755859375,401.29998779296875,615.1000755859375,401.29998779296875,615.5000755859375C401.49999779296877,615.9999755859375,400.99999779296877,616.3999755859375,400.10000779296877,616.3999755859375Z" fill="#000000" fill-opacity="1" style="mix-blend-mode:passthrough"/></g></g><g><g><path d="M399.6,599.7999877929688C392.5,599.7999877929688,386.5,605.7000077929688,386.5,612.8999877929688C386.5,619.9999877929688,392.39999,625.9999877929688,399.6,625.9999877929688C406.7,625.9999877929688,412.7,620.0998877929687,412.7,612.8999877929688C412.7,605.7000077929688,406.8,599.7999877929688,399.6,599.7999877929688ZM399.6,623.7999877929688C393.70001,623.7999877929688,388.60001,618.8999877929688,388.60001,612.7999877929688C388.60001,606.8999677929687,393.5,601.7999877929688,399.6,601.7999877929688C405.7,601.7999877929688,410.6,606.7000077929688,410.6,612.7999877929688C410.6,618.7999877929688,405.7,623.7999877929688,399.6,623.7999877929688Z" fill="#000000" fill-opacity="1" style="mix-blend-mode:passthrough"/></g></g><g><g><path d="M375.8999905761719,650.6999999023437C376.3999905761719,650.9999999023437,377.0999905761719,650.8999999023438,377.49999057617185,650.3999999023438C377.79999057617187,649.8999999023438,377.6999905761719,649.1999999023437,377.1999905761719,648.7999999023438C364.70001057617185,641.0999999023437,357.20001057617185,627.7000999023437,357.20001057617185,612.8999999023438C357.20001057617185,595.2999999023438,367.6999905761719,579.8000499023437,383.99999057617185,573.3000499023437C384.49999057617185,573.1000399023437,384.8999905761719,572.4000199023437,384.6999905761719,571.9000249023437C384.49999057617185,571.4000249023437,383.79999057617187,570.9999999023438,383.29999057617187,571.2000122023437C366.5999905761719,577.7999899023438,355.1000061031719,593.9999999023438,355.1000061031719,612.6999999023437C354.99999997617186,628.6999999023437,363.20001057617185,642.7999999023438,375.8999905761719,650.6999999023437Z" fill="#000000" fill-opacity="1" style="mix-blend-mode:passthrough"/></g></g><g><g><path d="M444.2,612.9000395507812C444.2,588.9000395507812,425.2,569.2000095507813,401.3,568.3000495507813L403.6,564.3000495507813C403.9,563.8000495507813,403.6,563.1000365507813,403.1,562.9000245507813C402.6,562.6000365507813,401.9,562.7000122507812,401.7,563.4000245507813L398.6,569.2000095507813C398.4,569.4999995507812,398.4,569.9000195507813,398.6,570.2000095507813C398.6,570.4000195507813,400.9,574.0000395507813,401.7,575.4000395507812C402,575.9000395507812,402.7,576.1000395507813,403.3,575.7000395507813C403.8,575.4000395507812,404,574.7000395507813,403.6,574.1000395507813L401.5,570.6000395507813C424,571.6000395507813,442.1,590.3000395507812,442.1,612.9000395507812C442.1,636.2000395507813,423.1,655.4000395507812,399.6,655.4000395507812L350.5,655.4000395507812C350,655.4000395507812,349.5,655.9000395507812,349.5,656.4000395507812C349.5,656.9000395507812,350,657.4000395507812,350.5,657.4000395507812L399.8,657.4000395507812C424.2,657.5000395507813,444.2,637.4000395507812,444.2,612.9000395507812Z" fill="#000000" fill-opacity="1" style="mix-blend-mode:passthrough"/></g></g><g><g><path d="M449.2999633789062,655.400028828125C449.09996337890624,655.200008828125,449.4999633789063,655.600038828125,444.7999633789062,650.900024828125C444.4999633789063,650.600036628125,443.7999633789062,650.600036628125,443.19996337890626,650.900024828125C442.89996337890625,651.200011828125,442.89996337890625,651.900028828125,443.19996337890626,652.499998828125L445.59996337890624,654.900028828125L426.39996337890625,654.900028828125C425.89996337890625,654.900028828125,425.39996337890625,655.400028828125,425.39996337890625,655.900028828125C425.39996337890625,656.400028828125,425.89996337890625,656.900028828125,426.39996337890625,656.900028828125L445.59996337890624,656.900028828125L443.19996337890626,659.300048828125C442.4999633789063,660.000058828125,442.9999633789063,661.200048828125,443.89996337890625,661.200048828125C444.19996337890626,661.200048828125,444.39996337890625,661.000048828125,444.59996337890624,660.900048828125C449.30006337890626,656.200068828125,449.09996337890624,656.500058828125,449.09996337890624,656.200068828125C449.59996337890624,656.099978828125,449.4999633789063,655.700008828125,449.2999633789062,655.400028828125Z" fill="#000000" fill-opacity="1" style="mix-blend-mode:passthrough"/></g></g><g><g><path d="M374.2,587.4000233984375C374.5,587.1000333984375,374.5,586.4000243984375,374.2,585.8000483984375C373.9,585.3000483984375,373.2,585.5000610384375,372.6,585.8000483984375C357.80002,600.6000833984375,357.80002,624.8000833984376,372.6,639.6000833984375C372.8,639.8000833984376,373.1,639.8999833984375,373.3,639.8999833984375C374.3,639.8999833984375,374.7,638.6999833984376,374,637.9999833984375C360.20001,624.1999833984376,360.20001,601.4999833984375,374.2,587.4000233984375Z" fill="#000000" fill-opacity="1" style="mix-blend-mode:passthrough"/></g></g><g><g><path d="M425.100006,638.3C424.8000183,638.6,424.8000183,639.3,425.100006,639.9C425.399994,640.2,426.10001,640.2,426.70001,639.9C441.5,625.1,441.5,600.9,426.70001,586.099976C426.40002,585.7999878,425.700012,585.7999878,425.100006,586.099976C424.8000183,586.399963,424.8000183,587.09998,425.100006,587.69995C431.89999,594.49994,435.6,603.6,435.6,613.1C435.5,622.6,431.89999,631.5,425.100006,638.3Z" fill="#000000" fill-opacity="1" style="mix-blend-mode:passthrough"/></g></g><g><g><path d="M357.9999961035156,576.500001171875C360.3999961035156,576.500001171875,362.3999961035156,574.599971171875,362.3999961035156,572.099971171875C362.3999961035156,569.699951171875,360.4999961035156,567.699951171875,357.9999961035156,567.699951171875C355.6000061035156,567.699951171875,353.6000061035156,569.599971171875,353.6000061035156,572.099971171875C353.6000061035156,574.500001171875,355.7000161035156,576.500001171875,357.9999961035156,576.500001171875ZM357.9999961035156,570.000001171875C359.2000161035156,570.000001171875,360.2999861035156,571.000001171875,360.2999861035156,572.299991171875C360.2999861035156,573.500001171875,359.2999861035156,574.599971171875,357.9999961035156,574.599971171875C356.7999861035156,574.599971171875,355.7000161035156,573.599971171875,355.7000161035156,572.299991171875C355.8999961035156,570.900021171875,356.7999861035156,570.000001171875,357.9999961035156,570.000001171875Z" fill="#000000" fill-opacity="1" style="mix-blend-mode:passthrough"/></g></g><g><g><path d="M442.99999779296877,579.7999633789062C447.1999877929687,579.7999633789062,450.6999877929687,576.2999633789062,450.6999877929687,572.0999733789063C450.6999877929687,567.8999633789062,447.1999877929687,564.3999633789062,442.99999779296877,564.3999633789062C438.79998779296875,564.3999633789062,435.29998779296875,567.8999633789062,435.29998779296875,572.0999733789063C435.29998779296875,576.2999633789062,438.79998779296875,579.7999633789062,442.99999779296877,579.7999633789062ZM442.99999779296877,566.7000133789063C445.99998779296874,566.7000133789063,448.3999877929688,569.1000333789062,448.3999877929688,572.1000333789062C448.3999877929688,575.1000633789063,445.99998779296874,577.5000633789062,442.99999779296877,577.5000633789062C439.99999779296877,577.5000633789062,437.60000779296877,575.1000633789063,437.60000779296877,572.1000333789062C437.60000779296877,569.0999733789063,439.99999779296877,566.7000133789063,442.99999779296877,566.7000133789063Z" fill="#000000" fill-opacity="1" style="mix-blend-mode:passthrough"/></g></g><g><g><path d="M351.5,646.2000077929688C351.5,648.6000377929688,353.39999,650.6000377929688,355.89999,650.6000377929688C358.39999,650.6000377929688,360.29999,648.7000077929688,360.29999,646.2000077929688C360.29999,643.7999877929688,358.39999,641.7999877929688,355.89999,641.7999877929688C353.39999,641.7999877929688,351.5,643.7000077929688,351.5,646.2000077929688ZM358,646.2000077929688C358,647.4000277929688,357,648.4999977929688,355.70001,648.4999977929688C354.5,648.4999977929688,353.40002,647.4999977929688,353.40002,646.2000077929688C353.40002,644.9999977929688,354.40002,643.9000277929688,355.70001,643.9000277929688C356.89999,643.9000277929688,358,644.9000277929688,358,646.2000077929688Z" fill="#000000" fill-opacity="1" style="mix-blend-mode:passthrough"/></g></g><g><g><path d="M424.0000038964844,565.5999755859375C424.8999938964844,565.5999755859375,425.6000038964844,566.2999875859375,425.6000038964844,567.1999555859375C425.6000038964844,568.0999755859375,424.8999938964844,568.7999255859374,424.0000038964844,568.7999255859374C423.1000058964844,568.7999255859374,422.3999938964844,568.0999155859375,422.3999938964844,567.1999555859375C422.4999998964844,566.4000245859374,423.2000118964844,565.5999755859375,424.0000038964844,565.5999755859375Z" fill="#000000" fill-opacity="1" style="mix-blend-mode:passthrough"/></g></g><g><g><ellipse cx="446.8000122308731" cy="590.0000244379044" rx="1.600000023841858" ry="1.600000023841858" fill="#000000" fill-opacity="1" style="mix-blend-mode:passthrough"/></g></g><g><g><path d="M443.5000038964844,635.2999877929688C444.3999938964844,635.2999877929688,445.1000038964844,635.9999997929688,445.1000038964844,636.8999677929687C445.1000038964844,637.7999877929688,444.3999938964844,638.4999377929687,443.5000038964844,638.4999377929687C442.6000058964844,638.4999377929687,441.8999938964844,637.7999277929688,441.8999938964844,636.8999677929687C441.9999998964844,635.9999997929688,442.7000118964844,635.2999877929688,443.5000038964844,635.2999877929688Z" fill="#000000" fill-opacity="1" style="mix-blend-mode:passthrough"/></g></g><g><g><path d="M352.10001,632C353,632,353.70001,632.700012,353.70001,633.59998C353.70001,634.5,353,635.19995,352.10001,635.19995C351.200012,635.19995,350.5,634.49994,350.5,633.59998C350.5,632.700012,351.200012,632,352.10001,632Z" fill="#000000" fill-opacity="1" style="mix-blend-mode:passthrough"/></g></g><g><g><path d="M373.7999916894531,565.5999755859375C374.6999816894531,565.5999755859375,375.39999168945315,566.2999875859375,375.39999168945315,567.1999555859375C375.39999168945315,568.0999755859375,374.6999816894531,568.7999255859374,373.7999916894531,568.7999255859374C372.89999368945314,568.7999255859374,372.1999816894531,568.0999155859375,372.1999816894531,567.1999555859375C372.29998768945313,566.4000245859374,372.99999968945315,565.5999755859375,373.7999916894531,565.5999755859375Z" fill="#000000" fill-opacity="1" style="mix-blend-mode:passthrough"/></g></g><g><g><path d="M353.10001,586.4000244140625C354,586.4000244140625,354.70001,587.1000364140625,354.70001,588.0000044140625C354.70001,588.9000244140625,354,589.5999744140624,353.10001,589.5999744140624C352.200012,589.5999744140624,351.5,588.8999644140625,351.5,588.0000044140625C351.5,587.0999754140626,352.200012,586.4000244140625,353.10001,586.4000244140625Z" fill="#000000" fill-opacity="1" style="mix-blend-mode:passthrough"/></g></g><g><g><path d="M399.6000061035156,581.2999877929688C382.20000610351565,581.2999877929688,368.1000061035156,595.3999877929688,368.1000061035156,612.7999877929688C368.1000061035156,630.1999877929687,382.20000610351565,644.2999877929688,399.6000061035156,644.2999877929688C417.0000061035156,644.2999877929688,431.1000061035156,630.1999877929687,431.1000061035156,612.7999877929688C431.20000610351565,595.3999877929688,417.0000061035156,581.2999877929688,399.6000061035156,581.2999877929688ZM421.20000610351565,632.8999877929688L416.5000061035156,628.1999877929687C420.0000061035156,624.3999877929688,422.20000610351565,619.2999877929688,422.40000610351564,613.8999877929688L429.0000061035156,613.8999877929688C428.70000610351565,621.1999877929687,425.8000061035156,627.8999877929688,421.20000610351565,632.8999877929688ZM370.3999961035156,613.8999877929688L376.9999961035156,613.8999877929688C377.2000161035156,619.3000877929687,379.40000610351564,624.3999877929688,382.90000610351564,628.1999877929687L378.20000610351565,632.8999877929688C373.4999961035156,627.8999877929688,370.4999961035156,621.1999877929687,370.3999961035156,613.8999877929688ZM378.20000610351565,592.7999877929688L382.90000610351564,597.4999877929688C379.40000610351564,601.2999877929688,377.2000161035156,606.3999877929688,377.0000261035156,611.7999877929688L370.40002610351564,611.7999877929688C370.4999961035156,604.4999877929688,373.4999961035156,597.8999877929688,378.20000610351565,592.7999877929688ZM399.6000061035156,633.5999877929687C388.3000061035156,633.5999877929687,378.90000610351564,624.3999877929688,378.90000610351564,612.8999877929688C378.90000610351564,601.5999877929687,388.1000061035156,592.1999877929687,399.6000061035156,592.1999877929687C411.1000061035156,592.1999877929687,420.3000061035156,601.5999877929687,420.3000061035156,612.8999877929688C420.40000610351564,624.1999877929687,411.1000061035156,633.5999877929687,399.6000061035156,633.5999877929687ZM415.0000061035156,595.9999877929688C411.20000610351565,592.4999877929688,406.1000061035156,590.2000077929688,400.70000610351565,590.0999777929687L400.70000610351565,583.4999977929688C408.0000061035156,583.7999877929688,414.6000061035156,586.5999777929687,419.70000610351565,591.2999877929688L415.0000061035156,595.9999877929688ZM398.6000061035156,589.9999977929688C393.20000610351565,590.2000077929688,388.1000061035156,592.3999877929688,384.3000061035156,595.8999877929688L379.6000061035156,591.2000077929688C384.70000610351565,586.4999977929688,391.3000061035156,583.7000077929688,398.6000061035156,583.4000277929688L398.6000061035156,589.9999977929688ZM384.3000061035156,629.7999877929688C388.1000061035156,633.2999877929688,393.20000610351565,635.5999877929687,398.6000061035156,635.6999877929687L398.6000061035156,642.2999877929688C391.3000061035156,641.9999877929688,384.70000610351565,639.1999877929687,379.6000061035156,634.4999877929688L384.3000061035156,629.7999877929688ZM400.70000610351565,635.6999877929687C406.1000061035156,635.4999877929688,411.20000610351565,633.2999877929688,415.0000061035156,629.7999877929688L419.70000610351565,634.4999877929688C414.6000061035156,639.1999877929687,408.0000061035156,641.9999877929688,400.70000610351565,642.2999877929688L400.70000610351565,635.6999877929687ZM422.5000061035156,611.7999877929688C422.3000061035156,606.3999877929688,420.1000061035156,601.2999877929688,416.6000061035156,597.4999877929688L421.3000061035156,592.7999877929688C426.0000061035156,597.8999877929688,428.8000061035156,604.4999877929688,429.1000061035156,611.7999877929688L422.5000061035156,611.7999877929688Z" fill="#000000" fill-opacity="1" style="mix-blend-mode:passthrough"/></g></g></g><g><g><g><g><path d="M394.79999,176.10000610351562C396,176.10000610351562,397.09998,177.10000610351562,397.09998,178.40000610351564C397.09998,179.60000610351562,396.09998,180.70001610351562,394.79999,180.70001610351562C393.59998,180.70001610351562,392.5,179.70001610351562,392.5,178.40000610351564C392.5,177.10000610351562,393.5,176.10000610351562,394.79999,176.10000610351562Z" fill="#000000" fill-opacity="1" style="mix-blend-mode:passthrough"/></g></g><g><g><path d="M434.79999389648435,188.10000610351562L423.8999938964844,188.10000610351562C423.3999938964844,188.10000610351562,422.8999938964844,188.60000610351562,422.8999938964844,189.10000610351562C422.8999938964844,189.60000610351562,423.3999938964844,190.10000610351562,423.8999938964844,190.10000610351562L434.79999389648435,190.10000610351562C435.29999389648435,190.10000610351562,435.79999389648435,189.60000610351562,435.79999389648435,189.10000610351562C435.9999938964844,188.60000610351562,435.4999938964844,188.10000610351562,434.79999389648435,188.10000610351562Z" fill="#000000" fill-opacity="1" style="mix-blend-mode:passthrough"/></g></g><g><g><path d="M365.5000061035156,188.10000610351562L354.6000061035156,188.10000610351562C354.1000061035156,188.10000610351562,353.6000061035156,188.60000610351562,353.6000061035156,189.10000610351562C353.6000061035156,189.60000610351562,354.1000061035156,190.10000610351562,354.6000061035156,190.10000610351562L365.5000061035156,190.10000610351562C366.0000061035156,190.10000610351562,366.5000061035156,189.60000610351562,366.5000061035156,189.10000610351562C366.70000610351565,188.60000610351562,366.20000610351565,188.10000610351562,365.5000061035156,188.10000610351562Z" fill="#000000" fill-opacity="1" style="mix-blend-mode:passthrough"/></g></g><g><g><path d="M371.5000038964844,96C372.3999938964844,96,373.1000038964844,96.699997,373.1000038964844,97.6C373.1000038964844,98.5,372.3999938964844,99.2,371.5000038964844,99.2C370.6000058964844,99.2,369.8999938964844,98.5,369.8999938964844,97.6C369.9999998964844,96.699997,370.7000118964844,96,371.5000038964844,96Z" fill="#000000" fill-opacity="1" style="mix-blend-mode:passthrough"/></g></g><g><g><ellipse cx="389.8999878168106" cy="107.29999697208405" rx="1.600000023841858" ry="1.600000023841858" fill="#000000" fill-opacity="1" style="mix-blend-mode:passthrough"/></g></g><g><g><path d="M415.89999779296875,100.4000015258789C416.79998779296875,100.4000015258789,417.49999779296877,101.0999985258789,417.49999779296877,102.0000015258789C417.49999779296877,102.9000015258789,416.79998779296875,103.60000152587891,415.89999779296875,103.60000152587891C414.99999979296877,103.60000152587891,414.29998779296875,102.9000015258789,414.29998779296875,102.0000015258789C414.29998779296875,101.0999985258789,414.99999979296877,100.4000015258789,415.89999779296875,100.4000015258789Z" fill="#000000" fill-opacity="1" style="mix-blend-mode:passthrough"/></g></g><g><g><path d="M440.89999779296875,106.9000015258789C441.79998779296875,106.9000015258789,442.49999779296877,107.5999985258789,442.49999779296877,108.5000015258789C442.49999779296877,109.4000015258789,441.79998779296875,110.10000152587891,440.89999779296875,110.10000152587891C439.99999979296877,110.10000152587891,439.29998779296875,109.4000015258789,439.29998779296875,108.5000015258789C439.29998779296875,107.5999985258789,439.99999979296877,106.9000015258789,440.89999779296875,106.9000015258789Z" fill="#000000" fill-opacity="1" style="mix-blend-mode:passthrough"/></g></g><g><g><path d="M436.00001220703126,121L353.70001220703125,121C353.20001220703125,121,352.70001220703125,121.5,352.70001220703125,122L352.70001220703125,171.9C352.70001220703125,172.4,353.20001220703125,172.9,353.70001220703125,172.9L436.00001220703126,172.9C436.50001220703126,172.9,437.00001220703126,172.4,437.00001220703126,171.9L437.00001220703126,122C437.1000122070312,121.300003,436.50001220703126,121,436.00001220703126,121ZM434.8000122070313,123.1L434.8000122070313,165.4L354.69998220703127,165.4L354.69998220703127,123.09999L434.8000122070313,123.1ZM354.70001220703125,170.7L354.70001220703125,167.4L435.00001220703126,167.4L435.00001220703126,170.7L354.70001220703125,170.7Z" fill="#000000" fill-opacity="1" style="mix-blend-mode:passthrough"/></g></g><g><g><path d="M436.89996948242185,114.4000015258789L352.5999794824219,114.4000015258789C348.9999694824219,114.4000015258789,345.9999694824219,117.30000152587891,345.9999694824219,121.0000015258789L345.9999694824219,179.20000152587892C345.9999694824219,182.8000015258789,348.8999594824219,185.8000015258789,352.5999794824219,185.8000015258789L375.0999694824219,185.8000015258789C374.39996948242185,186.70000152587892,374.0999694824219,187.9000015258789,374.0999694824219,189.1000015258789C374.0999694824219,192.0000015258789,376.4999694824219,194.5000015258789,379.4999694824219,194.5000015258789L409.7999694824219,194.5000015258789C412.69996948242186,194.5000015258789,415.19996948242186,192.1000015258789,415.19996948242186,189.1000015258789C415.19996948242186,187.9000015258789,414.89996948242185,186.70000152587892,414.19996948242186,185.8000015258789L436.69996948242186,185.8000015258789C440.2999694824219,185.8000015258789,443.2999694824219,182.9000015258789,443.2999694824219,179.20000152587892L443.2999694824219,121.0000015258789C443.4999694824219,117.30000152587891,440.4999694824219,114.4000015258789,436.89996948242185,114.4000015258789ZM413.0999694824219,189.1000015258789C413.0999694824219,190.8000015258789,411.69996948242186,192.4000015258789,409.7999694824219,192.4000015258789L379.5999694824219,192.4000015258789C377.89996948242185,192.4000015258789,376.2999694824219,191.0000015258789,376.2999694824219,189.1000015258789C376.2999694824219,187.4000015258789,377.69996948242186,185.8000015258789,379.5999694824219,185.8000015258789L409.9999694824219,185.8000015258789C411.69996948242186,186.0000015258789,413.0999694824219,187.4000015258789,413.0999694824219,189.1000015258789ZM441.39996948242185,179.20000152587892C441.39996948242185,181.6000015258789,439.2999694824219,183.70000152587892,436.89996948242185,183.70000152587892C431.89996948242185,183.70000152587892,357.4999694824219,183.70000152587892,352.5999794824219,183.70000152587892C350.1999794824219,183.70000152587892,348.0999794824219,181.6000015258789,348.0999794824219,179.20000152587892L348.0999794824219,121.0000015258789C348.0999794824219,118.60000152587891,350.1999794824219,116.5000015258789,352.5999794824219,116.5000015258789L436.89996948242185,116.5000015258789C439.2999694824219,116.5000015258789,441.39996948242185,118.60000152587891,441.39996948242185,121.0000015258789L441.39996948242185,179.20000152587892Z" fill="#000000" fill-opacity="1" style="mix-blend-mode:passthrough"/></g></g><g><g><path d="M375.29998779296875,151.3000030517578L362.29998779296875,151.3000030517578C361.79998779296875,151.3000030517578,361.29998779296875,151.8000030517578,361.29998779296875,152.3000030517578L361.29998779296875,161.0000030517578C361.29998779296875,161.5000030517578,361.79998779296875,162.0000030517578,362.29998779296875,162.0000030517578L375.29998779296875,162.0000030517578C375.79998779296875,162.0000030517578,376.29998779296875,161.5000030517578,376.29998779296875,161.0000030517578L376.29998779296875,152.3000030517578C376.3999877929688,151.6999970517578,375.8999877929688,151.3000030517578,375.29998779296875,151.3000030517578ZM374.09998779296876,160.0000030517578L363.20000779296873,160.0000030517578L363.20000779296873,153.3999930517578L374.09998779296876,153.3999930517578L374.09998779296876,160.0000030517578Z" fill="#000000" fill-opacity="1" style="mix-blend-mode:passthrough"/></g></g><g><g><path d="M392.70001220703125,151.3000030517578L379.70001220703125,151.3000030517578C379.20001220703125,151.3000030517578,378.70001220703125,151.8000030517578,378.70001220703125,152.3000030517578L378.70001220703125,161.0000030517578C378.70001220703125,161.5000030517578,379.20001220703125,162.0000030517578,379.70001220703125,162.0000030517578L392.70001220703125,162.0000030517578C393.20001220703125,162.0000030517578,393.70001220703125,161.5000030517578,393.70001220703125,161.0000030517578L393.70001220703125,152.3000030517578C393.70001220703125,151.6999970517578,393.20001220703125,151.3000030517578,392.70001220703125,151.3000030517578ZM391.50001220703126,160.0000030517578L380.60000220703125,160.0000030517578L380.60000220703125,153.3999930517578L391.50001220703126,153.3999930517578L391.50001220703126,160.0000030517578Z" fill="#000000" fill-opacity="1" style="mix-blend-mode:passthrough"/></g></g><g><g><path d="M410,151.3000030517578L397,151.3000030517578C396.5,151.3000030517578,396,151.8000030517578,396,152.3000030517578L396,161.0000030517578C396,161.5000030517578,396.5,162.0000030517578,397,162.0000030517578L410,162.0000030517578C410.5,162.0000030517578,411,161.5000030517578,411,161.0000030517578L411,152.3000030517578C411,151.6999970517578,410.5,151.3000030517578,410,151.3000030517578ZM408.8,160.0000030517578L397.89999,160.0000030517578L397.89999,153.3999930517578L408.8,153.3999930517578L408.8,160.0000030517578Z" fill="#000000" fill-opacity="1" style="mix-blend-mode:passthrough"/></g></g><g><g><path d="M413.1000061035156,152.39999614257812L413.1000061035156,161.09998614257813C413.1000061035156,161.59999614257814,413.6000061035156,162.09999614257814,414.1000061035156,162.09999614257814L427.1000061035156,162.09999614257814C427.6000061035156,162.09999614257814,428.1000061035156,161.59999614257814,428.1000061035156,161.09998614257813L428.1000061035156,152.39999614257812C428.1000061035156,151.89999414257812,427.6000061035156,151.39999394257813,427.1000061035156,151.39999394257813L414.1000061035156,151.39999394257813C413.6000061035156,151.3000030425781,413.1000061035156,151.69999714257813,413.1000061035156,152.39999614257812ZM415.3999961035156,153.39999614257812L426.3000061035156,153.39999614257812L426.3000061035156,159.9999961425781L415.3999961035156,159.9999961425781L415.3999961035156,153.39999614257812Z" fill="#000000" fill-opacity="1" style="mix-blend-mode:passthrough"/></g></g><g><g><path d="M378.50001220703126,140.4C378.00001220703126,138,375.70001220703125,136.09999,373.10000220703125,136.09999C370.20001220703125,136.09999,367.70001220703125,138.5,367.70001220703125,141.5C367.70001220703125,144.4,370.10000220703125,146.9,373.10000220703125,146.9C375.70001220703125,146.9,378.00001220703126,145,378.50001220703126,142.6L383.00001220703126,142.6C383.50001220703126,145,385.8000122070313,146.9,388.40001220703124,146.9C391.50001220703126,146.9,394.1000122070312,144.1,393.8000122070313,141L399.3000122070313,138.2C400.3000122070313,139.4,401.90001220703124,140.3,403.6000122070312,140.3C406.50001220703126,140.3,409.1000122070312,137.9,409.00001220703126,134.79999L413.50001220703126,133.89999C414.00001220703126,136.29999,416.29991220703124,138.1,418.70001220703125,138.1C421.6000122070312,138.1,424.1000122070312,135.7,424.1000122070312,132.7C424.1000122070312,129.8,421.70001220703125,127.5,418.6000122070312,127.5C416.00001220703126,127.5,413.70001220703125,129.39999,413.20001220703125,132L408.3000122070313,132.89999C407.40001220703124,131,405.50001220703126,129.79999,403.3000122070313,129.79999C399.8000122070313,129.79999,397.1000122070312,133.09999,398.1000122070312,136.59999L392.90001220703124,139.2C392.00001220703126,137.5,390.1000122070312,136.39999,388.00001220703126,136.39999C385.40001220703124,136.39999,383.1000122070312,138.3,382.6000122070312,140.7L378.50001220703126,140.4ZM418.70001220703125,129.7C420.40001220703124,129.7,422.00001220703126,131.09999,422.00001220703126,133C422.00001220703126,134.89999,420.40001220703124,136.10001,418.70001220703125,136.10001C417.00001220703126,136.10001,415.40001220703124,134.70001,415.40001220703124,132.8C415.40001220703124,130.89999,416.8000122070313,129.7,418.70001220703125,129.7ZM403.40001220703124,131.7C405.1000122070312,131.7,406.70001220703125,133.09999,406.70001220703125,135C406.70001220703125,136.89999,405.1000122070312,138.3,403.40001220703124,138.3C401.70001220703125,138.3,400.1000122070312,136.90001,400.1000122070312,135C400.1000122070312,133.10001,401.70001220703125,131.7,403.40001220703124,131.7ZM373.10000220703125,144.7C371.39999220703123,144.7,369.80002220703125,143.3,369.80002220703125,141.4C369.80002220703125,139.7,371.20001220703125,138.1,373.10000220703125,138.1C375.00000220703123,138.1,376.39999220703123,139.5,376.39999220703123,141.4C376.39999220703123,143.3,374.79999220703127,144.7,373.10000220703125,144.7ZM388.3000122070313,138.3C390.00001220703126,138.3,391.6000122070312,139.7,391.6000122070312,141.6C391.6000122070312,143.5,390.00001220703126,144.7,388.3000122070313,144.7C386.6000122070312,144.7,385.00001220703126,143.3,385.00001220703126,141.4C385.00001220703126,139.7,386.40001220703124,138.3,388.3000122070313,138.3Z" fill="#000000" fill-opacity="1" style="mix-blend-mode:passthrough"/></g></g><g><g><path d="M357.99999640625,127.4000015258789L379.69996640625,127.4000015258789C380.19996640625,127.4000015258789,380.69996640625,126.9000015258789,380.69996640625,126.4000015258789C380.69996640625,125.9000015258789,380.19996640625,125.4000015258789,379.69996640625,125.4000015258789L357.99999640625,125.4000015258789C357.50000040625,125.4000015258789,357.00000000625,125.9000015258789,357.00000000625,126.4000015258789C356.79998740625,126.9000015258789,357.29998740625,127.4000015258789,357.99999640625,127.4000015258789Z" fill="#000000" fill-opacity="1" style="mix-blend-mode:passthrough"/></g></g><g><g><path d="M357.99999640625,131.6999969482422L379.69996640625,131.6999969482422C380.19996640625,131.6999969482422,380.69996640625,131.1999969482422,380.69996640625,130.6999969482422C380.69996640625,130.1999969482422,380.19996640625,129.6999969482422,379.69996640625,129.6999969482422L357.99999640625,129.6999969482422C357.50000040625,129.6999969482422,357.00000000625,130.1999969482422,357.00000000625,130.6999969482422C356.79998740625,131.1999969482422,357.29998740625,131.6999969482422,357.99999640625,131.6999969482422Z" fill="#000000" fill-opacity="1" style="mix-blend-mode:passthrough"/></g></g><g><g><path d="M358.0000038964844,111.10000152587891C362.1999938964844,111.10000152587891,365.59999389648436,107.60000152587891,365.59999389648436,103.5000015258789C365.59999389648436,99.30000152587891,362.09999389648436,95.9000015258789,358.0000038964844,95.9000015258789C353.7999838964844,95.9000015258789,350.3999938964844,99.4000015258789,350.3999938964844,103.5000015258789C350.3999938964844,107.80000152587891,353.7000138964844,111.10000152587891,358.0000038964844,111.10000152587891ZM358.0000038964844,98.10000152587891C360.8999938964844,98.10000152587891,363.3999938964844,100.5000015258789,363.3999938964844,103.5000015258789C363.3999938964844,106.4000015258789,360.9999938964844,108.9000015258789,358.0000038964844,108.9000015258789C355.1000038964844,108.9000015258789,352.6000038964844,106.5000015258789,352.6000038964844,103.5000015258789C352.5000038964844,100.5000015258789,354.8999938964844,98.10000152587891,358.0000038964844,98.10000152587891Z" fill="#000000" fill-opacity="1" style="mix-blend-mode:passthrough"/></g></g><g><g><path d="M429.39999,110.09999542236328C432.29999,110.09999542236328,434.8,107.69999542236329,434.8,104.69999542236329C434.8,101.79999542236328,432.39999,99.29999542236328,429.39999,99.29999542236328C426.5,99.29999542236328,424,101.69999542236329,424,104.69999542236329C424,107.59999542236328,426.5,110.09999542236328,429.39999,110.09999542236328ZM429.39999,101.40000542236328C431.10001,101.40000542236328,432.69998,102.80000542236328,432.69998,104.70000542236328C432.69998,106.40000542236328,431.29999,108.00000542236329,429.39999,108.00000542236329C427.69998,108.00000542236329,426.10001,106.60000542236328,426.10001,104.70000542236328C426.10001,102.80000542236328,427.70001,101.40000542236328,429.39999,101.40000542236328Z" fill="#000000" fill-opacity="1" style="mix-blend-mode:passthrough"/></g></g></g></g><g><g><g><g><path d="M564.7999877929688,876.2000077929688C564.7999877929688,878.6000377929688,566.7000077929688,880.6000377929688,569.2000077929688,880.6000377929688C571.6000377929688,880.6000377929688,573.6000377929688,878.7000077929688,573.6000377929688,876.2000077929688C573.6000377929688,873.7999877929688,571.7000077929688,871.7999877929688,569.2000077929688,871.7999877929688C566.7000077929688,871.9000247929688,564.7999877929688,873.7999877929688,564.7999877929688,876.2000077929688ZM571.2000077929688,876.2000077929688C571.2000077929688,877.4000277929688,570.2000077929688,878.4999977929688,568.9000277929688,878.4999977929688C567.7000077929688,878.4999977929688,566.6000377929688,877.4999977929688,566.6000377929688,876.2000077929688C566.6000377929688,874.9999977929688,567.6000377929688,873.9000277929688,568.9000277929688,873.9000277929688C570.2000077929688,873.9999977929688,571.2000077929688,874.9999977929688,571.2000077929688,876.2000077929688Z" fill="#000000" fill-opacity="1" style="mix-blend-mode:passthrough"/></g></g><g><g><path d="M558.099971171875,871.9000244140625C555.699951171875,871.9000244140625,553.699951171875,873.8000444140625,553.699951171875,876.3000444140625C553.699951171875,878.7000744140626,555.599971171875,880.7000744140626,558.099971171875,880.7000744140626C560.599971171875,880.7000744140626,562.500001171875,878.8000444140625,562.500001171875,876.3000444140625C562.500001171875,873.7999844140625,560.599971171875,871.9000244140625,558.099971171875,871.9000244140625ZM558.099971171875,878.5000044140625C556.899961171875,878.5000044140625,555.799991171875,877.5000044140625,555.799991171875,876.2000144140625C555.799991171875,875.0000044140625,556.799991171875,873.9000244140625,558.099971171875,873.9000244140625C559.299991171875,873.9000244140625,560.399961171875,874.9000244140625,560.399961171875,876.2000144140625C560.400021171875,877.5000044140625,559.400021171875,878.5000044140625,558.099971171875,878.5000044140625Z" fill="#000000" fill-opacity="1" style="mix-blend-mode:passthrough"/></g></g><g><g><path d="M541.9000366210937,875.2000122070312L508.10003662109375,875.2000122070312C507.60003662109375,875.2000122070312,507.10003662109375,875.7000122070312,507.10003662109375,876.2000122070312C507.10003662109375,876.7000122070312,507.60003662109375,877.2000122070312,508.10003662109375,877.2000122070312L541.9000366210937,877.2000122070312C542.4000366210937,877.2000122070312,542.9000366210937,876.7000122070312,542.9000366210937,876.2000122070312C543.0000366210937,875.7000122070312,542.5000366210937,875.2000122070312,541.9000366210937,875.2000122070312Z" fill="#000000" fill-opacity="1" style="mix-blend-mode:passthrough"/></g></g><g><g><path d="M564.7999877929688,851.099971171875C564.7999877929688,853.500001171875,566.7000077929688,855.500001171875,569.2000077929688,855.500001171875C571.6000377929688,855.500001171875,573.6000377929688,853.599971171875,573.6000377929688,851.099971171875C573.6000377929688,848.599971171875,571.7000077929688,846.699951171875,569.2000077929688,846.699951171875C566.7000077929688,846.799988171875,564.7999877929688,848.700011171875,564.7999877929688,851.099971171875ZM571.2000077929688,851.099971171875C571.2000077929688,852.299991171875,570.2000077929688,853.399961171875,568.9000277929688,853.399961171875C567.7000077929688,853.399961171875,566.6000377929688,852.399961171875,566.6000377929688,851.099971171875C566.6000377929688,849.899961171875,567.6000377929688,848.799991171875,568.9000277929688,848.799991171875C570.2000077929688,848.900021171875,571.2000077929688,849.900021171875,571.2000077929688,851.099971171875Z" fill="#000000" fill-opacity="1" style="mix-blend-mode:passthrough"/></g></g><g><g><path d="M558.099971171875,846.7999877929688C555.699951171875,846.7999877929688,553.699951171875,848.7000077929688,553.699951171875,851.2000077929688C553.699951171875,853.7000077929688,555.599971171875,855.6000377929688,558.099971171875,855.6000377929688C560.599971171875,855.6000377929688,562.500001171875,853.7000077929688,562.500001171875,851.2000077929688C562.500001171875,848.7000077929688,560.599971171875,846.7999877929688,558.099971171875,846.7999877929688ZM558.099971171875,853.4000277929688C556.899961171875,853.4000277929688,555.799991171875,852.4000277929688,555.799991171875,851.1000377929688C555.799991171875,849.9000277929688,556.799991171875,848.8000477929687,558.099971171875,848.8000477929687C559.299991171875,848.8000477929687,560.399961171875,849.8000477929687,560.399961171875,851.1000377929688C560.400021171875,852.4000277929688,559.400021171875,853.4000277929688,558.099971171875,853.4000277929688Z" fill="#000000" fill-opacity="1" style="mix-blend-mode:passthrough"/></g></g><g><g><path d="M541.9000366210937,850.0999755859375L508.10003662109375,850.0999755859375C507.60003662109375,850.0999755859375,507.10003662109375,850.5999755859375,507.10003662109375,851.0999755859375C507.10003662109375,851.5999755859375,507.60003662109375,852.0999755859375,508.10003662109375,852.0999755859375L541.9000366210937,852.0999755859375C542.4000366210937,852.0999755859375,542.9000366210937,851.5999755859375,542.9000366210937,851.0999755859375C543.0000366210937,850.5999755859375,542.5000366210937,850.0999755859375,541.9000366210937,850.0999755859375Z" fill="#000000" fill-opacity="1" style="mix-blend-mode:passthrough"/></g></g><g><g><path d="M564.7999877929688,826.2000077929688C564.7999877929688,828.6000377929688,566.7000077929688,830.6000377929688,569.2000077929688,830.6000377929688C571.6000377929688,830.6000377929688,573.6000377929688,828.7000077929688,573.6000377929688,826.2000077929688C573.6000377929688,823.7000077929688,571.7000077929688,821.7999877929688,569.2000077929688,821.7999877929688C566.7000077929688,821.9000247929688,564.7999877929688,823.7999877929688,564.7999877929688,826.2000077929688ZM571.2000077929688,826.2000077929688C571.2000077929688,827.4000277929688,570.2000077929688,828.4999977929688,568.9000277929688,828.4999977929688C567.7000077929688,828.4999977929688,566.6000377929688,827.4999977929688,566.6000377929688,826.2000077929688C566.6000377929688,824.9999977929688,567.6000377929688,823.9000277929688,568.9000277929688,823.9000277929688C570.2000077929688,823.9999977929688,571.2000077929688,824.9999977929688,571.2000077929688,826.2000077929688Z" fill="#000000" fill-opacity="1" style="mix-blend-mode:passthrough"/></g></g><g><g><path d="M558.099971171875,821.9000244140625C555.699951171875,821.9000244140625,553.699951171875,823.8000444140625,553.699951171875,826.3000444140625C553.699951171875,828.8000444140625,555.599971171875,830.7000744140626,558.099971171875,830.7000744140626C560.599971171875,830.7000744140626,562.500001171875,828.8000444140625,562.500001171875,826.3000444140625C562.500001171875,823.8000444140625,560.599971171875,821.9000244140625,558.099971171875,821.9000244140625ZM558.099971171875,828.2999844140625C556.899961171875,828.2999844140625,555.799991171875,827.2999844140625,555.799991171875,826.0000044140625C555.799991171875,824.7999844140625,556.799991171875,823.7000144140625,558.099971171875,823.7000144140625C559.299991171875,823.7000144140625,560.399961171875,824.7000144140625,560.399961171875,826.0000044140625C560.400021171875,827.2999844140625,559.400021171875,828.2999844140625,558.099971171875,828.2999844140625Z" fill="#000000" fill-opacity="1" style="mix-blend-mode:passthrough"/></g></g><g><g><path d="M541.9000366210937,825L508.10003662109375,825C507.60003662109375,825,507.10003662109375,825.5,507.10003662109375,826C507.10003662109375,826.5,507.60003662109375,827,508.10003662109375,827L541.9000366210937,827C542.4000366210937,827,542.9000366210937,826.5,542.9000366210937,826C543.0000366210937,825.5,542.5000366210937,825,541.9000366210937,825Z" fill="#000000" fill-opacity="1" style="mix-blend-mode:passthrough"/></g></g><g><g><path d="M573.7000061035156,790.2000122070312L506.9999961035156,790.2000122070312C503.9999961035156,790.2000122070312,501.6000061035156,792.6000322070313,501.6000061035156,795.6000322070313L501.6000061035156,806.8000122070313C501.6000061035156,809.8000122070313,503.9999961035156,812.2001122070312,506.9999961035156,812.2001122070312L509.2999861035156,812.2001122070312L509.2999861035156,815.3000122070313L506.9999961035156,815.3000122070313C503.9999961035156,815.3000122070313,501.6000061035156,817.7001122070312,501.6000061035156,820.7001122070312L501.6000061035156,831.9001122070313C501.6000061035156,834.9001122070313,503.9999961035156,837.3001122070312,506.9999961035156,837.3001122070312L509.2999861035156,837.3001122070312L509.2999861035156,840.6001122070312L506.9999961035156,840.6001122070312C503.9999961035156,840.6001122070312,501.6000061035156,843.0001122070313,501.6000061035156,846.0001122070313L501.6000061035156,857.2001122070312C501.6000061035156,860.2001122070312,503.9999961035156,862.6001122070312,506.9999961035156,862.6001122070312L509.2999861035156,862.6001122070312L509.2999861035156,865.9001122070313L506.9999961035156,865.9001122070313C503.9999961035156,865.9001122070313,501.6000061035156,868.3002122070312,501.6000061035156,871.3002122070312L501.6000061035156,882.5002122070313C501.6000061035156,885.5002122070313,503.9999961035156,887.9002122070312,506.9999961035156,887.9002122070312L509.2999861035156,887.9002122070312L509.2999861035156,892.3000122070313C509.2999861035156,892.8000122070313,509.7999861035156,893.3000122070313,510.2999861035156,893.3000122070313L570.2000061035156,893.3000122070313C570.7000061035156,893.3000122070313,571.2000061035156,892.8000122070313,571.2000061035156,892.3000122070313L571.2000061035156,887.9002122070312L573.5000061035156,887.9002122070312C576.5000061035156,887.9002122070312,578.9000061035156,885.5002122070313,578.9000061035156,882.5002122070313L578.9000061035156,871.3002122070312C578.9000061035156,868.3002122070312,576.5000061035156,865.9001122070313,573.5000061035156,865.9001122070313L571.2000061035156,865.9001122070313L571.2000061035156,862.6001122070312L573.5000061035156,862.6001122070312C576.5000061035156,862.6001122070312,578.9000061035156,860.2001122070312,578.9000061035156,857.2001122070312L578.9000061035156,846.0001122070313C578.9000061035156,843.0001122070313,576.5000061035156,840.6001122070312,573.5000061035156,840.6001122070312L571.2000061035156,840.6001122070312L571.2000061035156,837.3001122070312L573.5000061035156,837.3001122070312C576.5000061035156,837.3001122070312,578.9000061035156,834.9001122070313,578.9000061035156,831.9001122070313L578.9000061035156,820.7001122070312C578.9000061035156,817.7001122070312,576.5000061035156,815.3000122070313,573.5000061035156,815.3000122070313L571.2000061035156,815.3000122070313L571.2000061035156,812.0000122070312L573.5000061035156,812.0000122070312C576.5000061035156,812.0000122070312,578.9000061035156,809.6000122070312,578.9000061035156,806.6000122070312L578.9000061035156,795.4000222070313C578.9000061035156,792.5999722070312,576.4000061035156,790.2000122070312,573.7000061035156,790.2000122070312ZM569.1000061035156,890.3000122070313L511.3999661035156,890.3000122070313L511.3999661035156,887.0000122070312L569.1000061035156,887.0000122070312L569.1000061035156,890.3000122070313ZM576.8000061035157,870.7000122070312L576.8000061035157,881.9000122070313C576.8000061035157,883.6000122070312,575.4000061035156,885.0000122070312,573.7000061035156,885.0000122070312C571.4000061035156,885.0000122070312,510.1000061035156,885.0000122070312,506.9999961035156,885.0000122070312C505.2999861035156,885.0000122070312,503.8999961035156,883.6000122070312,503.8999961035156,881.9000122070313L503.8999961035156,870.7000122070312C503.8999961035156,869.0000122070312,505.2999861035156,867.6000122070312,506.9999961035156,867.6000122070312C509.3999961035156,867.6000122070312,567.8000061035157,867.6000122070312,573.7000061035156,867.6000122070312C575.2000061035156,867.5000122070312,576.8000061035157,868.9000122070313,576.8000061035157,870.7000122070312ZM569.1000061035156,865.4000122070313L511.3999661035156,865.4000122070313L511.3999661035156,862.1000122070312L569.1000061035156,862.1000122070312L569.1000061035156,865.4000122070313ZM576.8000061035157,845.6000122070312L576.8000061035157,856.8000122070313C576.8000061035157,858.5000122070312,575.4000061035156,859.9000122070313,573.7000061035156,859.9000122070313C571.3000061035157,859.9000122070313,512.9000061035156,859.9000122070313,506.9999961035156,859.9000122070313C505.2999861035156,859.9000122070313,503.8999961035156,858.4999122070312,503.8999961035156,856.8000122070313L503.8999961035156,845.6000122070312C503.8999961035156,843.9000122070313,505.2999861035156,842.5000122070312,506.9999961035156,842.5000122070312C509.2999861035156,842.5000122070312,570.6000061035156,842.5000122070312,573.7000061035156,842.5000122070312C575.2000061035156,842.4000122070313,576.8000061035157,843.8000122070313,576.8000061035157,845.6000122070312ZM569.1000061035156,840.3000122070313L511.3999661035156,840.3000122070313L511.3999661035156,837.0000122070312L569.1000061035156,837.0000122070312L569.1000061035156,840.3000122070313ZM576.8000061035157,820.7000122070312L576.8000061035157,831.9000122070313C576.8000061035157,833.6000122070312,575.4000061035156,835.0000122070312,573.7000061035156,835.0000122070312C571.4000061035156,835.0000122070312,510.1000061035156,835.0000122070312,506.9999961035156,835.0000122070312C505.2999861035156,835.0000122070312,503.8999961035156,833.6000122070312,503.8999961035156,831.9000122070313L503.8999961035156,820.7000122070312C503.8999961035156,819.0000122070312,505.2999861035156,817.6000122070312,506.9999961035156,817.6000122070312C509.2999861035156,817.6000122070312,570.6000061035156,817.6000122070312,573.7000061035156,817.6000122070312C575.2000061035156,817.5000122070312,576.8000061035157,818.9000122070313,576.8000061035157,820.7000122070312ZM569.1000061035156,815.2000122070312L511.3999661035156,815.2000122070312L511.3999661035156,811.9000122070313L569.1000061035156,811.9000122070313L569.1000061035156,815.2000122070312ZM576.8000061035157,806.7000122070312C576.8000061035157,808.4000122070313,575.4000061035156,809.8000122070313,573.7000061035156,809.8000122070313C571.3000061035157,809.8000122070313,512.9000061035156,809.8000122070313,506.9999961035156,809.8000122070313C505.2999861035156,809.8000122070313,503.8999961035156,808.4000122070313,503.8999961035156,806.7000122070312L503.8999961035156,795.5000022070312C503.8999961035156,793.7999922070312,505.2999861035156,792.4000222070313,506.9999961035156,792.4000222070313L573.7000061035156,792.4000222070313C575.4000061035156,792.4000222070313,576.8000061035157,793.8000522070313,576.8000061035157,795.5000022070312L576.8000061035157,806.7000122070312Z" fill="#000000" fill-opacity="1" style="mix-blend-mode:passthrough"/></g></g><g><g><path d="M569.099971171875,796.7999877929688C566.699951171875,796.7999877929688,564.699951171875,798.7000077929688,564.699951171875,801.2000077929688C564.699951171875,803.6000377929688,566.599971171875,805.6000377929688,569.099971171875,805.6000377929688C571.500001171875,805.6000377929688,573.500001171875,803.7000077929688,573.500001171875,801.2000077929688C573.500001171875,798.7000077929688,571.599971171875,796.7999877929688,569.099971171875,796.7999877929688ZM569.099971171875,803.2000077929688C567.899961171875,803.2000077929688,566.799991171875,802.2000077929688,566.799991171875,800.9000277929688C566.799991171875,799.7000077929688,567.799991171875,798.6000377929688,569.099971171875,798.6000377929688C570.299991171875,798.6000377929688,571.399961171875,799.6000377929688,571.399961171875,800.9000277929688C571.200011171875,802.4000277929688,570.299991171875,803.2000077929688,569.099971171875,803.2000077929688Z" fill="#000000" fill-opacity="1" style="mix-blend-mode:passthrough"/></g></g><g><g><path d="M558.099971171875,796.7999877929688C555.699951171875,796.7999877929688,553.699951171875,798.7000077929688,553.699951171875,801.2000077929688C553.699951171875,803.6000377929688,555.599971171875,805.6000377929688,558.099971171875,805.6000377929688C560.599971171875,805.6000377929688,562.500001171875,803.7000077929688,562.500001171875,801.2000077929688C562.500001171875,798.7000077929688,560.599971171875,796.7999877929688,558.099971171875,796.7999877929688ZM558.099971171875,803.2000077929688C556.899961171875,803.2000077929688,555.799991171875,802.2000077929688,555.799991171875,800.9000277929688C555.799991171875,799.7000077929688,556.799991171875,798.6000377929688,558.099971171875,798.6000377929688C559.299991171875,798.6000377929688,560.399961171875,799.6000377929688,560.399961171875,800.9000277929688C560.400021171875,802.4000277929688,559.400021171875,803.2000077929688,558.099971171875,803.2000077929688Z" fill="#000000" fill-opacity="1" style="mix-blend-mode:passthrough"/></g></g><g><g><path d="M541.9000366210937,800.0999755859375L508.10003662109375,800.0999755859375C507.60003662109375,800.0999755859375,507.10003662109375,800.5999755859375,507.10003662109375,801.0999755859375C507.10003662109375,801.5999755859375,507.60003662109375,802.0999755859375,508.10003662109375,802.0999755859375L541.9000366210937,802.0999755859375C542.4000366210937,802.0999755859375,542.9000366210937,801.5999755859375,542.9000366210937,801.0999755859375C543.0000366210937,800.4000245859374,542.5000366210937,800.0999755859375,541.9000366210937,800.0999755859375Z" fill="#000000" fill-opacity="1" style="mix-blend-mode:passthrough"/></g></g><g><g><path d="M493.9999961035156,859.9000244140625C490.9999961035156,859.9000244140625,488.6000061035156,862.3000444140625,488.6000061035156,865.3000444140625C488.6000061035156,868.3000444140625,490.9999961035156,870.7000244140625,493.9999961035156,870.7000244140625C496.9999961035156,870.7000244140625,499.40000610351564,868.3000444140625,499.40000610351564,865.3000444140625C499.40000610351564,862.2999844140625,496.9999961035156,859.9000244140625,493.9999961035156,859.9000244140625ZM493.9999961035156,868.5999744140624C492.2999861035156,868.5999744140624,490.7000161035156,867.1999544140625,490.7000161035156,865.2999844140625C490.7000161035156,863.5999744140624,492.1000061035156,862.0000044140625,493.9999961035156,862.0000044140625C495.8999961035156,862.0000044140625,497.2999861035156,863.4000244140625,497.2999861035156,865.2999844140625C497.2000161035156,867.2000144140625,495.7999861035156,868.5999744140624,493.9999961035156,868.5999744140624Z" fill="#000000" fill-opacity="1" style="mix-blend-mode:passthrough"/></g></g><g><g><path d="M585.4999955859375,814.2000122070312C583.0999755859375,814.2000122070312,581.0999755859375,816.1000322070313,581.0999755859375,818.6000322070313C581.0999755859375,821.0000622070313,582.9999955859375,823.0000622070313,585.4999955859375,823.0000622070313C587.9000255859376,823.0000622070313,589.9000255859376,821.1000322070313,589.9000255859376,818.6000322070313C589.9000255859376,816.0999722070312,587.7999855859375,814.2000122070312,585.4999955859375,814.2000122070312ZM585.4999955859375,820.7000122070312C584.2999855859375,820.7000122070312,583.2000155859375,819.7000122070312,583.2000155859375,818.4000222070313C583.2000155859375,817.2000122070312,584.2000155859375,816.1000322070313,585.4999955859375,816.1000322070313C586.7000155859375,816.1000322070313,587.7999855859375,817.1000322070313,587.7999855859375,818.4000222070313C587.5999755859375,819.7999922070312,586.7000155859375,820.7000122070312,585.4999955859375,820.7000122070312Z" fill="#000000" fill-opacity="1" style="mix-blend-mode:passthrough"/></g></g><g><g><path d="M586.0000044140625,804.4000244140625C586.9000244140625,804.4000244140625,587.5999744140624,805.1000364140625,587.5999744140624,806.0000044140625C587.5999744140624,806.9000244140625,586.8999644140625,807.5999744140624,586.0000044140625,807.5999744140624C585.0999754140626,807.5999744140624,584.4000244140625,806.8999644140625,584.4000244140625,806.0000044140625C584.5000000140625,805.0999754140626,585.2000124140625,804.4000244140625,586.0000044140625,804.4000244140625Z" fill="#000000" fill-opacity="1" style="mix-blend-mode:passthrough"/></g></g><g><g><path d="M582.7000166210937,836C583.6000366210938,836,584.2999866210937,836.700012,584.2999866210937,837.59998C584.2999866210937,838.5,583.5999766210938,839.19995,582.7000166210937,839.19995C581.7999876210938,839.19995,581.1000366210938,838.49994,581.1000366210938,837.59998C581.0999755858937,836.700012,581.7999876210938,836,582.7000166210937,836Z" fill="#000000" fill-opacity="1" style="mix-blend-mode:passthrough"/></g></g><g><g><path d="M584.7999922070312,860C585.7000122070312,860,586.3999622070312,860.700012,586.3999622070312,861.59998C586.3999622070312,862.5,585.6999522070313,863.19995,584.7999922070312,863.19995C583.8999632070313,863.19995,583.2000122070312,862.49994,583.2000122070312,861.59998C583.2000122070312,860.700012,583.9000242070313,860,584.7999922070312,860Z" fill="#000000" fill-opacity="1" style="mix-blend-mode:passthrough"/></g></g><g><g><path d="M492.2999916894531,797.7999877929688C493.1999816894531,797.7999877929688,493.89999168945315,798.4999997929688,493.89999168945315,799.3999677929687C493.89999168945315,800.2999877929688,493.1999816894531,800.9999377929687,492.2999916894531,800.9999377929687C491.39999368945314,800.9999377929687,490.6999816894531,800.2999277929688,490.6999816894531,799.3999677929687C490.70001220705313,798.4999997929688,491.39999368945314,797.7999877929688,492.2999916894531,797.7999877929688Z" fill="#000000" fill-opacity="1" style="mix-blend-mode:passthrough"/></g></g><g><g><path d="M497.89999779296875,825.2000122070312C498.79998779296875,825.2000122070312,499.49999779296877,825.9000242070313,499.49999779296877,826.7999922070312C499.49999779296877,827.7000122070312,498.79998779296875,828.3999622070312,497.89999779296875,828.3999622070312C496.99999979296877,828.3999622070312,496.29998779296875,827.6999522070313,496.29998779296875,826.7999922070312C496.29998779296875,825.9000242070313,496.99999979296877,825.2000122070312,497.89999779296875,825.2000122070312Z" fill="#000000" fill-opacity="1" style="mix-blend-mode:passthrough"/></g></g><g><g><path d="M495.60001,849.0999755859375C496.5,849.0999755859375,497.20001,849.7999875859375,497.20001,850.6999555859375C497.20001,851.5999755859375,496.5,852.2999255859374,495.60001,852.2999255859374C494.700012,852.2999255859374,494,851.5999155859375,494,850.6999555859375C494,849.7999875859375,494.700012,849.0999755859375,495.60001,849.0999755859375Z" fill="#000000" fill-opacity="1" style="mix-blend-mode:passthrough"/></g></g><g><g><path d="M496.60001,877.5C497.5,877.5,498.20001,878.200012,498.20001,879.09998C498.20001,880,497.5,880.69995,496.60001,880.69995C495.700012,880.69995,495,879.99994,495,879.09998C495.100006,878.200012,495.799988,877.5,496.60001,877.5Z" fill="#000000" fill-opacity="1" style="mix-blend-mode:passthrough"/></g></g></g></g></g></svg>