<svg xmlns="http://www.w3.org/2000/svg" xmlns:xlink="http://www.w3.org/1999/xlink" fill="none" version="1.1" width="84.590087890625" height="84.58999633789062" viewBox="0 0 84.590087890625 84.58999633789062"><g><g><path d="M67.84,84.59L16.75,84.59C7.5,84.59,0,77.09,0,67.84L0,16.75C0,7.5,7.5,0,16.75,0L67.84,0C77.09,0,84.59,7.5,84.59,16.75L84.59,67.84C84.59,77.09,77.09,84.59,67.84,84.59Z" fill="#EA6000" fill-opacity="1" style="mix-blend-mode:passthrough"/></g><g><path d="M12.630002149963378,27.299999389648438L17.18000214996338,27.299999389648438C18.900002149963377,27.299999389648438,20.29995214996338,28.69999938964844,20.29995214996338,30.41999938964844L20.29995214996338,66.86999938964843C20.29995214996338,68.58999938964844,21.69995214996338,69.98999938964843,23.41995214996338,69.98999938964843L31.02995214996338,69.98999938964843C32.74995214996338,69.98999938964843,34.14995214996338,68.58999938964844,34.14995214996338,66.86999938964843L34.14995214996338,19.25999938964844C34.14995214996338,17.539999389648436,32.74995214996338,16.139999389648438,31.02995214996338,16.139999389648438L14.23000214996338,16.139999389648438C12.880002149963378,16.139999389648438,11.680002149963379,17.010000389648436,11.260002149963379,18.299999389648438L9.65999914996338,23.219999389648436C9.010000149963378,25.229999389648437,10.510002149963379,27.299999389648438,12.630002149963378,27.299999389648438Z" fill="#FFFFFF" fill-opacity="1" style="mix-blend-mode:passthrough"/></g><g></g><g><path d="M44.00999849902344,64.94000244140625L43.61999849902344,65.95000244140626C42.81999949902344,67.87000244140626,44.23999749902344,69.99000244140625,46.32000149902344,69.99000244140625L53.569961499023435,69.99000244140625C54.75996149902344,69.99000244140625,55.819961499023435,69.27000244140625,56.26996149902344,68.18001244140625L57.51996149902344,64.94001007079625L44.00999849902344,64.94000244140625Z" fill="#FFFFFF" fill-opacity="1" style="mix-blend-mode:passthrough"/></g><g><path d="M72.16003540039063,16.139999389648438L40.429995400390624,16.139999389648438C38.380001400390626,16.139999389648438,36.97000140039062,18.199999389648436,37.70000040039063,20.109999389648436L39.749995400390624,25.429999389648437C40.179995400390624,26.55999938964844,41.27000540039062,27.299999389648438,42.47999540039063,27.299999389648438L54.12003540039062,27.299999389648438C56.200035400390625,27.299999389648438,57.62003540039062,29.41999938964844,56.82003540039062,31.339999389648437L49.04003540039062,51.73999938964844L62.64003540039063,51.73999938964844L74.86003540039061,20.16999938964844C75.65003540039064,18.23999938964844,74.24003540039062,16.139999389648438,72.16003540039063,16.139999389648438Z" fill="#FFFFFF" fill-opacity="1" style="mix-blend-mode:passthrough"/></g><g><path d="M72.3200080871582,53.720001223867186L70.0200080871582,58.96999671386719L68.7400080871582,53.720001223867186L66.0000080871582,53.720001223867186L63.440008087158205,59.580006713867185C63.53000808715821,59.21999671386719,63.5700080871582,58.85000671386719,63.5700080871582,58.46999671386719C63.5700080871582,55.85000671386719,61.440008087158205,53.720001223867186,58.8200080871582,53.720001223867186C56.2000080871582,53.720001223867186,54.0700080871582,55.85000671386719,54.0700080871582,58.46999671386719C54.0700080871582,60.60999671386719,52.3100080871582,62.33999671386719,50.1700080871582,62.33999671386719C48.0300080871582,62.33999671386719,46.2999980871582,60.60999671386719,46.2999980871582,58.46999671386719C46.2999980871582,56.330006713867185,48.0300080871582,54.600002713867184,50.1700080871582,54.600002713867184C51.720008087158206,54.600002713867184,53.050008087158204,55.510006713867185,53.6700080871582,56.82000671386719C53.78000808715821,56.470006713867186,53.9300080871582,56.13000671386719,54.1000080871582,55.81000671386719C53.25000808715821,54.55000671386719,51.800008087158204,53.72000503386719,50.160008087158204,53.72000503386719C47.5400080871582,53.72000503386719,45.4099980871582,55.85000671386719,45.4099980871582,58.470006713867186C45.4099980871582,58.720006713867186,45.429998087158204,58.970006713867186,45.4699980871582,59.21000671386719C45.4099980871582,59.040006713867186,45.33999808715821,58.870006713867184,45.239998087158206,58.71000671386719C44.999998087158204,58.31000671386719,44.6099980871582,57.970006713867186,44.0700080871582,57.690006713867184C43.529998087158205,57.42000671386719,42.650008087158206,57.150006713867185,41.410008087158204,56.88000671386719C40.910008087158204,56.78000671386719,40.5900080871582,56.66000671386719,40.459998087158205,56.540006713867186C40.3200080871582,56.42000671386719,40.2500080871582,56.290006713867186,40.2500080871582,56.150006713867185C40.2500080871582,55.95000671386719,40.330008087158205,55.78000671386719,40.5000080871582,55.64000671386719C40.669998087158206,55.50000671386719,40.919998087158206,55.430006713867186,41.2500080871582,55.430006713867186C41.650008087158206,55.430006713867186,41.959998087158205,55.52000671386719,42.1899980871582,55.71000671386719C42.419998087158206,55.900006713867185,42.5700080871582,56.20000671386719,42.6400080871582,56.610006713867186L45.3100080871582,56.45000671386719C45.190008087158205,55.50000671386719,44.830008087158205,54.80000671386719,44.2100080871582,54.37001071386719C43.5900080871582,53.93001171386719,42.7000080871582,53.72000881386719,41.5300080871582,53.72000881386719C40.5700080871582,53.72000881386719,39.8200080871582,53.84000771386719,39.2700080871582,54.080009713867184C38.720008087158206,54.32001071386719,38.3100080871582,54.65000871386719,38.040008087158206,55.07000671386719C37.7700080871582,55.49000671386719,37.6300090871582,55.940006713867184,37.6300090871582,56.41000671386719C37.6300090871582,57.130016713867185,37.9000090871582,57.72001671386719,38.4300080871582,58.18001671386719C38.9600080871582,58.64000671386719,39.8500080871582,59.020016713867186,41.0900080871582,59.29001671386719C41.8500080871582,59.46000671386719,42.330008087158205,59.630016713867185,42.5400080871582,59.82000671386719C42.75000808715821,60.010006713867185,42.8500080871582,60.22001671386719,42.8500080871582,60.46000671386719C42.8500080871582,60.71000671386719,42.7400080871582,60.93001671386719,42.5200080871582,61.120006713867184C42.300008087158204,61.31000671386719,41.9900080871582,61.400006713867185,41.580008087158205,61.400006713867185C41.040008087158206,61.400006713867185,40.620008087158205,61.21000671386719,40.330008087158205,60.84000671386719C40.150008087158206,60.610006713867186,40.0300080871582,60.28000671386719,39.970008087158206,59.84000671386719L37.2700080871582,60.010006713867185C37.3500098871582,60.94000671386719,37.6900060871582,61.70000671386719,38.290008087158206,62.30000671386719C38.8900080871582,62.900006713867185,39.970008087158206,63.20000671386719,41.5300080871582,63.20000671386719C42.4200080871582,63.20000671386719,43.160008087158204,63.07000671386719,43.7400080871582,62.81000671386719C44.3200080871582,62.55000671386719,44.7800080871582,62.180006713867186,45.11000808715821,61.680006713867186C45.440008087158205,61.180006713867186,45.6000080871582,60.64000671386719,45.6000080871582,60.05000671386719C45.6000080871582,59.94000671386719,45.5900080871582,59.830006713867185,45.580008087158205,59.73000671386718C46.1400080871582,61.73000671386718,47.970008087158206,63.20000671386719,50.150008087158206,63.20000671386719C52.0700080871582,63.20000671386719,53.730008087158204,62.06000671386719,54.470008087158206,60.41000671386719C55.220008087158206,62.05000671386719,56.870008087158205,63.20000671386719,58.7900080871582,63.20000671386719C60.440008087158205,63.20000671386719,61.8800080871582,62.360006713867186,62.7400080871582,61.09000671386719L61.8200080871582,63.20000671386719L64.5800080871582,63.20000671386719L66.8600080871582,57.99000671386719L68.1300080871582,63.20000671386719L70.9000080871582,63.20000671386719L75.0600080871582,53.71000671386719L72.3200080871582,53.71000671386719L72.3200080871582,53.720001223867186ZM58.830008087158205,62.33999671386719C56.690008087158205,62.33999671386719,54.9600080871582,60.60999671386719,54.9600080871582,58.46999671386719C54.9600080871582,56.330006713867185,56.690008087158205,54.600002713867184,58.830008087158205,54.600002713867184C60.970008087158206,54.600002713867184,62.7000080871582,56.330006713867185,62.7000080871582,58.46999671386719C62.7000080871582,60.60999671386719,60.9600080871582,62.33999671386719,58.830008087158205,62.33999671386719Z" fill="#FFFFFF" fill-opacity="1" style="mix-blend-mode:passthrough"/></g></g></svg>