<svg xmlns="http://www.w3.org/2000/svg" xmlns:xlink="http://www.w3.org/1999/xlink" fill="none" version="1.1" width="359.29998779296875" height="90" viewBox="0 0 359.29998779296875 90"><defs><clipPath id="master_svg0_14_145"><rect x="0" y="0" width="359.29998779296875" height="90" rx="0"/></clipPath></defs><g clip-path="url(#master_svg0_14_145)"><g><g><g><path d="M18.7,31L18.7,53.4L21.1,53.4L21.1,59.2L18.7,59.2L18.7,65.2L10.1,65.2L10.1,59.2L0,59.2L0,53.4L7.4,31L18.7,31ZM10.2,53.4L10.2,38.8L6.4,53.4L10.2,53.4Z" fill="#F29B12" fill-opacity="1" style="mix-blend-mode:passthrough"/></g><g><path d="M43.1,42.600002670288085L43.1,54.00000267028808C43.1,56.600002670288085,43,58.50000267028808,42.7,59.700002670288086C42.4,60.90000267028809,41.8,62.00000267028808,41,63.00000267028808C40.1,64.00000267028808,39,64.80000267028808,37.8,65.20000267028809C36.5,65.70000267028809,35.1,65.90000267028809,33.6,65.90000267028809C31.6,65.90000267028809,29.8,65.70000267028809,28.5,65.20000267028809C27.1,64.70000267028809,26,64.00000267028808,25.2,63.00000267028808C24.4,62.00000267028808,23.800001,60.90000267028809,23.5,59.80000267028809C23.200001,58.700002670288086,23,56.90000267028809,23,54.50000267028808L23,42.50000267028808C23,39.30000267028809,23.299999,37.00000267028808,23.799999,35.40000267028809C24.3,33.80000267028809,25.4,32.600002670288085,27,31.600002670288085C28.6,30.700002670288086,30.6,30.200002670288086,32.9,30.200002670288086C34.8,30.200002670288086,36.5,30.500001670288086,37.9,31.200002670288086C39.4,31.900002670288085,40.5,32.700002670288086,41.2,33.600002670288085C41.9,34.50000267028808,42.4,35.600002670288085,42.7,36.80000267028809C43,38.00000267028808,43.1,40.00000267028808,43.1,42.600002670288085ZM34.6,39.700002670288086C34.6,37.90000267028809,34.5,36.700002670288086,34.3,36.30000267028809C34.1,35.90000267028809,33.7,35.600002670288085,33.1,35.600002670288085C32.5,35.600002670288085,32,35.80000267028809,31.8,36.30000267028809C31.6,36.80000267028809,31.5,37.90000267028809,31.5,39.700002670288086L31.5,56.40000267028809C31.5,58.40000267028809,31.6,59.600002670288085,31.8,60.00000267028808C32,60.40000267028809,32.4,60.600002670288085,33,60.600002670288085C33.6,60.600002670288085,34.1,60.40000267028809,34.2,59.90000267028809C34.4,59.40000267028809,34.5,58.30000267028809,34.5,56.700002670288086L34.5,39.700002670288086L34.6,39.700002670288086Z" fill="#F29B12" fill-opacity="1" style="mix-blend-mode:passthrough"/></g><g><path d="M66.39999542236328,42.59999885559082L66.39999542236328,53.99999885559082C66.39999542236328,56.59999885559082,66.29999542236328,58.49999885559082,65.99999542236328,59.69999885559082C65.69999542236329,60.89999885559082,65.09999542236328,61.99999885559082,64.19999542236329,62.99999885559082C63.29999542236328,63.99999885559082,62.19999542236328,64.79999885559081,60.999995422363284,65.19999885559082C59.69999542236328,65.69999885559082,58.29999542236328,65.89999885559082,56.79999542236328,65.89999885559082C54.79999542236328,65.89999885559082,52.999995422363284,65.69999885559082,51.69999542236328,65.19999885559082C50.29999542236328,64.69999885559082,49.29999542236328,63.99999885559082,48.499995422363284,62.99999885559082C47.69999542236328,61.99999885559082,47.09999442236328,60.89999885559082,46.79999542236328,59.79999885559082C46.49999642236328,58.69999885559082,46.29999542236328,56.89999885559082,46.29999542236328,54.49999885559082L46.29999542236328,42.49999885559082C46.29999542236328,39.29999885559082,46.59999442236328,36.99999885559082,47.09999442236328,35.39999885559082C47.59999542236328,33.79999885559082,48.69999542236328,32.59999885559082,50.29999542236328,31.59999885559082C51.89999542236328,30.69999885559082,53.89999542236328,30.19999885559082,56.19999542236328,30.19999885559082C58.09999542236328,30.19999885559082,59.79999542236328,30.49999785559082,61.19999542236328,31.19999885559082C62.69999542236328,31.89999885559082,63.79999542236328,32.69999885559082,64.49999542236328,33.59999885559082C65.19999542236329,34.49999885559082,65.69999542236329,35.59999885559082,65.99999542236328,36.79999885559082C66.29999542236328,37.99999885559082,66.39999542236328,39.99999885559082,66.39999542236328,42.59999885559082ZM57.79999542236328,39.69999885559082C57.79999542236328,37.89999885559082,57.69999542236328,36.69999885559082,57.499995422363284,36.29999885559082C57.29999542236328,35.89999885559082,56.89999542236328,35.59999885559082,56.29999542236328,35.59999885559082C55.70000542236328,35.59999885559082,55.20000542236328,35.79999885559082,54.999995422363284,36.29999885559082C54.79999542236328,36.79999885559082,54.70000542236328,37.89999885559082,54.70000542236328,39.69999885559082L54.70000542236328,56.39999885559082C54.70000542236328,58.39999885559082,54.79999542236328,59.59999885559082,54.999995422363284,59.99999885559082C55.20000542236328,60.39999885559082,55.59999542236328,60.59999885559082,56.20000542236328,60.59999885559082C56.79999542236328,60.59999885559082,57.29999542236328,60.39999885559082,57.39999542236328,59.89999885559082C57.59999542236328,59.39999885559082,57.69999542236328,58.29999885559082,57.69999542236328,56.69999885559082L57.69999542236328,39.69999885559082L57.79999542236328,39.69999885559082Z" fill="#F29B12" fill-opacity="1" style="mix-blend-mode:passthrough"/></g><g><path d="M93.50000610351563,45.800001525878905C94.80000610351563,46.300001525878905,95.70000610351562,47.10000152587891,96.40000610351562,48.10000152587891C97.10000610351562,49.10000152587891,97.40000610351562,51.50000152587891,97.40000610351562,55.300001525878905C97.40000610351562,58.10000152587891,97.10000610351562,60.10000152587891,96.60000610351562,61.400001525878906C96.10000610351562,62.7000015258789,95.00000610351563,63.800001525878905,93.50000610351563,64.60000152587891C92.00000610351563,65.4000015258789,89.90000610351562,65.9000015258789,87.30000610351563,65.9000015258789C84.80000610351563,65.9000015258789,82.70000610351562,65.5000015258789,81.30000610351563,64.7000015258789C79.90000610351562,63.900001525878906,78.80000610351563,62.800001525878905,78.10000610351562,61.50000152587891C77.40000910351563,60.2000015258789,77.10000610351562,58.00000152587891,77.10000610351562,54.900001525878906C77.10000610351562,52.800001525878905,77.30000310351562,51.00000152587891,77.60000610351562,49.50000152587891C77.90000910351563,48.00000152587891,78.90000610351562,46.800001525878905,80.60000610351562,45.800001525878905C79.50000610351563,45.300001525878905,78.70000610351562,44.50000152587891,78.20000610351562,43.400001525878906C77.70000410351562,42.300001525878905,77.40000110351562,40.900001525878906,77.40000110351562,39.2000015258789C77.40000110351562,36.2000015258789,78.20000610351562,34.00000152587891,79.90000610351562,32.60000152587891C81.49999610351563,31.100002525878907,83.99999610351563,30.400001525878906,87.30000610351563,30.400001525878906C91.10000610351562,30.400001525878906,93.70000610351562,31.200000525878906,95.10000610351562,32.800001525878905C96.50000610351563,34.400001525878906,97.30000610351563,36.60000152587891,97.30000610351563,39.50000152587891C97.30000610351563,41.300001525878905,97.10000610351562,42.7000015258789,96.60000610351562,43.50000152587891C95.90000610351562,44.2000015258789,94.90000610351562,45.00000152587891,93.50000610351563,45.800001525878905ZM88.80000610351563,52.7000015258789C88.80000610351563,51.400001525878906,88.70000610351562,50.50000152587891,88.40000610351562,50.10000152587891C88.10000610351562,49.7000015258789,87.70000610351562,49.50000152587891,87.09999610351562,49.50000152587891C86.49999610351563,49.50000152587891,86.09999610351562,49.7000015258789,85.90000610351562,50.10000152587891C85.70000610351562,50.50000152587891,85.49999610351563,51.400001525878906,85.49999610351563,52.7000015258789L85.49999610351563,57.10000152587891C85.49999610351563,58.60000152587891,85.59999610351562,59.50000152587891,85.90000610351562,60.00000152587891C86.20000610351562,60.50000152587891,86.59999610351562,60.60000152587891,87.20000610351562,60.60000152587891C87.80000610351563,60.60000152587891,88.20000610351562,60.400001525878906,88.40000610351562,60.00000152587891C88.60000610351562,59.60000152587891,88.70000610351562,58.60000152587891,88.70000610351562,57.10000152587891L88.70000610351562,52.7000015258789L88.80000610351563,52.7000015258789ZM88.60000610351562,38.400001525878906C88.60000610351562,37.2000015258789,88.50000610351563,36.50000152587891,88.30000610351563,36.10000152587891C88.10000610351562,35.7000015258789,87.70000610351562,35.50000152587891,87.09999610351562,35.50000152587891C86.49999610351563,35.50000152587891,86.19999610351563,35.7000015258789,85.99999610351563,36.10000152587891C85.80000610351563,36.50000152587891,85.69999610351563,37.300001525878905,85.69999610351563,38.400001525878906L85.69999610351563,41.00000152587891C85.69999610351563,42.00000152587891,85.79999610351562,42.7000015258789,85.99999610351563,43.10000152587891C86.19999610351563,43.50000152587891,86.59999610351562,43.7000015258789,87.09999610351562,43.7000015258789C87.70000610351562,43.7000015258789,88.00000610351563,43.50000152587891,88.20000610351562,43.10000152587891C88.40000610351562,42.7000015258789,88.50000610351563,41.900001525878906,88.50000610351563,40.7000015258789L88.50000610351563,38.400001525878906L88.60000610351562,38.400001525878906Z" fill="#F29B12" fill-opacity="1" style="mix-blend-mode:passthrough"/></g><g><path d="M100.30000305175328,56.10000228881836L108.90000542236328,56.10000228881836C108.90000542236328,57.70000228881836,108.90000542236328,58.70000228881836,108.99999542236328,59.10000228881836C108.99999542236328,59.50000228881836,109.19999542236329,59.90000228881836,109.49999542236328,60.10000228881836C109.80000542236328,60.40000228881836,110.19999542236329,60.50000228881836,110.69999542236329,60.50000228881836C111.09999542236328,60.50000228881836,111.49999542236328,60.40000228881836,111.79999542236328,60.10000228881836C112.09999542236328,59.80000228881836,112.19999542236329,59.50000228881836,112.29999542236328,59.10000228881836C112.39999542236328,58.70000228881836,112.39999542236328,57.80000228881836,112.39999542236328,56.50000228881836L112.39999542236328,51.00000228881836C111.99999542236328,51.90000228881836,111.29999542236328,52.60000228881836,110.49999542236328,53.10000228881836C109.69998542236328,53.60000228881836,108.59999542236328,53.80000228881836,107.29999542236328,53.80000228881836C105.69999542236329,53.80000228881836,104.29999542236328,53.40000228881836,103.09999542236328,52.50000228881836C101.90000542236328,51.70000228881836,101.09999842236329,50.60000228881836,100.79999542236328,49.40000228881836C100.49999242236328,48.20000228881836,100.29999542236328,46.60000228881836,100.29999542236328,44.60000228881836L100.29999542236328,41.90000228881836C100.29999542236328,39.50000228881836,100.39999392236328,37.70000228881836,100.59999842236329,36.50000228881836C100.79999542236328,35.30000228881836,101.29999542236328,34.20000228881836,102.09999542236328,33.20000228881836C102.90000542236328,32.20000228881836,103.99999542236328,31.40000228881836,105.40000542236328,30.90000128881836C106.80000542236328,30.300001288818358,108.40000542236328,30.10000228881836,110.29999542236328,30.10000228881836C112.59999542236328,30.10000228881836,114.49999542236328,30.40000128881836,115.89999542236328,31.10000228881836C117.39999542236328,31.70000228881836,118.49999542236328,32.70000228881836,119.29999542236328,33.80000228881836C120.09999542236328,35.00000228881836,120.59999542236328,36.20000228881836,120.69999542236329,37.60000228881836C120.79999542236328,39.00000228881836,120.89999542236328,41.50000228881836,120.89999542236328,45.20000228881836L120.89999542236328,50.00000228881836C120.89999542236328,54.10000228881836,120.79999542236328,56.80000228881836,120.69999542236329,58.20000228881836C120.59999542236328,59.60000228881836,120.09999542236328,60.90000228881836,119.19999542236329,62.10000228881836C118.29999542236328,63.30000228881836,117.19999542236329,64.30000228881836,115.69999542236329,64.90000228881836C114.19999542236329,65.50000228881837,112.49999542236328,65.80000228881836,110.59999542236328,65.80000228881836C108.20000542236328,65.80000228881836,106.20000542236328,65.40000228881836,104.70000542236328,64.60000228881836C103.20000542236328,63.80000228881836,102.10000542236328,62.70000228881836,101.40000542236328,61.30000228881836C100.69999742236328,60.10000228881836,100.30000305175328,58.30000228881836,100.30000305175328,56.10000228881836ZM108.90000542236328,45.40000228881836C108.90000542236328,46.80000228881836,109.09999542236328,47.70000228881836,109.49999542236328,48.10000228881836C109.90000542236328,48.40000228881836,110.29999542236328,48.60000228881836,110.69999542236329,48.60000228881836C111.29999542236328,48.60000228881836,111.69999542236329,48.40000228881836,111.99999542236328,48.00000228881836C112.29999542236328,47.60000228881836,112.39999542236328,46.70000228881836,112.39999542236328,45.50000228881836L112.39999542236328,39.30000228881836C112.39999542236328,37.80000228881836,112.29999542236328,36.80000228881836,111.99999542236328,36.30000228881836C111.69999542236329,35.80000228881836,111.29999542236328,35.60000228881836,110.69999542236329,35.60000228881836C110.29999542236328,35.60000228881836,109.99999542236328,35.80000228881836,109.59999542236328,36.10000228881836C109.19999542236329,36.50000228881836,108.99999542236328,37.40000228881836,108.99999542236328,39.00000228881836L108.99999542236328,45.40000228881836L108.90000542236328,45.40000228881836Z" fill="#F29B12" fill-opacity="1" style="mix-blend-mode:passthrough"/></g><g><path d="M136.99999084472657,31L136.99999084472657,65.3L128.39999084472657,65.3L128.39999084472657,46.9C128.39999084472657,44.2,128.29999084472655,42.6,128.20000084472656,42.1C128.09999084472656,41.6,127.70000084472656,41.2,127.20000084472656,40.9C126.70000084472656,40.6,125.39999084472656,40.5,123.39999384472657,40.5L122.59999084472656,40.5L122.59999084472656,36.5C126.69999084472656,35.6,129.89999084472657,33.8,131.99998084472657,31L136.99999084472657,31Z" fill="#F29B12" fill-opacity="1" style="mix-blend-mode:passthrough"/></g><g><path d="M164.29999389648438,45.800001525878905C165.59999389648436,46.300001525878905,166.49999389648437,47.10000152587891,167.1999938964844,48.10000152587891C167.89999389648438,49.10000152587891,168.1999938964844,51.50000152587891,168.1999938964844,55.300001525878905C168.1999938964844,58.10000152587891,167.89999389648438,60.10000152587891,167.39999389648438,61.400001525878906C166.89999389648438,62.7000015258789,165.79999389648438,63.800001525878905,164.29999389648438,64.60000152587891C162.79999389648438,65.4000015258789,160.6999938964844,65.9000015258789,158.09999389648436,65.9000015258789C155.59999389648436,65.9000015258789,153.49998389648437,65.5000015258789,152.09999389648436,64.7000015258789C150.6999938964844,63.900001525878906,149.59999389648436,62.800001525878905,148.89999389648438,61.50000152587891C148.19999689648438,60.2000015258789,147.89999389648438,58.00000152587891,147.89999389648438,54.900001525878906C147.89999389648438,52.800001525878905,148.09999089648437,51.00000152587891,148.39999389648438,49.50000152587891C148.69999689648438,48.00000152587891,149.6999938964844,46.800001525878905,151.39999389648438,45.800001525878905C150.29998389648438,45.300001525878905,149.50000389648437,44.50000152587891,149.00000389648437,43.400001525878906C148.49999989648438,42.300001525878905,148.19999689648438,40.900001525878906,148.19999689648438,39.2000015258789C148.19999689648438,36.2000015258789,149.00000389648437,34.00000152587891,150.6999938964844,32.60000152587891C152.30000389648438,31.100002525878907,154.80000389648438,30.400001525878906,158.09999389648436,30.400001525878906C161.89999389648438,30.400001525878906,164.49999389648437,31.200000525878906,165.89999389648438,32.800001525878905C167.29999389648438,34.400001525878906,168.09999389648436,36.60000152587891,168.09999389648436,39.50000152587891C168.09999389648436,41.300001525878905,167.89999389648438,42.7000015258789,167.39999389648438,43.50000152587891C166.79999389648438,44.2000015258789,165.79999389648438,45.00000152587891,164.29999389648438,45.800001525878905ZM159.6999938964844,52.7000015258789C159.6999938964844,51.400001525878906,159.59999389648436,50.50000152587891,159.29999389648438,50.10000152587891C158.99999389648437,49.7000015258789,158.59999389648436,49.50000152587891,157.99999389648437,49.50000152587891C157.39999389648438,49.50000152587891,157.00000389648437,49.7000015258789,156.80000389648438,50.10000152587891C156.60000389648437,50.50000152587891,156.40001389648438,51.400001525878906,156.40001389648438,52.7000015258789L156.40001389648438,57.10000152587891C156.40001389648438,58.60000152587891,156.50001389648438,59.50000152587891,156.80000389648438,60.00000152587891C157.09999389648436,60.50000152587891,157.50000389648437,60.60000152587891,158.09999389648436,60.60000152587891C158.6999938964844,60.60000152587891,159.09999389648436,60.400001525878906,159.29999389648438,60.00000152587891C159.49999389648437,59.60000152587891,159.59999389648436,58.60000152587891,159.59999389648436,57.10000152587891L159.59999389648436,52.7000015258789L159.6999938964844,52.7000015258789ZM159.49999389648437,38.400001525878906C159.49999389648437,37.2000015258789,159.39999389648438,36.50000152587891,159.1999938964844,36.10000152587891C158.99999389648437,35.7000015258789,158.59999389648436,35.50000152587891,157.99999389648437,35.50000152587891C157.39999389648438,35.50000152587891,157.10000389648437,35.7000015258789,156.89999389648438,36.10000152587891C156.6999938964844,36.50000152587891,156.59999389648436,37.300001525878905,156.59999389648436,38.400001525878906L156.59999389648436,41.00000152587891C156.59999389648436,42.00000152587891,156.6999938964844,42.7000015258789,156.89999389648438,43.10000152587891C157.09999389648436,43.50000152587891,157.50000389648437,43.7000015258789,157.99999389648437,43.7000015258789C158.59999389648436,43.7000015258789,158.89999389648438,43.50000152587891,159.09999389648436,43.10000152587891C159.29999389648438,42.7000015258789,159.39999389648438,41.900001525878906,159.39999389648438,40.7000015258789L159.39999389648438,38.400001525878906L159.49999389648437,38.400001525878906Z" fill="#F29B12" fill-opacity="1" style="mix-blend-mode:passthrough"/></g><g><path d="M187.49999084472657,45.800001525878905C188.79999084472655,46.300001525878905,189.69999084472656,47.10000152587891,190.39999084472657,48.10000152587891C191.09999084472656,49.10000152587891,191.39999084472657,51.50000152587891,191.39999084472657,55.300001525878905C191.39999084472657,58.10000152587891,191.09999084472656,60.10000152587891,190.59999084472656,61.400001525878906C190.09999084472656,62.7000015258789,188.99999084472657,63.800001525878905,187.49999084472657,64.60000152587891C185.99999084472657,65.4000015258789,183.89999084472657,65.9000015258789,181.29999084472655,65.9000015258789C178.79999084472655,65.9000015258789,176.69998084472655,65.5000015258789,175.29999084472655,64.7000015258789C173.89999084472657,63.900001525878906,172.79999084472655,62.800001525878905,172.09999084472656,61.50000152587891C171.39999384472657,60.2000015258789,171.09999084472656,58.00000152587891,171.09999084472656,54.900001525878906C171.09999084472656,52.800001525878905,171.29998784472656,51.00000152587891,171.59999084472656,49.50000152587891C171.89999384472657,48.00000152587891,172.89999084472657,46.800001525878905,174.59999084472656,45.800001525878905C173.49998084472657,45.300001525878905,172.70000084472656,44.50000152587891,172.20000084472656,43.400001525878906C171.69999684472657,42.300001525878905,171.39999384472657,40.900001525878906,171.39999384472657,39.2000015258789C171.39999384472657,36.2000015258789,172.20000084472656,34.00000152587891,173.89999084472657,32.60000152587891C175.50000084472657,31.100002525878907,178.00000084472657,30.400001525878906,181.29999084472655,30.400001525878906C185.09999084472656,30.400001525878906,187.69999084472656,31.200000525878906,189.09999084472656,32.800001525878905C190.49999084472657,34.400001525878906,191.29999084472655,36.60000152587891,191.29999084472655,39.50000152587891C191.29999084472655,41.300001525878905,191.09999084472656,42.7000015258789,190.59999084472656,43.50000152587891C189.99999084472657,44.2000015258789,188.99999084472657,45.00000152587891,187.49999084472657,45.800001525878905ZM182.89999084472657,52.7000015258789C182.89999084472657,51.400001525878906,182.79999084472655,50.50000152587891,182.49999084472657,50.10000152587891C182.19999084472656,49.7000015258789,181.79999084472655,49.50000152587891,181.19999084472656,49.50000152587891C180.59999084472656,49.50000152587891,180.20000084472656,49.7000015258789,180.00000084472657,50.10000152587891C179.80000084472655,50.50000152587891,179.60001084472657,51.400001525878906,179.60001084472657,52.7000015258789L179.60001084472657,57.10000152587891C179.60001084472657,58.60000152587891,179.70001084472656,59.50000152587891,180.00000084472657,60.00000152587891C180.29999084472655,60.50000152587891,180.70000084472656,60.60000152587891,181.29999084472655,60.60000152587891C181.89999084472657,60.60000152587891,182.29999084472655,60.400001525878906,182.49999084472657,60.00000152587891C182.69999084472656,59.60000152587891,182.79999084472655,58.60000152587891,182.79999084472655,57.10000152587891L182.79999084472655,52.7000015258789L182.89999084472657,52.7000015258789ZM182.69999084472656,38.400001525878906C182.69999084472656,37.2000015258789,182.59999084472656,36.50000152587891,182.39999084472657,36.10000152587891C182.19999084472656,35.7000015258789,181.79999084472655,35.50000152587891,181.19999084472656,35.50000152587891C180.59999084472656,35.50000152587891,180.30000084472655,35.7000015258789,180.09999084472656,36.10000152587891C179.89999084472657,36.50000152587891,179.79999084472655,37.300001525878905,179.79999084472655,38.400001525878906L179.79999084472655,41.00000152587891C179.79999084472655,42.00000152587891,179.89999084472657,42.7000015258789,180.09999084472656,43.10000152587891C180.29999084472655,43.50000152587891,180.70000084472656,43.7000015258789,181.19999084472656,43.7000015258789C181.79999084472655,43.7000015258789,182.09999084472656,43.50000152587891,182.29999084472655,43.10000152587891C182.49999084472657,42.7000015258789,182.59999084472656,41.900001525878906,182.59999084472656,40.7000015258789L182.59999084472656,38.400001525878906L182.69999084472656,38.400001525878906Z" fill="#F29B12" fill-opacity="1" style="mix-blend-mode:passthrough"/></g><g><path d="M214.60001525878906,42.59999885559082L214.60001525878906,53.99999885559082C214.60001525878906,56.59999885559082,214.50001525878906,58.49999885559082,214.20001525878905,59.69999885559082C213.90001525878907,60.89999885559082,213.30001525878907,61.99999885559082,212.40001525878907,62.99999885559082C211.50001525878906,63.99999885559082,210.40001525878907,64.79999885559081,209.20001525878905,65.19999885559082C207.90001525878907,65.69999885559082,206.50001525878906,65.89999885559082,205.00001525878906,65.89999885559082C203.00001525878906,65.89999885559082,201.20001525878905,65.69999885559082,199.90000525878907,65.19999885559082C198.50001525878906,64.69999885559082,197.50001525878906,63.99999885559082,196.70001525878905,62.99999885559082C195.90000525878907,61.99999885559082,195.30001825878907,60.89999885559082,195.00001525878906,59.79999885559082C194.70001225878906,58.69999885559082,194.50001525878906,56.89999885559082,194.50001525878906,54.49999885559082L194.50001525878906,42.49999885559082C194.50001525878906,39.29999885559082,194.80001825878907,36.99999885559082,195.30001825878907,35.39999885559082C195.80001525878907,33.79999885559082,196.90002525878907,32.59999885559082,198.50001525878906,31.59999885559082C200.10002525878906,30.69999885559082,202.10002525878906,30.19999885559082,204.40000525878907,30.19999885559082C206.30001525878907,30.19999885559082,208.00001525878906,30.49999785559082,209.40001525878907,31.19999885559082C210.90001525878907,31.89999885559082,212.00001525878906,32.69999885559082,212.70001525878905,33.59999885559082C213.40001525878907,34.49999885559082,213.90001525878907,35.59999885559082,214.20001525878905,36.79999885559082C214.50001525878906,37.99999885559082,214.60001525878906,39.99999885559082,214.60001525878906,42.59999885559082ZM206.00001525878906,39.69999885559082C206.00001525878906,37.89999885559082,205.90001525878907,36.69999885559082,205.70001525878905,36.29999885559082C205.50001525878906,35.89999885559082,205.10001525878906,35.59999885559082,204.49999525878906,35.59999885559082C203.89999525878906,35.59999885559082,203.39999525878906,35.79999885559082,203.19999525878907,36.29999885559082C202.99999525878906,36.79999885559082,202.89999525878906,37.89999885559082,202.89999525878906,39.69999885559082L202.89999525878906,56.39999885559082C202.89999525878906,58.39999885559082,202.99999525878906,59.59999885559082,203.19999525878907,59.99999885559082C203.39999525878906,60.39999885559082,203.80000525878907,60.59999885559082,204.39999525878906,60.59999885559082C205.00001525878906,60.59999885559082,205.50001525878906,60.39999885559082,205.60001525878906,59.89999885559082C205.80001525878907,59.39999885559082,205.90001525878907,58.29999885559082,205.90001525878907,56.69999885559082L205.90001525878907,39.69999885559082L206.00001525878906,39.69999885559082Z" fill="#F29B12" fill-opacity="1" style="mix-blend-mode:passthrough"/></g><g><path d="M233.99999084472657,45.800001525878905C235.29999084472655,46.300001525878905,236.19999084472656,47.10000152587891,236.89999084472657,48.10000152587891C237.59999084472656,49.10000152587891,237.89999084472657,51.50000152587891,237.89999084472657,55.300001525878905C237.89999084472657,58.10000152587891,237.59999084472656,60.10000152587891,237.09999084472656,61.400001525878906C236.59999084472656,62.7000015258789,235.49999084472657,63.800001525878905,233.99999084472657,64.60000152587891C232.49999084472657,65.4000015258789,230.39999084472657,65.9000015258789,227.79999084472655,65.9000015258789C225.29999084472655,65.9000015258789,223.19998084472655,65.5000015258789,221.79999084472655,64.7000015258789C220.39999084472657,63.900001525878906,219.29999084472655,62.800001525878905,218.59999084472656,61.50000152587891C217.89999384472657,60.2000015258789,217.59999084472656,58.00000152587891,217.59999084472656,54.900001525878906C217.59999084472656,52.800001525878905,217.79998784472656,51.00000152587891,218.09999084472656,49.50000152587891C218.39999384472657,48.00000152587891,219.39999084472657,46.800001525878905,221.09999084472656,45.800001525878905C219.99998084472657,45.300001525878905,219.20000084472656,44.50000152587891,218.70000084472656,43.400001525878906C218.19999684472657,42.300001525878905,217.89999384472657,40.900001525878906,217.89999384472657,39.2000015258789C217.89999384472657,36.2000015258789,218.70000084472656,34.00000152587891,220.39999084472657,32.60000152587891C222.00000084472657,31.100002525878907,224.50000084472657,30.400001525878906,227.79999084472655,30.400001525878906C231.59999084472656,30.400001525878906,234.19999084472656,31.200000525878906,235.59999084472656,32.800001525878905C236.99999084472657,34.400001525878906,237.79999084472655,36.60000152587891,237.79999084472655,39.50000152587891C237.79999084472655,41.300001525878905,237.59999084472656,42.7000015258789,237.09999084472656,43.50000152587891C236.39999084472657,44.2000015258789,235.49999084472657,45.00000152587891,233.99999084472657,45.800001525878905ZM229.29999084472655,52.7000015258789C229.29999084472655,51.400001525878906,229.19999084472656,50.50000152587891,228.89999084472657,50.10000152587891C228.59999084472656,49.7000015258789,228.19999084472656,49.50000152587891,227.59999084472656,49.50000152587891C227.00000084472657,49.50000152587891,226.60001084472657,49.7000015258789,226.40001084472655,50.10000152587891C226.20001084472656,50.50000152587891,226.00001084472657,51.400001525878906,226.00001084472657,52.7000015258789L226.00001084472657,57.10000152587891C226.00001084472657,58.60000152587891,226.10002084472657,59.50000152587891,226.40001084472655,60.00000152587891C226.70000084472656,60.50000152587891,227.10001084472657,60.60000152587891,227.69999084472656,60.60000152587891C228.29999084472655,60.60000152587891,228.69999084472656,60.400001525878906,228.89999084472657,60.00000152587891C229.09999084472656,59.60000152587891,229.19999084472656,58.60000152587891,229.19999084472656,57.10000152587891L229.19999084472656,52.7000015258789L229.29999084472655,52.7000015258789ZM229.19999084472656,38.400001525878906C229.19999084472656,37.2000015258789,229.09999084472656,36.50000152587891,228.89999084472657,36.10000152587891C228.69999084472656,35.7000015258789,228.29999084472655,35.50000152587891,227.69999084472656,35.50000152587891C227.09999084472656,35.50000152587891,226.80000084472655,35.7000015258789,226.59999084472656,36.10000152587891C226.39999084472657,36.50000152587891,226.29999084472655,37.300001525878905,226.29999084472655,38.400001525878906L226.29999084472655,41.00000152587891C226.29999084472655,42.00000152587891,226.39999084472657,42.7000015258789,226.59999084472656,43.10000152587891C226.79999084472655,43.50000152587891,227.20000084472656,43.7000015258789,227.69999084472656,43.7000015258789C228.29999084472655,43.7000015258789,228.59999084472656,43.50000152587891,228.79999084472655,43.10000152587891C228.99999084472657,42.7000015258789,229.09999084472656,41.900001525878906,229.09999084472656,40.7000015258789L229.09999084472656,38.400001525878906L229.19999084472656,38.400001525878906Z" fill="#F29B12" fill-opacity="1" style="mix-blend-mode:passthrough"/></g></g><g><g><ellipse cx="314.29998779296875" cy="45" rx="45" ry="45" fill="#F29B12" fill-opacity="1" style="mix-blend-mode:passthrough"/></g><g><path d="M359.1000061035156,49.70000038146973L333.5000061035156,24.100000381469727L323.40000610351564,17.100000381469727L305.20000610351565,17.100000381469727L294.40000610351564,25.100000381469727L291.6000061035156,31.900000381469727L291.4999961035156,34.70000038146973L287.2000161035156,36.60000038146973L283.6000061035156,39.900000381469724L284.20001210351563,51.500000381469725L291.9999961035156,59.30000038146973L294.40000610351564,64.50000038146973L319.40000610351564,89.50000038146973C340.3000061035156,87.30000038146973,356.90000610351564,70.70000038146972,359.1000061035156,49.70000038146973Z" fill="#E96300" fill-opacity="1" style="mix-blend-mode:passthrough"/></g><g><g><g><g><path d="M314.29998168945315,66.59999961853028C302.39999168945315,66.59999961853028,292.6999816894531,56.89999961853027,292.6999816894531,44.999999618530275C292.6999816894531,33.099999618530276,302.39999168945315,23.399999618530273,314.29998168945315,23.399999618530273C326.1999816894531,23.399999618530273,335.8999816894531,33.099999618530276,335.8999816894531,44.999999618530275C335.8999816894531,56.89999961853027,326.1999816894531,66.59999961853028,314.29998168945315,66.59999961853028ZM314.29998168945315,24.200000618530275C302.79998168945315,24.200000618530275,293.49999968945315,33.499999618530275,293.49999968945315,44.999999618530275C293.49999968945315,56.499999618530275,302.79998168945315,65.79999961853028,314.29998168945315,65.79999961853028C325.79998168945315,65.79999961853028,335.0999816894531,56.499999618530275,335.0999816894531,44.999999618530275C335.0999816894531,33.499999618530275,325.79998168945315,24.200000618530275,314.29998168945315,24.200000618530275Z" fill="#EBEFF0" fill-opacity="1" style="mix-blend-mode:passthrough"/></g></g><g><g><path d="M332.10003896484375,54.09999771118164C332.20003896484377,53.29999771118164,332.40003896484376,52.29999771118164,332.0000389648437,51.59999771118164C331.79993896484376,51.29999771118164,331.5000389648437,50.99999771118164,331.5000389648437,50.59999771118164C331.5000389648437,50.09999771118164,331.90003896484376,49.79999771118164,331.90003896484376,49.29999771118164C331.90003896484376,49.19999771118164,331.90003896484376,49.09999771118164,331.79993896484376,49.09999771118164L331.40003896484376,49.09999771118164C331.10003896484375,49.29999771118164,328.5000389648437,51.99999771118164,328.60003896484375,52.09999771118164C328.70003896484377,52.19999771118164,328.60003896484375,52.29999771118164,328.60003896484375,52.39999771118164C328.60003896484375,52.49999771118164,328.60003896484375,52.59999771118164,328.60003896484375,52.69999771118164C328.60003896484375,52.99999771118164,328.5000389648437,53.19999771118164,328.40003896484376,53.39999771118164C328.19993896484374,53.39999771118164,328.0000389648437,53.19999771118164,327.79993896484376,52.99999771118164C327.69993896484374,52.79999771118164,327.69993896484374,52.59999771118164,327.5999389648438,52.29999771118164C327.5999389648438,51.89999771118164,327.49993896484375,51.39999771118164,327.5999389648438,50.99999771118164C327.5999389648438,50.89999771118164,327.69993896484374,50.79999771118164,327.69993896484374,50.59999771118164C327.69993896484374,50.49999771118164,327.69993896484374,50.49999771118164,327.5999389648438,50.39999771118164C327.5999389648438,50.29999771118164,327.5999389648438,50.19999771118164,327.5999389648438,49.99998771118164C327.5999389648438,49.79998771118164,327.49993896484375,49.49998771118164,327.3999389648437,49.29998771118164C327.29993896484376,49.19999771118164,327.0999389648438,49.09998771118164,326.99993896484375,48.99998771118164L326.99993896484375,48.89999771118164L326.3999389648437,48.89999771118164L325.99993896484375,48.19999771118164L325.99993896484375,48.99999771118164L322.79993896484376,48.99999771118164L322.79993896484376,48.49999771118164C322.49993896484375,48.59999771118164,322.19993896484374,48.69999771118164,321.8999389648437,48.79999771118164C321.69993896484374,48.89999771118164,321.3999389648437,48.89999771118164,321.29993896484376,48.79999771118164C321.19993896484374,48.79999771118164,320.99993896484375,48.89999771118164,320.8999389648437,48.89999771118164C320.99993896484375,49.19999771118164,321.29993896484376,49.39999771118164,321.5999389648438,49.49999771118164C321.99993896484375,49.59999771118164,322.49993896484375,49.59999771118164,322.8999389648437,49.59999771118164C322.69993896484374,49.99999771118164,322.29993896484376,50.39999771118164,321.79993896484376,50.59999771118164C321.5999389648438,50.69999771118164,321.3999389648437,50.69999771118164,321.29993896484376,50.89999771118164C321.19993896484374,50.99998771118164,321.0999389648438,51.19999771118164,320.99993896484375,51.29999771118164C320.5999389648438,51.89999771118164,319.69993896484374,51.99999771118164,319.19993896484374,52.39999771118164C318.29993896484376,53.09999771118164,318.29993896484376,54.39999771118164,318.19993896484374,55.49998771118164C318.19993896484374,55.69999771118164,318.0999389648438,55.99998771118164,317.99993896484375,56.19999771118164C317.8999389648437,56.39999771118164,317.5999389648438,56.49998771118164,317.3999389648437,56.39999771118164C317.29993896484376,56.39999771118164,317.19993896484374,56.29999771118164,317.0999389648438,56.29999771118164C316.79993896484376,56.19999771118164,316.69993896484374,56.59999771118164,316.5999389648438,56.79999771118164C316.49993896484375,57.29999771118164,316.19993896484374,57.69999771118164,315.79993896484376,57.99999771118164C315.69993896484374,58.09999771118164,315.69993896484374,58.09999771118164,315.5999389648438,58.09999771118164C315.49993896484375,58.09999771118164,315.3999389648437,58.09999771118164,315.29993896484376,58.09999771118164C315.0000389648437,58.09999771118164,314.79993896484376,58.49999771118164,314.69993896484374,58.79999771118164C314.49993896484375,59.19999771118164,313.99993896484375,59.49999771118164,313.49993896484375,59.49999771118164C312.99993896484375,59.49999771118164,312.49993896484375,59.19999771118164,312.29993896484376,58.69999771118164C312.0999389648438,58.29999771118164,312.19993896484374,57.79999771118164,312.19993896484374,57.39999771118164C312.29993896484376,56.09999771118164,312.49993896484375,54.79999771118164,312.69993896484374,53.49999771118164C312.69993896484374,53.29999771118164,312.79993896484376,53.09999771118164,312.8999389648437,52.89999771118164C313.0999389648438,52.69999771118164,313.3999389648437,52.59999771118164,313.5999389648438,52.29999771118164C313.8999389648437,51.89999771118164,313.69993896484374,51.39999771118164,313.5999389648438,50.89999771118164C313.3999389648437,50.49999771118164,313.19993896484374,49.99999771118164,313.3999389648437,49.49999771118164C313.49993896484375,49.29999771118164,313.5999389648438,49.19999771118164,313.5999389648438,48.99999771118164L311.0999389648438,48.99999771118164L311.0999389648438,47.19999671118164C310.99993896484375,47.19999671118164,310.79993896484376,47.09999871118164,310.69993896484374,47.09999871118164C310.49993896484375,46.999999711181644,310.29993896484376,46.999999711181644,310.19993896484374,46.89999771118164C309.90003896484376,46.99999621118164,309.49993896484375,47.09999871118164,309.19993896484374,47.09999871118164L309.19993896484374,49.09999771118164L305.99996896484373,49.09999771118164L305.99996896484373,47.59999871118164C305.89995896484373,47.89999771118164,305.69997896484375,48.09999771118164,305.49996896484373,48.29999771118164C304.89995896484373,48.89999771118164,304.09997896484373,49.09999771118164,303.19997896484375,49.19999771118164C303.09997896484373,49.29999771118164,302.99996896484373,49.29999771118164,302.99996896484373,49.39999771118164C302.79995896484377,49.59999771118164,302.69997896484375,49.89999771118164,302.59997896484373,50.09999771118164C302.19997896484375,50.89999771118164,301.79998896484375,51.59999771118164,301.19997896484375,52.19999771118164C300.79998896484375,52.59999771118164,300.39998896484377,52.99999771118164,299.99996896484373,53.39999771118164C299.39995896484373,53.99999771118164,298.89995896484373,54.49999771118164,298.29995896484377,55.09999771118164C297.8999629648437,55.50000771118164,297.49996996484373,55.89999771118164,297.19995096484377,56.39999771118164C297.09994496484376,56.59999771118164,296.99993896484375,56.69999771118164,296.99993896484375,56.89999771118164C300.79992896484373,62.49999771118164,307.29993896484376,66.29999771118165,314.5999389648438,66.29999771118165C321.79993896484376,66.29999771118165,328.19993896484374,62.69999771118164,331.99993896484375,57.19999771118164C331.79993896484376,56.89999771118164,331.8999389648437,56.60000771118164,331.8999389648437,56.20000771118164C331.8999389648437,55.900007711181644,331.5999389648438,55.60000771118164,331.79993896484376,55.400007711181644C332.29993896484376,55.00000771118164,332.49993896484375,55.900007711181644,332.5999389648438,56.400007711181644C332.69993896484374,56.30000771118164,332.69993896484374,56.20000771118164,332.79993896484376,56.10000771118164C332.10003896484375,55.49999771118164,332.10003896484375,54.69999771118164,332.10003896484375,54.09999771118164ZM320.0000389648437,56.59999771118164C319.79993896484376,56.99999771118164,319.20003896484377,57.29999771118164,319.0000389648437,57.69999771118164C318.90003896484376,57.89999771118164,318.79993896484376,58.09999771118164,318.60003896484375,58.29999771118164C318.5000389648437,58.49999771118164,318.20003896484377,58.69999771118164,318.0000389648437,58.59999771118164C317.79993896484376,58.59999771118164,317.70003896484377,58.39999771118164,317.60003896484375,58.19999771118164C317.60003896484375,57.99999771118164,317.60003896484375,57.79999771118164,317.70003896484377,57.59999771118164C317.80003896484374,57.49999771118164,317.80003896484374,57.29999771118164,318.0000389648437,57.19999771118164C318.10003896484375,57.19999771118164,318.20003896484377,57.19999771118164,318.29993896484376,57.09999771118164C318.40003896484376,57.09999771118164,318.5000389648437,56.89999771118164,318.5000389648437,56.79999771118164Q318.5000389648437,56.69999771118164,318.40003896484376,56.69999771118164C318.29993896484376,56.69999771118164,318.29993896484376,56.59999771118164,318.29993896484376,56.49999771118164C318.40003896484376,56.59999771118164,318.5999389648438,56.49999771118164,318.5999389648438,56.29999771118164C318.5999389648438,56.19999771118164,318.69993896484374,55.99999771118164,318.79993896484376,55.89999771118164Q318.90003896484376,55.89999771118164,319.0000389648437,55.89999771118164C319.60003896484375,55.99998771118164,319.79993896484376,55.29999771118164,320.29993896484376,55.29999771118164C320.70003896484377,55.49999771118164,320.10003896484375,56.39999771118164,320.0000389648437,56.59999771118164Z" fill="#EBEFF0" fill-opacity="1" style="mix-blend-mode:passthrough"/></g><g><path d="M314.299948828125,23.799999237060547C308.299948828125,23.799999237060547,302.799988828125,26.299999237060547,298.999998828125,30.39999923706055C300.899998828125,28.39999923706055,303.200008828125,26.799999237060547,305.700048828125,25.699999237060545C306.100048828125,25.799999237060547,306.400048828125,25.89999923706055,306.800048828125,25.89999923706055C307.100048828125,25.89999923706055,307.400048828125,25.999999237060546,307.700048828125,26.099999237060548C308.300048828125,26.499999237060546,308.500048828125,27.39999923706055,309.200048828125,27.599999237060548C309.500048828125,27.699999237060545,309.800048828125,27.599999237060548,310.000048828125,27.39999923706055C310.700048828125,27.099999237060548,311.500048828125,26.799999237060547,312.200048828125,26.499999237060546C312.700048828125,26.299999237060547,313.200048828125,26.199999237060545,313.600048828125,26.499999237060546C313.800048828125,26.699999237060545,313.899948828125,27.099999237060548,313.700048828125,27.39999923706055C315.300048828125,27.199999237060545,316.800048828125,27.199999237060545,318.400048828125,27.599999237060548C319.300048828125,27.799999237060547,320.400048828125,28.499999237060546,320.200048828125,29.39999923706055C320.100048828125,29.699999237060545,319.900048828125,29.89999923706055,319.700048828125,30.099999237060548C318.200048828125,31.299999237060547,315.900048828125,30.599999237060548,314.100048828125,31.299999237060547C313.300048828125,31.599999237060548,312.300048828125,32.099999237060544,311.899948828125,31.39999923706055C311.500048828125,30.799999237060547,312.100048828125,29.999999237060546,312.799948828125,29.599999237060548C313.399948828125,29.20000923706055,314.199948828125,28.70000923706055,314.099948828125,27.89999923706055C313.999948828125,27.39999923706055,313.499948828125,27.099999237060548,312.999948828125,27.099999237060548C312.499948828125,27.099999237060548,311.999948828125,27.20000923706055,311.599948828125,27.39999923706055C311.999948828125,27.999999237060546,311.799948828125,28.89999923706055,311.299948828125,29.39999923706055C310.799948828125,29.89999923706055,309.899948828125,29.89999923706055,309.299948828125,29.39999923706055C309.500048828125,29.699999237060545,309.500048828125,30.099999237060548,309.500048828125,30.39999923706055C309.500048828125,31.299999237060547,309.200048828125,32.29999923706055,308.700048828125,33.099999237060544C308.300048828125,32.49999923706055,307.500048828125,31.799999237060547,306.900048828125,32.199999237060545C306.700048828125,32.29999923706055,306.600048828125,32.49999923706055,306.400048828125,32.599999237060544C305.500048828125,33.199999237060545,304.400048828125,31.89999923706055,303.400048828125,32.099999237060544C303.500048828125,32.79999923706055,302.800018828125,33.29999923706055,302.200008828125,33.49999923706055C301.600008828125,33.70000923706055,300.900028828125,33.89999923706055,300.400028828125,34.39999923706055C300.100038828125,34.699999237060545,299.900028828125,35.199999237060545,299.600038828125,35.49999923706055C299.200038828125,35.79999923706055,298.500028828125,35.599999237060544,298.600038828125,35.099999237060544C299.300048828125,34.89999923706055,299.200038828125,33.79999923706055,298.600038828125,33.49999923706055C298.000028828125,33.20000923706055,297.200038828125,33.400009237060544,296.600038828125,33.70000923706055C296.400028828125,33.79999923706055,296.300048828125,33.89999923706055,296.200038828125,33.99999923706055C295.900058828125,34.49999923706055,295.600038828125,34.99999923706055,295.400058828125,35.49999923706055Q295.400058828125,35.599999237060544,295.500058828125,35.699999237060545C295.900058828125,35.599999237060544,296.400058828125,35.599999237060544,296.800048828125,35.79999923706055C296.500058828125,36.199999237060545,296.100038828125,36.49999923706055,295.800048828125,36.89999923706055C296.000058828125,36.699999237060545,296.900058828125,37.599999237060544,296.900058828125,37.79999923706055C296.900058828125,37.99999923706055,296.700038828125,38.099999237060544,296.600068828125,38.199999237060545C296.400058828125,38.39999923706055,296.200068828125,38.699999237060545,296.100068828125,39.099999237060544Q296.100068828125,39.199999237060545,296.100068828125,39.29999923706055C296.200068828125,39.39999923706055,296.400058828125,39.39999923706055,296.600068828125,39.39999923706055C296.800078828125,39.39999923706055,296.900058828125,39.599999237060544,296.900058828125,39.699999237060545C296.900058828125,39.89999923706055,296.800048828125,39.99999923706055,296.700038828125,40.099999237060544C296.800048828125,39.99999923706055,296.600038828125,39.79999923706055,296.500028828125,39.79999923706055C296.400028828125,39.79999923706055,296.200038828125,39.79999923706055,296.100038828125,39.79999923706055C296.000028828125,39.79999923706055,295.800048828125,39.79999923706055,295.700038828125,39.699999237060545C295.600038828125,39.599999237060544,295.600038828125,39.39999923706055,295.700038828125,39.29999923706055C295.700038828125,39.199999237060545,295.800048828125,38.99999923706055,295.800048828125,38.89999923706055C295.800048828125,38.79999923706055,295.700038828125,38.699999237060545,295.700038828125,38.599999237060544C295.700038828125,38.39999923706055,295.800048828125,38.199999237060545,295.700038828125,37.99999923706055C295.600038828125,37.79999923706055,295.300048828125,37.599999237060544,295.100038828125,37.39999923706055C295.000028828125,37.199999237060545,294.900028828125,36.99999923706055,294.800048828125,36.89999923706055C293.900054828125,39.29999923706055,293.300048828125,41.89999923706055,293.300048828125,44.699999237060545C293.300048828125,47.99999923706055,294.000060828125,51.099999237060544,295.400058828125,53.79999923706055C295.400058828125,53.099999237060544,295.500058828125,52.39999923706055,295.700038828125,51.699999237060545C295.800048828125,50.99999923706055,296.000028828125,50.29999923706055,295.900058828125,49.599999237060544C295.900058828125,49.199999237060545,295.800048828125,48.79999923706055,295.600068828125,48.49999923706055C295.500058828125,48.49999923706055,295.400058828125,48.39999923706055,295.300078828125,48.39999923706055L294.800078828125,48.199999237060545L294.800078828125,46.99999923706055C294.700068828125,46.79999923706055,294.600068828125,46.599999237060544,294.600068828125,46.29999923706055C293.900054828125,44.099999237060544,295.000058828125,42.29999923706055,296.500058828125,40.699999237060545C297.100068828125,40.099999237060544,297.400058828125,40.099999237060544,298.300048828125,40.199999237060545C299.600038828125,40.39999923706055,299.700038828125,40.49999923706055,300.100038828125,41.39999923706055L303.000028828125,41.39999923706055L303.000028828125,45.599999237060544C303.000028828125,45.79999923706055,303.000028828125,45.89999923706055,303.000028828125,45.99999923706055Q303.000028828125,45.99999923706055,303.100038828125,45.99999923706055L303.200038828125,45.99999923706055Q303.200038828125,45.89999923706055,303.200038828125,45.599999237060544L303.200038828125,41.39999923706055L306.000048828125,41.39999923706055L306.400048828125,41.39999923706055L308.900048828125,41.39999923706055C309.600048828125,41.39999923706055,310.300048828125,41.599999237060544,310.700048828125,41.79999923706055C310.900048828125,41.699999237060545,311.000048828125,41.599999237060544,311.200048828125,41.49999923706055L311.200048828125,41.39999923706055L311.300048828125,41.39999923706055C311.400048828125,41.199999237060545,311.500048828125,40.99999923706055,311.700048828125,40.79999923706055C311.800048828125,40.699999237060545,312.000048828125,40.599999237060544,312.100048828125,40.49999923706055C312.800048828125,40.199999237060545,313.500048828125,39.89999923706055,314.200048828125,39.699999237060545C314.300048828125,39.39999923706055,314.700048828125,39.39999923706055,314.900048828125,39.599999237060544C315.000048828125,39.699999237060545,315.100048828125,39.99999923706055,315.200048828125,39.99999923706055C315.500048828125,40.099999237060544,315.800048828125,39.699999237060545,316.100048828125,39.699999237060545C316.399948828125,39.699999237060545,316.500048828125,39.99999923706055,316.800048828125,40.099999237060544C317.000048828125,40.199999237060545,317.200048828125,40.199999237060545,317.300048828125,40.29999923706055C317.600048828125,40.599999237060544,316.900048828125,41.199999237060545,317.100048828125,41.699999237060545C317.200048828125,41.89999923706055,317.300048828125,41.89999923706055,317.500048828125,41.99999923706055C318.000048828125,41.599999237060544,318.700048828125,41.29999923706055,319.600048828125,41.29999923706055C319.600048828125,40.79999923706055,319.500048828125,40.199999237060545,319.500048828125,39.699999237060545C319.500048828125,39.199999237060545,319.299948828125,38.699999237060545,318.899948828125,38.599999237060544C319.199948828125,39.29999923706055,319.199948828125,40.099999237060544,319.000048828125,40.79999923706055C318.799948828125,40.39999923706055,318.700048828125,39.99999923706055,318.500048828125,39.599999237060544C318.399948828125,39.29999923706055,318.200048828125,38.89999923706055,317.899948828125,38.699999237060545C316.899948828125,38.099999237060544,315.100048828125,40.39999923706055,314.500048828125,38.99999923706055C314.299948828125,38.49999923706055,314.700048828125,37.599999237060544,315.299948828125,37.49999923706055C315.699948828125,37.49999923706055,316.299948828125,38.199999237060545,316.599948828125,37.79999923706055C316.499948828125,37.599999237060544,316.399948828125,37.29999923706055,316.299948828125,37.099999237060544C316.599948828125,36.599999237060544,317.399948828125,36.49999923706055,317.899948828125,36.89999923706055C318.000048828125,36.199999237060545,319.000048828125,36.199999237060545,319.600048828125,36.39999923706055C320.200048828125,36.599999237060544,321.000048828125,36.89999923706055,321.500048828125,36.49999923706055C321.700048828125,36.29999923706055,321.899948828125,36.099999237060544,322.200048828125,35.99999923706055C322.500048828125,35.99999923706055,322.700048828125,36.099999237060544,323.000048828125,36.199999237060545C323.299948828125,36.199999237060545,323.600048828125,35.99999923706055,323.399948828125,35.79999923706055C322.899948828125,35.79999923706055,322.299948828125,35.699999237060545,321.799948828125,35.49999923706055C322.099948828125,35.29999923706055,322.399948828125,34.99999923706055,322.599948828125,34.599999237060544C321.999948828125,34.599999237060544,321.499948828125,35.099999237060544,320.999948828125,35.49999923706055C320.499948828125,35.89999923706055,319.799948828125,36.29999923706055,319.299948828125,35.89999923706055C319.099948828125,35.099999237060544,319.699948828125,34.199999237060545,320.499948828125,33.89999923706055C320.899948828125,33.79999923706055,321.299948828125,33.79999923706055,321.699948828125,33.70000923706055C322.099948828125,33.60000923706055,322.399948828125,33.30000923706055,322.799948828125,33.20000923706055C323.599948828125,33.10000923706055,324.199948828125,33.70000923706055,324.699948828125,34.29999923706055C324.899948828125,34.49999923706055,324.999948828125,34.89999923706055,324.699948828125,34.89999923706055C324.599948828125,34.89999923706055,324.399948828125,34.79999923706055,324.299948828125,34.79999923706055C324.099948828125,34.79999923706055,324.099948828125,35.199999237060545,324.299948828125,35.29999923706055C324.500048828125,35.39999923706055,324.799948828125,35.29999923706055,325.000048828125,35.199999237060545C325.899948828125,34.89999923706055,326.799948828125,34.89999923706055,327.700048828125,35.199999237060545C328.300048828125,34.49999923706055,329.500048828125,34.49999923706055,330.200048828125,35.199999237060545C330.100048828125,34.79999923706055,330.500048828125,34.39999923706055,330.900048828125,34.39999923706055C331.300048828125,34.39999923706055,331.700048828125,34.599999237060544,332.000048828125,34.79999923706055C332.000048828125,34.49999923706055,332.300048828125,34.29999923706055,332.500048828125,34.29999923706055C332.600048828125,34.29999923706055,332.700048828125,34.29999923706055,332.900048828125,34.39999923706055C334.600048828125,37.49999923706055,335.600048828125,40.99999923706055,335.600048828125,44.79999923706055Q335.600048828125,44.79999923706055,335.600048828125,44.699999237060545C335.500048828125,33.29999923706055,326.000048828125,23.799999237060547,314.299948828125,23.799999237060547ZM316.299948828125,36.199999237060545L316.199948828125,36.199999237060545C316.199948828125,36.099999237060544,316.199948828125,36.099999237060544,316.299948828125,35.99999923706055C316.099948828125,35.99999923706055,316.000048828125,35.79999923706055,316.000048828125,35.599999237060544C316.000048828125,35.39999923706055,316.200048828125,35.29999923706055,316.399948828125,35.29999923706055C316.399948828125,35.199999237060545,316.600048828125,35.199999237060545,316.699948828125,35.199999237060545C316.799948828125,35.199999237060545,316.899948828125,35.29999923706055,316.999948828125,35.39999923706055C317.099948828125,35.49999923706055,317.099948828125,35.49999923706055,317.099948828125,35.599999237060544C317.099948828125,35.699999237060545,316.899948828125,35.699999237060545,316.899948828125,35.599999237060544C316.700048828125,35.79999923706055,316.500048828125,35.99999923706055,316.299948828125,36.199999237060545ZM318.000048828125,34.99999923706055Q318.000048828125,35.099999237060544,318.000048828125,35.199999237060545C318.100048828125,35.39999923706055,318.000048828125,35.699999237060545,317.799948828125,35.89999923706055C317.899948828125,35.99999923706055,318.000048828125,36.099999237060544,317.899948828125,36.199999237060545C317.899948828125,36.29999923706055,317.799948828125,36.39999923706055,317.699948828125,36.49999923706055C317.499948828125,36.699999237060545,317.099948828125,36.79999923706055,316.799948828125,36.599999237060544C316.500048828125,36.39999923706055,316.500048828125,35.99999923706055,316.799948828125,35.79999923706055C316.899948828125,35.699999237060545,317.099948828125,35.699999237060545,317.199948828125,35.699999237060545C317.299948828125,35.599999237060544,317.399948828125,35.39999923706055,317.299948828125,35.29999923706055C317.500048828125,35.29999923706055,317.399948828125,34.599999237060544,317.899948828125,34.599999237060544C318.299948828125,34.699999237060545,318.399948828125,34.99999923706055,318.000048828125,34.99999923706055ZM324.600048828125,31.499999237060546C324.300048828125,31.699999237060545,324.000048828125,31.89999923706055,323.700048828125,32.099999237060544C323.600048828125,32.199999237060545,323.400048828125,32.199999237060545,323.300048828125,32.29999923706055C323.200048828125,32.29999923706055,323.000048828125,32.29999923706055,322.900048828125,32.099999237060544Q322.900048828125,32.099999237060544,322.900048828125,31.999999237060546Q322.900048828125,31.999999237060546,323.000048828125,31.999999237060546C323.100048828125,31.89999923706055,323.200048828125,31.799999237060547,323.200048828125,31.599999237060548Q322.800048828125,31.39999923706055,322.700048828125,31.39999923706055C322.600048828125,31.299999237060547,322.700048828125,31.099999237060548,322.700048828125,30.999999237060546C322.800048828125,30.89999923706055,322.800048828125,30.799999237060547,322.900048828125,30.799999237060547C323.200048828125,30.499999237060546,323.300048828125,30.89999923706055,323.500048828125,30.999999237060546C323.600048828125,30.999999237060546,323.800048828125,30.999999237060546,323.900048828125,30.999999237060546C324.200048828125,30.999999237060546,324.400048828125,31.099999237060548,324.600048828125,31.299999237060547Q324.600048828125,31.299999237060547,324.600048828125,31.39999923706055Q324.600048828125,31.39999923706055,324.600048828125,31.499999237060546ZM328.899948828125,33.89999923706055C328.799948828125,33.99999923706055,328.699948828125,33.99999923706055,328.600048828125,33.89999923706055C328.500048828125,33.89999923706055,328.399948828125,33.699999237060545,328.300048828125,33.79999923706055C328.200048828125,33.79999923706055,328.200048828125,33.79999923706055,328.200048828125,33.89999923706055C328.100048828125,33.89999923706055,327.900048828125,33.89999923706055,327.800048828125,33.89999923706055C327.700048828125,33.89999923706055,327.700048828125,33.99999923706055,327.600048828125,33.99999923706055C327.500048828125,34.099999237060544,327.300048828125,34.199999237060545,327.300048828125,34.39999923706055C327.300048828125,34.49999923706055,327.300048828125,34.49999923706055,327.400048828125,34.699999237060545C327.400048828125,34.89999923706055,327.500048828125,34.89999923706055,327.300048828125,34.99999923706055C326.700048828125,35.099999237060544,326.800048828125,34.49999923706055,327.100048828125,34.199999237060545C327.200048828125,34.099999237060544,327.300048828125,34.099999237060544,327.399948828125,34.099999237060544C327.399948828125,33.89999923706055,327.500048828125,33.699999237060545,327.699948828125,33.699999237060545C327.899948828125,33.699999237060545,327.999948828125,33.79999923706055,328.199948828125,33.79999923706055L328.300048828125,33.79999923706055C328.399948828125,33.79999923706055,328.500048828125,33.79999923706055,328.600048828125,33.89999923706055C328.799948828125,33.89999923706055,328.899948828125,33.89999923706055,328.999948828125,33.79999923706055C329.000048828125,33.699999237060545,328.899948828125,33.79999923706055,328.899948828125,33.89999923706055Z" fill="#EBEFF0" fill-opacity="1" style="mix-blend-mode:passthrough"/></g><g><path d="M319.5,41.499999525878906C319.600006,41.499999525878906,319.600006,41.499999525878906,319.700012,41.499999525878906C319.900024,41.499999525878906,320.100006,41.499999525878906,320.300018,41.499999525878906C320.300018,41.2999995258789,320.400024,41.09999852587891,320.50003,40.900001525878906C320.200012,41.000000025878904,319.799988,41.200000525878906,319.5,41.499999525878906Z" fill="#EBEFF0" fill-opacity="1" style="mix-blend-mode:passthrough"/></g><g><path d="M332.5000000257813,54.59999771118164C332.60000592578126,54.89999771118164,332.60000592578126,55.19999771118164,332.70001192578127,55.49999771118164C332.9000239257812,55.09999771118164,333.10000592578126,54.69999771118164,333.3000179257813,54.29999771118164C333.10000592578126,53.89999771118164,333.00003092578123,53.39999771118164,333.00003092578123,52.89999771118164C332.5000000257813,53.29999971118164,332.39999392578125,53.99999771118164,332.5000000257813,54.59999771118164Z" fill="#EBEFF0" fill-opacity="1" style="mix-blend-mode:passthrough"/></g></g><g><g><path d="M299.5000044140625,46.40000610351562C299.5000044140625,46.80000610351563,299.3999944140625,47.100006103515625,299.2000144140625,47.40000610351562C299.0000044140625,47.69999610351562,298.7000144140625,47.90000610351562,298.4000244140625,48.100006103515625C298.1000344140625,48.30000610351563,297.6000344140625,48.30000610351563,297.2000144140625,48.30000610351563C296.8000144140625,48.30000610351563,296.5000044140625,48.30000610351563,296.2000124140625,48.200006103515626C295.9000244140625,48.100006103515625,295.7000124140625,48.000006103515624,295.4000244140625,47.90000610351562L295.4000244140625,46.500006103515624C295.7000124140625,46.700006103515626,296.0000304140625,46.80000610351563,296.3000184140625,46.90000610351562C296.6000044140625,47.000006103515624,296.9000244140625,47.000006103515624,297.2000144140625,47.000006103515624C297.4000244140625,47.000006103515624,297.6000044140625,47.000006103515624,297.7000144140625,46.90000610351562C297.8000144140625,46.80000610351563,297.9000244140625,46.700006103515626,297.9000244140625,46.600006103515625C297.9000244140625,46.500006103515624,297.9000244140625,46.40000610351562,297.8000144140625,46.40000610351562C297.8000144140625,46.30000610351563,297.7000144140625,46.30000610351563,297.6000044140625,46.200006103515626C297.5000044140625,46.100006103515625,297.2000144140625,46.000006103515624,296.8000144140625,45.80000610351563C296.4000244140625,45.600006103515625,296.1000064140625,45.500006103515624,295.9000244140625,45.30000610351563C295.7000124140625,45.100006103515625,295.6000364140625,44.90000610351562,295.5000304140625,44.700006103515626C295.4000244140625,44.500006103515624,295.4000244140625,44.200006103515626,295.4000244140625,43.90000610351562C295.4000244140625,43.40000610351562,295.6000364140625,42.900005103515625,296.0000304140625,42.600006103515625C296.4000244140625,42.300007103515625,296.9000244140625,42.100006103515625,297.6000344140625,42.100006103515625C298.2000444140625,42.100006103515625,298.8000444140625,42.20000460351562,299.5000344140625,42.500008103515626L299.0000344140625,43.700006103515626C298.5000344140625,43.40000610351562,298.0000344140625,43.30000610351563,297.6000344140625,43.30000610351563C297.4000244140625,43.30000610351563,297.2000444140625,43.30000610351563,297.2000444140625,43.40000610351562C297.1000344140625,43.500006103515624,297.1000344140625,43.600006103515625,297.1000344140625,43.700006103515626C297.1000344140625,43.80000610351563,297.2000444140625,43.90000610351562,297.3000444140625,44.000006103515624C297.4000544140625,44.100006103515625,297.7000444140625,44.30000610351563,298.3000444140625,44.500006103515624C298.8000444140625,44.700006103515626,299.2000444140625,45.000006103515624,299.4000544140625,45.200006103515626C299.3999944140625,45.69999610351562,299.5000044140625,45.99999610351563,299.5000044140625,46.40000610351562Z" fill="#EBEFF0" fill-opacity="1" style="mix-blend-mode:passthrough"/></g><g><path d="M305.3999938964844,42.29999926293945L305.3999938964844,45.800000762939455C305.3999938964844,46.60000076293945,305.19998389648435,47.20000076293945,304.69998389648435,47.60000076293945C304.2999838964844,48.00000076293945,303.59997389648436,48.20000076293945,302.7999838964844,48.20000076293945C302.0000038964844,48.20000076293945,301.3999938964844,48.00000076293945,300.9999998964844,47.60000076293945C300.6000058964844,47.20000076293945,300.3999938964844,46.60000076293945,300.3999938964844,45.800000762939455L300.3999938964844,42.20000076293945L302.0000038964844,42.20000076293945L302.0000038964844,45.60000076293945C302.0000038964844,46.00000076293945,302.1000038964844,46.300000762939455,302.2000138964844,46.50000076293945C302.40002389648436,46.70000076293945,302.6000038964844,46.800000762939455,302.90002389648436,46.800000762939455C303.2000138964844,46.800000762939455,303.50003389648435,46.70000076293945,303.6000338964844,46.50000076293945C303.7000438964844,46.300000762939455,303.8000438964844,46.00000076293945,303.8000438964844,45.60000076293945L303.8000438964844,42.20000076293945L305.3999938964844,42.20000076293945L305.3999938964844,42.29999926293945Z" fill="#EBEFF0" fill-opacity="1" style="mix-blend-mode:passthrough"/></g><g><path d="M310.89999168945315,44.20000076293945C310.89999168945315,44.900000762939456,310.6999816894531,45.400000762939456,310.2999916894531,45.70000076293945C309.89999168945315,46.10000076293945,309.39999168945315,46.20000076293945,308.6999816894531,46.20000076293945L308.2999916894531,46.20000076293945L308.2999916894531,48.10000076293945L306.6999816894531,48.10000076293945L306.6999816894531,42.20000076293945L308.6999816894531,42.20000076293945C309.39999168945315,42.20000076293945,309.9999716894531,42.40000176293945,310.39999168945315,42.70000076293945C310.7000116894531,43.09999876293945,310.89999168945315,43.60000076293945,310.89999168945315,44.20000076293945ZM308.2999916894531,45.00000076293945L308.5999716894531,45.00000076293945C308.7999916894531,45.00000076293945,308.9999716894531,44.900000762939456,309.1999816894531,44.800000762939455C309.2999916894531,44.70000076293945,309.39999168945315,44.50000076293945,309.39999168945315,44.20000076293945C309.39999168945315,43.800000762939455,309.1999816894531,43.60000076293945,308.6999816894531,43.60000076293945L308.2999916894531,43.60000076293945L308.2999916894531,45.00000076293945Z" fill="#EBEFF0" fill-opacity="1" style="mix-blend-mode:passthrough"/></g><g><path d="M316.1000038964844,44.20000076293945C316.1000038964844,44.900000762939456,315.8999938964844,45.400000762939456,315.5000038964844,45.70000076293945C315.1000038964844,46.10000076293945,314.6000038964844,46.20000076293945,313.8999938964844,46.20000076293945L313.5000038964844,46.20000076293945L313.5000038964844,48.10000076293945L311.8999938964844,48.10000076293945L311.8999938964844,42.20000076293945L313.8999938964844,42.20000076293945C314.6000038964844,42.20000076293945,315.19998389648435,42.40000176293945,315.6000038964844,42.70000076293945C315.8999938964844,43.09999876293945,316.1000038964844,43.60000076293945,316.1000038964844,44.20000076293945ZM313.3999938964844,45.00000076293945L313.69998389648435,45.00000076293945C313.8999938964844,45.00000076293945,314.09997389648436,44.900000762939456,314.2999838964844,44.800000762939455C314.3999938964844,44.70000076293945,314.5000038964844,44.50000076293945,314.5000038964844,44.20000076293945C314.5000038964844,43.800000762939455,314.2999838964844,43.60000076293945,313.7999838964844,43.60000076293945L313.3999938964844,43.60000076293945L313.3999938964844,45.00000076293945Z" fill="#EBEFF0" fill-opacity="1" style="mix-blend-mode:passthrough"/></g><g><path d="M322.50000337890623,45.29999923706055C322.50000337890623,46.29999923706055,322.29998337890623,46.99999923706055,321.79998337890623,47.599999237060544C321.29998337890623,48.099999237060544,320.59997337890627,48.39999923706055,319.69998337890627,48.39999923706055C318.79998337890623,48.39999923706055,318.09997337890627,48.099999237060544,317.59997537890627,47.599999237060544C317.09997537890627,47.099999237060544,316.89996337890625,46.29999923706055,316.89996337890625,45.29999923706055C316.89996337890625,44.29999923706055,317.09997537890627,43.599999237060544,317.59997537890627,43.09999823706055C318.09997337890627,42.59999823706055,318.79998337890623,42.29999923706055,319.69998337890627,42.29999923706055C320.59997337890627,42.29999923706055,321.29998337890623,42.59999823706055,321.79998337890623,43.09999823706055C322.29998337890623,43.49999923706055,322.50000337890623,44.29999923706055,322.50000337890623,45.29999923706055ZM318.50000337890623,45.29999923706055C318.50000337890623,46.39999923706055,318.89999337890623,46.99999923706055,319.70001337890625,46.99999923706055C320.10000337890625,46.99999923706055,320.40002337890627,46.89999923706055,320.60000337890625,46.599999237060544C320.80001337890627,46.29999923706055,320.89999337890623,45.89999923706055,320.89999337890623,45.29999923706055C320.89999337890623,44.699999237060545,320.79998337890623,44.29999923706055,320.60000337890625,43.99999923706055C320.39999337890623,43.699999237060545,320.10000337890625,43.599999237060544,319.70001337890625,43.599999237060544C318.89999337890623,43.49999923706055,318.50000337890623,44.099999237060544,318.50000337890623,45.29999923706055Z" fill="#EBEFF0" fill-opacity="1" style="mix-blend-mode:passthrough"/></g><g><path d="M325.2000161035156,46.09999542236328L325.2000161035156,48.19999542236328L323.6000061035156,48.19999542236328L323.6000061035156,42.29999542236328L325.4999961035156,42.29999542236328C327.1000061035156,42.29999542236328,327.8999961035156,42.89999342236328,327.8999961035156,43.999995422363284C327.8999961035156,44.69999542236328,327.6000061035156,45.19999542236328,326.8999961035156,45.59999542236328L328.6000061035156,48.19999542236328L326.80001610351565,48.19999542236328L325.6000061035156,46.09999542236328L325.2000161035156,46.09999542236328ZM325.2000161035156,44.90000542236328L325.4999961035156,44.90000542236328C326.1000061035156,44.90000542236328,326.2999861035156,44.70000542236328,326.2999861035156,44.20000542236328C326.2999861035156,43.79999542236328,325.9999961035156,43.60000542236328,325.4999961035156,43.60000542236328L325.2000161035156,43.60000542236328L325.2000161035156,44.90000542236328Z" fill="#EBEFF0" fill-opacity="1" style="mix-blend-mode:passthrough"/></g><g><path d="M331.70001220703125,48.20000305175781L330.10000220703125,48.20000305175781L330.10000220703125,43.60000305175781L328.70001220703125,43.60000305175781L328.70001220703125,42.30000305175781L333.10000220703125,42.30000305175781L333.10000220703125,43.60000305175781L331.70001220703125,43.60000305175781L331.70001220703125,48.20000305175781Z" fill="#EBEFF0" fill-opacity="1" style="mix-blend-mode:passthrough"/></g></g></g><g><g><g><path d="M314.299951171875,66.80000400543213C312.299951171875,66.80000400543213,310.599951171875,68.00000400543213,310.099951171875,69.60000400543213C298.999951171875,68.60000400543213,292.199981171875,63.40000400543213,292.199981171875,55.70000400543213L292.499971171875,55.70000400543213C292.799961171875,55.70000400543213,293.099971171875,55.40000400543213,293.099971171875,55.100004005432126L293.099971171875,35.40000200543213C293.099971171875,35.10000300543213,292.799991171875,34.80000400543213,292.499971171875,34.80000400543213L289.799961171875,34.80000400543213L289.799961171875,35.60000300543213C286.199951171875,35.60000300543213,283.199951171875,38.600004005432126,283.199951171875,42.20000400543213L283.199951171875,48.30000400543213C283.199951171875,51.90000400543213,286.199951171875,54.90000400543213,289.799961171875,54.90000400543213L289.799961171875,55.70000400543213L290.699951171875,55.70000400543213C290.699951171875,64.10000400543213,298.099951171875,69.90000400543212,309.899951171875,71.00000400543213C310.199951171875,72.80000400543213,311.999951171875,74.20000400543213,314.199951171875,74.20000400543213C316.599951171875,74.20000400543213,318.599951171875,72.50000400543213,318.599951171875,70.50000400543213C318.700051171875,68.50000400543213,316.700051171875,66.80000400543213,314.299951171875,66.80000400543213ZM288.000001171875,42.80000400543213C288.000001171875,43.70000400543213,287.200011171875,44.39999400543213,286.299991171875,44.50000400543213C285.399991171875,44.50000400543213,284.599971171875,43.70000400543213,284.599971171875,42.80000400543213L284.599971171875,41.00000400543213C284.599971171875,40.100004005432126,285.399961171875,39.40000400543213,286.299991171875,39.30000400543213C287.199981171875,39.30000400543213,288.000001171875,40.100004005432126,288.000001171875,41.00000400543213L288.000001171875,42.80000400543213ZM313.200051171875,69.80000400543213C312.200051171875,69.80000400543213,312.200051171875,68.20000400543213,313.200051171875,68.20000400543213C314.200051171875,68.30000400543213,314.200051171875,69.80000400543213,313.200051171875,69.80000400543213Z" fill="#EBEFF0" fill-opacity="1" style="mix-blend-mode:passthrough"/></g><g><path d="M338.7999894824219,35.59999919073486L338.7999894824219,34.80000019073486L336.0999754824219,34.80000019073486C335.7999874824219,34.80000019073486,335.4999694824219,35.09999919073486,335.4999694824219,35.39999819073486L335.4999694824219,55.000000190734866C335.4999694824219,55.30000019073486,335.79995748242186,55.60000019073486,336.0999754824219,55.60000019073486L338.7999894824219,55.60000019073486L338.7999894824219,54.80000019073486C342.39998948242186,54.80000019073486,345.39998948242186,51.80000019073486,345.39998948242186,48.20000019073486L345.39998948242186,42.10000019073486C345.39998948242186,38.60000019073486,342.39998948242186,35.59999919073486,338.7999894824219,35.59999919073486ZM343.49999948242186,42.400000190734865C343.49999948242186,43.30000019073486,342.7000094824219,44.000000190734866,341.7999894824219,44.10000019073486C340.89998948242186,44.10000019073486,340.0999794824219,43.30000019073486,340.0999794824219,42.400000190734865L340.0999794824219,40.400000190734865C340.0999794824219,39.500000190734866,340.8999594824219,38.80000019073486,341.7999894824219,38.70000019073486C342.6999794824219,38.70000019073486,343.49999948242186,39.500000190734866,343.49999948242186,40.400000190734865L343.49999948242186,42.400000190734865Z" fill="#EBEFF0" fill-opacity="1" style="mix-blend-mode:passthrough"/></g><g><path d="M338.7999855859375,34.80000019073486L337.1999855859375,34.80000019073486L336.1999815859375,34.80000019073486C335.8999935859375,34.80000019073486,335.5999755859375,35.09999919073486,335.5999755859375,35.39999819073486L335.5999755859375,55.000000190734866C335.5999755859375,55.30000019073486,335.8999635859375,55.60000019073486,336.1999815859375,55.60000019073486L338.8999955859375,55.60000019073486L338.8999955859375,34.80000019073486L338.7999855859375,34.80000019073486Z" fill="#EBEFF0" fill-opacity="1" style="mix-blend-mode:passthrough"/></g><g><path d="M337.1000549316406,32.0999979019165C336.9999549316406,31.699997901916504,336.89995493164065,31.199997901916504,336.8000549316406,30.599997901916502C336.70005493164064,30.099997901916502,336.50005493164065,29.499997901916505,336.3000549316406,28.899997901916503C335.8000549316406,27.699997901916504,335.20005493164064,26.399997901916503,334.3000549316406,25.199997901916504C333.4000549316406,23.899997901916503,332.3000549316406,22.599997901916502,331.00005493164065,21.399997901916503C329.6000549316406,20.299997901916505,328.1000549316406,19.099997901916502,326.3000549316406,18.299997901916505C325.9000549316406,18.099997901916502,325.4000549316406,17.899997901916503,325.00005493164065,17.699997901916504C324.50005493164065,17.499997901916505,324.1000549316406,17.399997901916503,323.6000549316406,17.199997901916504C322.70005493164064,16.799997901916505,321.70005493164064,16.599996901916505,320.70005493164064,16.399997901916503C319.70005493164064,16.199996901916503,318.70005493164064,16.099998901916504,317.6000549316406,15.899997901916503C316.6000549316406,15.799997301916504,315.50005493164065,15.799997301916504,314.50005493164065,15.699997901916504C313.4000549316406,15.799997901916504,312.50005493164065,15.799997901916504,311.50005493164065,15.899997901916503C310.50005493164065,16.099998901916504,309.4000549316406,16.199996901916503,308.4000549316406,16.399997901916503C307.4000549316406,16.699996901916503,306.4000549316406,16.799997901916505,305.50005493164065,17.199997901916504C305.00005493164065,17.399997901916503,304.6000549316406,17.499997901916505,304.1000549316406,17.699997901916504C303.6000549316406,17.899997901916503,303.20005493164064,18.099997901916502,302.8000549316406,18.299997901916505C301.0000649316406,19.099997901916502,299.5000649316406,20.199997901916504,298.1000349316406,21.399997901916503C296.8000449316406,22.599997901916502,295.6000349316406,23.799997901916505,294.8000449316406,25.199997901916504C293.9000549316406,26.499997901916505,293.3000449316406,27.799997901916505,292.8000489316406,28.899997901916503C292.6000369316406,29.499997901916505,292.4000549316406,29.999997901916505,292.3000489316406,30.599997901916502C292.2000429316406,31.099997901916502,292.1000369316406,31.599997901916502,292.00006093164063,32.0999979019165C291.9000549316406,32.9999979019165,291.9000549316406,33.699997901916504,291.9000549316406,34.199997901916504Q291.9000549316406,34.699997901916504,291.9000549316406,34.89999790191651Q291.9000549316406,34.699997901916504,292.00006093164063,34.199997901916504C292.00006093164063,33.699997901916504,292.3000489316406,33.0999979019165,292.50006093164063,32.299997901916505C292.70007293164065,31.899997901916503,292.8000489316406,31.499997901916505,293.0000649316406,30.999997901916505C293.20007493164064,30.499997901916505,293.5000649316406,29.999997901916505,293.70007493164064,29.499997901916505C294.3000749316406,28.499997901916505,295.0000649316406,27.399997901916503,296.0000649316406,26.299997901916505C296.20007493164064,25.999997901916505,296.5000649316406,25.799997901916505,296.70007493164064,25.499997901916505C297.0000649316406,25.199997901916504,297.20007493164064,24.999997901916505,297.5000649316406,24.699997901916504C298.0000649316406,24.199997901916504,298.70007493164064,23.699997901916504,299.3000449316406,23.199997901916504C300.6000349316406,22.299997901916505,302.1000549316406,21.399997901916503,303.70005493164064,20.699997901916504C305.3000549316406,19.999997901916505,307.1000549316406,19.499997901916505,308.9000549316406,19.099997901916502C309.8000549316406,18.899997901916503,310.70005493164064,18.899997901916503,311.6000549316406,18.699997901916504C312.50005493164065,18.599997901916502,313.6000549316406,18.599997901916502,314.50005493164065,18.599997901916502C315.4000549316406,18.599997901916502,316.4000549316406,18.699997901916504,317.3000549316406,18.699997901916504C318.20005493164064,18.799997901916505,319.20005493164064,18.899997901916503,320.1000549316406,19.099997901916502C321.9000549316406,19.499997901916505,323.70005493164064,19.899997901916503,325.3000549316406,20.699997901916504C326.9000549316406,21.399997901916503,328.4000549316406,22.199997901916504,329.70005493164064,23.199997901916504C330.3000549316406,23.699997901916504,331.00005493164065,24.199997901916504,331.50005493164065,24.699997901916504C331.8000549316406,24.999997901916505,332.1000549316406,25.199997901916504,332.3000549316406,25.499997901916505C332.50005493164065,25.799997901916505,332.8000549316406,25.999997901916505,333.00005493164065,26.299997901916505C334.00005493164065,27.399997901916503,334.70005493164064,28.499997901916505,335.3000549316406,29.499997901916505C335.6000549316406,29.999997901916505,335.8000549316406,30.499997901916505,336.00005493164065,30.999997901916505C336.20005493164064,31.499997901916505,336.4000549316406,31.899997901916503,336.50005493164065,32.299997901916505C336.70005493164064,33.0999979019165,336.9000549316406,33.799997901916505,337.00005493164065,34.199997901916504Q337.1000549316406,34.699997901916504,337.1000549316406,34.89999790191651Q337.1000549316406,34.699997901916504,337.1000549316406,34.199997901916504C337.20005493164064,33.5999979019165,337.20005493164064,32.9999979019165,337.1000549316406,32.0999979019165Z" fill="#EBEFF0" fill-opacity="1" style="mix-blend-mode:passthrough"/></g></g><g><path d="M293.49999779296877,32.09999809265137C293.49999779296877,32.99999809265137,292.79998779296875,33.69999809265137,291.89999779296875,33.69999809265137C290.99999979296877,33.69999809265137,290.29998779296875,32.99999809265137,290.29998779296875,32.09999809265137C290.29998779296875,31.199999092651368,290.99999979296877,30.499998092651367,291.89999779296875,30.499998092651367C292.79998779296875,30.500000000001368,293.49999779296877,31.200001092651366,293.49999779296877,32.09999809265137Z" fill="#EBEFF0" fill-opacity="1" style="mix-blend-mode:passthrough"/></g><g><path d="M335.1000061035156,32.09999809265137C335.1000061035156,32.99999809265137,335.80001810351564,33.69999809265137,336.7000161035156,33.69999809265137C337.6000061035156,33.69999809265137,338.30001610351565,32.99999809265137,338.30001610351565,32.09999809265137C338.30001610351565,31.199999092651368,337.6000061035156,30.499998092651367,336.7000161035156,30.499998092651367C335.8999941035156,30.500000000001368,335.1000061035156,31.200001092651366,335.1000061035156,32.09999809265137Z" fill="#EBEFF0" fill-opacity="1" style="mix-blend-mode:passthrough"/></g><g><path d="M292.50000168945314,34.80000019073486L289.7999916894531,34.80000019073486L289.7999916894531,35.59999919073486C286.1999816894531,35.59999919073486,283.1999816894531,38.60000019073486,283.1999816894531,42.20000019073486L283.1999816894531,48.30000019073486C283.1999816894531,51.900000190734865,286.1999816894531,54.900000190734865,289.7999916894531,54.900000190734865L289.7999916894531,55.70000019073486L292.50000168945314,55.70000019073486C292.7999916894531,55.70000019073486,293.1000016894531,55.400000190734865,293.1000016894531,55.10000019073486L293.1000016894531,35.40000219073487C293.1999816894531,35.09999919073486,292.89999168945315,34.80000019073486,292.50000168945314,34.80000019073486ZM288.00000168945314,42.80000019073486C288.00000168945314,43.70000019073486,287.2000116894531,44.400000190734865,286.2999916894531,44.500000190734866C285.39999168945315,44.500000190734866,284.5999716894531,43.70000019073486,284.5999716894531,42.80000019073486L284.5999716894531,41.000000190734866C284.5999716894531,40.10000019073486,285.3999616894531,39.400000190734865,286.2999916894531,39.30000019073486C287.1999816894531,39.30000019073486,288.00000168945314,40.10000019073486,288.00000168945314,41.000000190734866L288.00000168945314,42.80000019073486Z" fill="#EBEFF0" fill-opacity="1" style="mix-blend-mode:passthrough"/></g><g><path d="M289.89999379296876,34.80000019073486L291.49999779296877,34.80000019073486L292.49999779296877,34.80000019073486C292.79998779296875,34.80000019073486,293.10000779296877,35.09999919073486,293.10000779296877,35.39999819073486L293.10000779296877,55.000000190734866C293.10000779296877,55.30000019073486,292.80001779296873,55.60000019073486,292.49999779296877,55.60000019073486L289.79998779296875,55.60000019073486L289.79998779296875,34.80000019073486L289.89999379296876,34.80000019073486Z" fill="#EBEFF0" fill-opacity="1" style="mix-blend-mode:passthrough"/></g><g><path d="M314.2999838964844,66.80000400543213C311.8999938964844,66.80000400543213,309.8999938964844,68.50000400543213,309.8999938964844,70.50000400543213C309.8999938964844,72.60000400543213,311.8999938964844,74.19999400543213,314.2999838964844,74.19999400543213C316.69998389648435,74.19999400543213,318.69998389648435,72.50000400543213,318.69998389648435,70.50000400543213C318.7000138964844,68.50000400543213,316.7000138964844,66.80000400543213,314.2999838964844,66.80000400543213ZM313.2000138964844,69.80000400543213C312.2000138964844,69.80000400543213,312.2000138964844,68.20000400543213,313.2000138964844,68.20000400543213C314.2000138964844,68.30000400543213,314.2000138964844,69.80000400543213,313.2000138964844,69.80000400543213Z" fill="#EBEFF0" fill-opacity="1" style="mix-blend-mode:passthrough"/></g></g></g></g></g></g></svg>