<svg xmlns="http://www.w3.org/2000/svg" xmlns:xlink="http://www.w3.org/1999/xlink" fill="none" version="1.1" width="19.709999084472656" height="37.75" viewBox="0 0 19.709999084472656 37.75"><defs><clipPath id="master_svg0_4_49"><rect x="0" y="0" width="19.709999084472656" height="37.75" rx="0"/></clipPath></defs><g clip-path="url(#master_svg0_4_49)"><g><path d="M15.72,6.37C16.89,6.33,18.06,6.36,19.23,6.36C19.37,6.36,19.52,6.36,19.71,6.36L19.71,0.28C19.09,0.22,18.43,0.13,17.78,0.1C16.58,0.05,15.38,-0.01,14.18,0.00999999C12.35,0.05,10.61,0.49,9.1,1.58C7.36,2.83,6.4,4.58,6.04,6.66C5.89,7.51,5.85,8.4,5.83,9.27C5.79,10.63,5.82,12,5.82,13.37L5.82,13.88L0,13.88L0,20.68L5.79,20.68L5.79,37.76L12.86,37.76L12.86,20.7L18.63,20.7C18.93,18.44,19.21,16.2,19.52,13.87C19.06,13.87,18.64,13.87,18.22,13.87Q16.58,13.87,12.81,13.87Q12.83,10.5,12.87,9.04C12.93,7.04,14.12,6.43,15.72,6.37Z" fill-rule="evenodd" fill="#1E4FAD" fill-opacity="1" style="mix-blend-mode:passthrough"/></g></g></svg>