<svg xmlns="http://www.w3.org/2000/svg" xmlns:xlink="http://www.w3.org/1999/xlink" fill="none" version="1.1" width="113.73999786376953" height="113.55000305175781" viewBox="0 0 113.73999786376953 113.55000305175781"><defs><clipPath id="master_svg0_4_12"><rect x="0" y="0" width="113.73999786376953" height="113.55000305175781" rx="0"/></clipPath><linearGradient x1="0.14587795734405518" y1="0.14600299298763275" x2="0.9086626172065735" y2="0.9099295735359192" id="master_svg1_4_060"><stop offset="0%" stop-color="#33E4EF" stop-opacity="1"/><stop offset="100%" stop-color="#2000DC" stop-opacity="1"/></linearGradient></defs><g clip-path="url(#master_svg0_4_12)"><g><path d="M57.25,28.24L50.05,28.24C48.72,28.24,47.59,27.1,47.59,25.78L47.59,23.31C47.59,19.33,44.37,16.11,40.39,16.11L24.07,16.11C33.29,8.57,44.73,4.55,56.87,4.55C85.68,4.55,109,27.87,109,56.68C109,58.01,109.95,59.34,111.27,59.34C112.6,59.34,113.73,58.2,113.73,56.88C113.73,41.71,107.85,27.5,97.05,16.69C86.25,5.88,72.03,0,56.87,0C41.32,0,26.92,6.07,16.11,17.06C7.01,26.54,1.32,38.86,0.190001,51.75C0,53.46,0,55.16,0,56.87C0,69.57,4.17,81.7,11.94,91.75C19.33,101.04,29.19,107.86,40.57,111.27C45.88,112.79,51.37,113.54,56.87,113.54C58.2,113.54,59.33,112.4,59.52,111.27C59.52,109.94,58.38,108.81,57.06,108.81C52.95,108.81,48.84,108.43,44.93,107.5L44.93,103.88C44.93,102.55,46.07,101.42,47.39,101.42L52.13,101.42C54.03,101.42,55.92,100.66,57.25,99.33C58.58,97.81,59.34,96.11,59.34,94.21C59.34,90.23,56.12,87.01,52.14,87.01L14.46,87.01C8.08,78.09,4.73,67.72,4.73,56.68C4.73,55.93,4.73,55.18,4.75,54.41L40.36,54.41C42.26,54.41,43.96,53.65,45.48,52.7C46.81,51.18,47.57,49.48,47.57,47.58C47.57,46.25,48.71,45.12,50.03,45.12L57.23,45.12C61.21,45.12,64.43,41.9,64.43,37.92L64.43,35.46C64.45,31.47,61.23,28.24,57.25,28.24ZM52.13,91.94C53.46,91.94,54.59,93.08,54.59,94.4C54.59,95.16,54.21,95.73,53.83,96.11C53.26,96.68,52.69,96.87,52.12,96.87L47.38,96.87C43.4,96.87,40.18,100.09,40.18,104.07L40.18,106.11C31.73,103.22,24.42,98.46,18.46,91.94L52.13,91.94ZM59.71,37.34C59.71,38.67,58.57,39.8,57.25,39.8L50.05,39.8C46.07,39.8,42.85,43.02,42.85,47C42.85,47.76,42.47,48.33,42.09,48.71C41.52,49.28,40.95,49.47,40.38,49.47L5.2,49.47C6.6,38.93,11.47,28.85,18.83,21.02C18.87,21.02,18.91,21.03,18.96,21.03L40.38,21.03C41.71,21.03,42.84,22.17,42.84,23.5L42.84,25.21C42.84,29.19,46.06,32.41,50.04,32.41L57.24,32.41C58.57,32.41,59.7,33.55,59.7,34.87L59.7,37.34L59.71,37.34ZM92.13,56.68C86.25,56.68,80.76,58.77,76.78,62.94C72.8,66.92,70.52,72.42,70.52,78.11C70.71,93.28,89.67,112.04,90.42,112.8C90.99,113.37,91.56,113.56,92.13,113.56C92.89,113.56,93.65,113.18,93.84,112.8C94.03,112.61,98.77,107.3,103.51,100.48C110.14,91,113.56,83.61,113.56,78.3C113.75,72.61,111.47,67.12,107.49,63.13C103.5,58.95,98,56.68,92.13,56.68ZM91.94,107.48C87.39,102.74,75.26,88.71,75.26,78.1C75.26,73.74,76.97,69.57,80.19,66.35C83.41,63.13,87.58,61.42,92.13,61.42C96.87,61.42,101.04,63.13,104.07,66.16C107.1,69.38,108.81,73.55,108.81,77.91C108.62,85.87,97.82,100.47,91.94,107.48ZM91.94,66.35C85.31,66.35,79.81,71.85,79.81,78.48C79.81,85.11,85.31,90.61,91.94,90.61C98.58,90.61,104.07,85.11,104.07,78.48C104.07,71.84,98.57,66.35,91.94,66.35ZM91.94,85.87C87.77,85.87,84.55,82.46,84.55,78.48C84.55,74.31,87.96,71.09,91.94,71.09C95.92,71.09,99.33,74.5,99.33,78.48C99.33,82.65,95.92,85.87,91.94,85.87Z" fill="url(#master_svg1_4_060)" fill-opacity="1" style="mix-blend-mode:passthrough"/></g></g></svg>