<svg xmlns="http://www.w3.org/2000/svg" xmlns:xlink="http://www.w3.org/1999/xlink" fill="none" version="1.1" width="109.76000213623047" height="139" viewBox="0 0 109.76000213623047 139"><defs><clipPath id="master_svg0_4_26"><rect x="0" y="0" width="109.76000213623047" height="139" rx="0"/></clipPath><linearGradient x1="0.11281979084014893" y1="0.08832745999097824" x2="0.9170854687690735" y2="0.7233630418777466" id="master_svg1_4_063"><stop offset="0%" stop-color="#33E4EF" stop-opacity="1"/><stop offset="100%" stop-color="#2000DC" stop-opacity="1"/></linearGradient></defs><g clip-path="url(#master_svg0_4_26)"><g><path d="M83.15,21.5L89.78,10C90.4,8.92,91.78,8.55,92.86,9.17C93.94,9.79,94.31,11.18,93.69,12.25L87.06,23.76C86.66,24.46,85.91,24.89,85.1,24.89C84.71,24.89,84.32,24.79,83.98,24.59C82.9,23.96,82.53,22.58,83.15,21.5ZM36.31,18.77C36.57,19.75,37.47,20.44,38.49,20.44C38.68,20.44,38.88,20.41,39.08,20.36C40.28,20.04,40.99,18.8,40.67,17.6L37.23,4.78C36.91,3.59,35.68,2.87,34.46,3.19C33.26,3.51,32.55,4.75,32.87,5.95L36.31,18.77ZM69.55,19.22C69.74,19.27,69.94,19.3,70.13,19.3C71.15,19.3,72.04,18.61,72.31,17.63L75.75,4.81C76.07,3.61,75.36,2.37,74.15,2.04C72.95,1.72,71.71,2.44,71.39,3.64L67.95,16.46C67.63,17.66,68.34,18.9,69.55,19.22ZM54.24,17.79C55.48,17.79,56.5,16.78,56.5,15.53L56.5,2.26C56.5,1.01,55.49,0,54.24,0C52.99,0,51.98,1.01,51.98,2.26L51.98,15.53C51.99,16.77,53,17.79,54.24,17.79ZM22,25.94C22.4,26.64,23.15,27.07,23.95,27.07C24.35,27.07,24.74,26.96,25.08,26.77C26.16,26.15,26.53,24.77,25.91,23.69L19.27,12.2C18.97,11.68,18.48,11.3,17.89,11.15C17.31,10.99,16.7,11.08,16.19,11.38C15.11,12,14.74,13.39,15.36,14.46L22,25.94ZM109.1,20.91C108.22,20.03,106.79,20.03,105.91,20.91L96.52,30.3C95.64,31.18,95.64,32.61,96.52,33.49C96.95,33.92,97.51,34.15,98.11,34.15C98.71,34.15,99.28,33.92,99.71,33.49L109.1,24.1C109.98,23.22,109.98,21.79,109.1,20.91ZM3.85,24C2.97,23.12,1.54,23.12,0.66,24C-0.22,24.88,-0.22,26.31,0.66,27.19L10.04,36.58C10.47,37.01,11.03,37.24,11.64,37.24C12.25,37.24,12.81,37.01,13.24,36.58C13.67,36.15,13.9,35.59,13.9,34.99C13.9,34.39,13.67,33.82,13.24,33.39L3.85,24ZM98.07,61.06C98.07,74.2,91.76,86.64,81.17,94.45L81.17,112.16C81.17,113.4,80.16,114.42,78.91,114.42L73.4,114.42L73.4,125.34C73.4,126.58,72.39,127.6,71.14,127.6L63.53,127.6L63.53,136.75C63.53,137.99,62.52,139.01,61.27,139.01L51.94,139.01C50.7,139.01,49.68,138,49.68,136.75L49.68,127.6L42.07,127.6C40.83,127.6,39.81,126.59,39.81,125.34L39.81,114.42L34.3,114.42C33.06,114.42,32.04,113.41,32.04,112.16L32.04,94.45C21.46,86.65,15.15,74.21,15.15,61.06C15.15,38.2,33.74,19.6,56.59,19.6C79.48,19.6,98.07,38.2,98.07,61.06ZM54.21,127.59L54.21,134.49L59.02,134.49L59.02,127.59L54.21,127.59ZM44.34,114.41L44.34,123.07L68.88,123.07L68.88,114.41L44.34,114.41ZM36.58,93.29L36.58,109.9L76.65,109.9L76.65,93.29C76.65,92.55,77.01,91.86,77.62,91.44C87.6,84.52,93.55,73.16,93.55,61.07C93.55,40.7,76.98,24.12,56.62,24.12C36.26,24.12,19.69,40.69,19.69,61.07C19.69,73.17,25.64,84.53,35.61,91.44C36.22,91.86,36.58,92.55,36.58,93.29Z" fill="url(#master_svg1_4_063)" fill-opacity="1" style="mix-blend-mode:passthrough"/></g></g></svg>