<svg xmlns="http://www.w3.org/2000/svg" xmlns:xlink="http://www.w3.org/1999/xlink" fill="none" version="1.1" width="96" height="96.0999984741211" viewBox="0 0 96 96.0999984741211"><defs><clipPath id="master_svg0_20_0"><rect x="0" y="0" width="96" height="96.0999984741211" rx="0"/></clipPath><linearGradient x1="0.1461292952299118" y1="0.14936524629592896" x2="0.8524118661880493" y2="0.8541779518127441" id="master_svg1_20_90"><stop offset="0%" stop-color="#33E2ED" stop-opacity="1"/><stop offset="100%" stop-color="#2000DA" stop-opacity="1"/></linearGradient></defs><g clip-path="url(#master_svg0_20_0)"><g><path d="M60.09999990463257,59.7C61.19999990463257,56.2,61.69999990463257,52.2,61.69999990463257,48.2C61.69999990463257,44.2,61.09999990463257,40.2,60.09999990463257,36.7C57.69999990463257,28.7,53.19999990463257,23.9,47.899999904632566,23.9C42.59999990463257,23.9,38.09999990463257,28.7,35.69999990463257,36.7C34.59999990463257,40.2,34.09999990463257,44.2,34.09999990463257,48.2C34.09999990463257,52.2,34.69999990463257,56.2,35.69999990463257,59.7C38.09999990463257,67.7,42.59999990463257,72.5,47.899999904632566,72.5C53.29999990463257,72.5,57.69999990463257,67.7,60.09999990463257,59.7ZM56.29999990463257,37.7C57.29999990463257,40.9,57.69999990463257,44.4,57.69999990463257,48.1C57.69999990463257,51.8,57.19999990463257,55.3,56.29999990463257,58.5C54.399999904632566,64.6,51.19999990463257,68.4,47.99999990463257,68.4C44.59999990463257,68.4,41.399999904632566,64.6,39.69999990463257,58.5C38.69999990463257,55.3,38.29999990463257,51.8,38.29999990463257,48.1C38.29999990463257,44.4,38.79999990463257,40.9,39.69999990463257,37.7C41.59999990463257,31.6,44.79999990463257,27.8,47.99999990463257,27.8C51.19999990463257,27.8,54.399999904632566,31.7,56.29999990463257,37.7ZM58.99999990463257,39C61.59999990463257,37.9,63.59999990463257,36.1,65.59999990463257,34.2C66.39999990463257,33.4,66.39999990463257,32.1,65.59999990463257,31.3C64.79999990463257,30.5,63.49999990463257,30.5,62.69999990463257,31.3C61.09999990463257,32.9,59.29999990463257,34.3,57.29999990463257,35.3C54.399999904632566,36.7,51.19999990463257,37.5,47.99999990463257,37.5C44.79999990463257,37.5,41.59999990463257,36.9,38.69999990463257,35.1C36.59999990463257,34.1,34.899999904632566,32.7,33.29999990463257,31.1C32.49999990463257,30.3,31.19999990463257,30.3,30.39999990463257,31.1C29.59999990463257,31.9,29.59999990463257,33.2,30.39999990463257,34C32.29999990463257,35.9,34.59999990463257,37.5,36.99999990463257,38.8C40.399999904632566,40.6,44.19999990463257,41.5,47.99999990463257,41.5C51.79999990463257,41.6,55.69999990463257,40.8,58.99999990463257,39ZM65.39999990463257,64.9C66.19999990463256,64.1,66.19999990463256,62.8,65.39999990463257,62C63.49999990463257,60.1,61.19999990463257,58.5,58.79999990463257,57.2C55.399999904632566,55.4,51.59999990463257,54.5,47.79999990463257,54.5C43.99999990463257,54.5,40.09999990463257,55.5,36.79999990463257,57.2C34.399999904632566,58.5,32.29999990463257,60.1,30.39999990463257,62C29.59999990463257,62.8,29.59999990463257,64.1,30.39999990463257,64.9C31.19999990463257,65.7,32.49999990463257,65.7,33.29999990463257,64.9C34.899999904632566,63.3,36.69999990463257,61.9,38.69999990463257,60.9C41.59999990463257,59.5,44.79999990463257,58.7,47.99999990463257,58.7C51.19999990463257,58.7,54.399999904632566,59.3,57.29999990463257,60.9C59.399999904632566,61.9,61.09999990463257,63.3,62.69999990463257,64.9C62.99999990463257,65.4,63.69999990463257,65.5,64.09999990463257,65.5C64.59999990463257,65.6,65.09999990463257,65.4,65.39999990463257,64.9ZM72.39999990463257,48.1C72.39999990463257,47,71.39999990463257,46,70.29999990463257,46L25.69999990463257,46C24.59999990463257,46,23.59999990463257,47,23.59999990463257,48.1C23.59999990463257,49.2,24.59999990463257,50.2,25.69999990463257,50.2L70.19999990463256,50.2C71.29999990463257,50.2,72.29999990463257,49.3,72.39999990463257,48.1ZM50.09999990463257,70.5L50.09999990463257,25.9C50.09999990463257,24.8,49.09999990463257,23.8,47.99999990463257,23.8C46.899999904632566,23.8,45.899999904632566,24.8,45.899999904632566,25.9L45.899999904632566,70.4C45.899999904632566,71.5,46.899999904632566,72.5,47.99999990463257,72.5C49.09999990463257,72.5,50.09999990463257,71.5,50.09999990463257,70.5ZM65.59999990463257,64.9C69.89999990463257,60.3,72.29999990463257,54.3,72.29999990463257,48.1C72.29999990463257,41.9,69.89999990463257,35.8,65.59999990463257,31.3C60.99999990463257,26.5,54.69999990463257,23.8,47.99999990463257,23.8C41.29999990463257,23.8,34.99999990463257,26.5,30.39999990463257,31.3C26.09999990463257,35.9,23.69999990463257,41.9,23.69999990463257,48.1C23.69999990463257,54.3,26.09999990463257,60.4,30.39999990463257,64.9C34.99999990463257,69.7,41.29999990463257,72.4,47.99999990463257,72.4C54.69999990463257,72.5,60.899999904632566,69.7,65.59999990463257,64.9ZM62.69999990463257,34.1C66.39999990463257,37.9,68.29999990463257,42.9,68.29999990463257,48.2C68.29999990463257,53.5,66.39999990463257,58.4,62.69999990463257,62.3C58.899999904632566,66.3,53.59999990463257,68.5,47.99999990463257,68.5C42.399999904632566,68.5,37.09999990463257,66.3,33.29999990463257,62.3C29.59999990463257,58.5,27.69999990463257,53.5,27.69999990463257,48.2C27.69999990463257,42.9,29.59999990463257,38,33.29999990463257,34.1C37.09999990463257,30.1,42.399999904632566,27.9,47.99999990463257,27.9C53.59999990463257,27.9,58.899999904632566,30.1,62.69999990463257,34.1ZM80.29999990463257,48.1C80.29999990463257,30.3,65.69999990463256,15.8,47.99999990463257,15.8C30.19999990463257,15.8,15.699999904632568,30.4,15.699999904632568,48.1C15.699999904632568,65.9,30.299999904632568,80.4,47.99999990463257,80.4C65.69999990463256,80.4,80.29999990463257,65.9,80.29999990463257,48.1ZM76.29999990463257,48.1C76.29999990463257,63.8,63.69999990463257,76.4,47.99999990463257,76.4C32.29999990463257,76.4,19.69999990463257,63.8,19.69999990463257,48.1C19.69999990463257,32.4,32.29999990463257,19.8,47.99999990463257,19.8C63.69999990463257,19.8,76.29999990463257,32.5,76.29999990463257,48.1ZM75.59999990463257,17.1C76.39999990463257,16.3,76.39999990463257,15,75.59999990463257,14.2L75.39999990463257,14C68.69999990463256,8.6,60.69999990463257,5.2,51.99999990463257,4.4C50.99999990463257,4.4,50.09999990463257,5.4,50.09999990463257,6.5C50.09999990463257,7.5,50.899999904632566,8.3,51.899999904632566,8.4C59.69999990463257,9.2,67.09999990463257,12.2,73.19999990463256,17.2L73.39999990463257,17.4C73.69999990463256,17.6,74.19999990463256,17.7,74.49999990463257,17.7C74.99999990463257,17.8,75.49999990463257,17.6,75.59999990463257,17.1ZM91.59999990463257,44L91.59999990463257,43.8C90.79999990463257,35.2,87.39999990463257,27.2,81.99999990463257,20.5L81.79999990463257,20.3C80.99999990463257,19.5,79.69999990463256,19.5,78.89999990463257,20.3C78.29999990463257,20.9,78.09999990463257,21.9,78.59999990463257,22.7L78.79999990463257,22.9C83.79999990463257,29,86.79999990463257,36.2,87.59999990463257,44C87.59999990463257,45.1,88.39999990463257,45.9,89.49999990463257,45.9C90.69999990463256,45.9,91.59999990463257,45.1,91.59999990463257,44ZM81.89999990463257,75.8Q82.09999990463257,75.8,82.09999990463257,75.6C87.49999990463257,68.9,90.89999990463257,60.9,91.69999990463256,52.2L91.69999990463256,52C91.69999990463256,51,90.69999990463256,50.1,89.59999990463257,50.1C88.59999990463257,50.1,87.79999990463257,50.9,87.69999990463256,51.9C86.89999990463257,59.7,83.89999990463257,67.1,78.89999990463257,73.2C78.89999990463257,73.4,78.69999990463256,73.4,78.69999990463256,73.5C78.19999990463256,74.3,78.39999990463257,75.4,78.99999990463257,76.1C79.29999990463257,76.4,79.79999990463257,76.6,80.29999990463257,76.6C80.89999990463257,76.6,81.39999990463257,76.4,81.89999990463257,75.8ZM52.29999990463257,91.8C60.899999904632566,91,68.89999990463257,87.6,75.59999990463257,82.2Q75.59999990463257,82,75.79999990463257,82C76.59999990463257,81.2,76.79999990463257,79.9,75.99999990463257,79.1C75.39999990463257,78.5,74.19999990463256,78.3,73.39999990463257,78.8C73.19999990463256,78.8,73.19999990463256,79,73.09999990463257,79C66.99999990463257,84,59.79999990463257,87,51.99999990463257,87.8C50.899999904632566,87.8,50.09999990463257,88.6,50.09999990463257,89.7C50.09999990463257,90.8,51.09999990463257,91.8,52.19999990463257,91.8Q52.29999990463257,91.8,52.29999990463257,91.8ZM45.69999990463257,89.7C45.69999990463257,88.7,44.899999904632566,87.9,43.899999904632566,87.8C36.09999990463257,87,28.799999904632568,84,22.69999990463257,79L22.499999904632567,78.8C21.89999990463257,78.3,20.69999990463257,78.5,20.09999990463257,79.1C19.299999904632568,79.9,19.299999904632568,81.2,20.09999990463257,82L20.299999904632568,82.2C26.999999904632567,87.6,34.99999990463257,91,43.69999990463257,91.8L43.899999904632566,91.8C44.899999904632566,91.8,45.69999990463257,90.8,45.69999990463257,89.7ZM17.09999990463257,76C17.69999990463257,75.2,17.89999990463257,74.2,17.39999990463257,73.4L17.19999990463257,73.2C12.199999904632568,67.1,9.199999904632568,59.9,8.399999904632569,52.1C8.399999904632569,51,7.599999904632568,50.2,6.499999904632569,50.2C5.399999904632568,50.2,4.399999904632568,51.2,4.399999904632568,52.3L4.399999904632568,52.5C5.199999904632568,61.1,8.599999904632568,69.1,13.999999904632569,75.8L14.199999904632568,76C14.499999904632569,76.5,15.199999904632568,76.6,15.599999904632568,76.6C16.19999990463257,76.6,16.59999990463257,76.4,17.09999990463257,76ZM8.199999904632568,44.1C8.999999904632569,36.3,11.999999904632569,28.9,16.999999904632567,22.9L17.19999990463257,22.7C17.799999904632568,22.1,17.69999990463257,20.9,16.999999904632567,20.3C16.19999990463257,19.5,14.899999904632569,19.5,14.099999904632568,20.3Q13.899999904632569,20.3,13.899999904632569,20.5C8.499999904632569,27.2,5.099999904632568,35.2,4.2999999046325685,43.8L4.2999999046325685,44C4.2999999046325685,45,5.2999999046325685,45.9,6.399999904632568,45.9C7.399999904632568,45.9,8.299999904632568,45.1,8.199999904632568,44.1ZM22.69999990463257,17.6L22.89999990463257,17.4C28.999999904632567,12.4,36.19999990463257,9.4,43.99999990463257,8.6C45.09999990463257,8.6,45.899999904632566,7.8,45.899999904632566,6.7C45.899999904632566,5.6,44.899999904632566,4.6,43.79999990463257,4.6L43.59999990463257,4.6C34.99999990463257,5.4,26.999999904632567,8.8,20.299999904632568,14.2L20.09999990463257,14.4C19.299999904632568,15.2,19.299999904632568,16.5,20.09999990463257,17.3C20.59999990463257,17.6,21.09999990463257,17.8,21.499999904632567,17.8C21.89999990463257,17.8,22.19999990463257,17.8,22.69999990463257,17.6ZM54.19999990463257,6.6C54.19999990463257,6.4,54.19999990463257,6.4,54.19999990463257,6.3C54.19999990463257,2.7,51.49999990463257,0,47.99999990463257,0C44.49999990463257,0,41.79999990463257,2.9,41.79999990463257,6.2C41.79999990463257,6.4,41.79999990463257,6.4,41.79999990463257,6.5C41.99999990463257,9.9,44.69999990463257,12.4,47.99999990463257,12.4C51.29999990463257,12.5,54.09999990463257,9.9,54.19999990463257,6.6ZM50.19999990463257,6.4Q50.19999990463257,6.6,50.19999990463257,6.6C49.99999990463257,7.7,49.19999990463257,8.7,47.99999990463257,8.7C46.69999990463257,8.7,45.79999990463257,7.7,45.79999990463257,6.6Q45.79999990463257,6.4,45.79999990463257,6.4C45.79999990463257,5.1,46.79999990463257,4.2,47.99999990463257,4.2C49.29999990463257,4.2,50.19999990463257,5.1,50.19999990463257,6.4ZM54.19999990463257,89.9C54.19999990463257,89.7,54.19999990463257,89.7,54.19999990463257,89.6C53.99999990463257,86.2,51.29999990463257,83.7,47.99999990463257,83.7C44.59999990463257,83.7,41.899999904632566,86.3,41.79999990463257,89.6C41.79999990463257,89.8,41.79999990463257,89.8,41.79999990463257,89.9C41.79999990463257,93.4,44.69999990463257,96.1,47.99999990463257,96.1C51.29999990463257,96.1,54.19999990463257,93.4,54.19999990463257,89.9ZM50.19999990463257,89.9Q50.19999990463257,90.1,50.19999990463257,90.1C50.19999990463257,91.4,49.19999990463257,92.3,47.99999990463257,92.3C46.69999990463257,92.3,45.79999990463257,91.3,45.79999990463257,90.1Q45.79999990463257,89.9,45.79999990463257,89.9C45.99999990463257,88.8,46.899999904632566,87.8,47.99999990463257,87.8C49.09999990463257,87.8,50.09999990463257,88.6,50.19999990463257,89.9ZM81.69999990463256,23.2L81.89999990463257,23C82.99999990463257,21.9,83.69999990463256,20.3,83.69999990463256,18.7C83.69999990463256,17.1,83.09999990463257,15.5,81.89999990463257,14.4C80.79999990463257,13.3,79.19999990463256,12.6,77.59999990463257,12.6C75.99999990463257,12.6,74.39999990463257,13.2,73.29999990463257,14.4L73.09999990463257,14.6C70.89999990463257,17,70.89999990463257,20.7,73.29999990463257,23.1C74.39999990463257,24.2,75.99999990463257,24.9,77.59999990463257,24.9C78.99999990463257,24.8,80.59999990463257,24.2,81.69999990463256,23.2ZM78.99999990463257,17C79.49999990463257,17.5,79.59999990463257,18,79.59999990463257,18.6C79.59999990463257,19.2,79.39999990463257,19.7,78.99999990463257,20.2C78.69999990463256,20.7,77.99999990463257,20.8,77.59999990463257,20.8C76.99999990463257,20.8,76.49999990463257,20.6,75.99999990463257,20.2C75.19999990463256,19.4,75.19999990463256,18,75.99999990463257,17.2C76.49999990463257,16.7,76.99999990463257,16.6,77.59999990463257,16.6C77.99999990463257,16.5,78.69999990463256,16.6,78.99999990463257,17ZM22.69999990463257,82L22.89999990463257,81.8C25.09999990463257,79.4,25.09999990463257,75.7,22.69999990463257,73.3C21.59999990463257,72.2,19.999999904632567,71.5,18.39999990463257,71.5C16.799999904632568,71.5,15.399999904632569,72.1,14.199999904632568,73.1L13.999999904632569,73.3C12.899999904632569,74.4,12.199999904632568,76,12.199999904632568,77.6C12.199999904632568,79.2,12.799999904632568,80.8,13.999999904632569,81.9C15.099999904632568,83,16.69999990463257,83.7,18.299999904632568,83.7C20.19999990463257,83.8,21.59999990463257,83.2,22.69999990463257,82ZM20.19999990463257,76.3C20.999999904632567,77.1,20.999999904632567,78.5,20.19999990463257,79.3C19.69999990463257,79.8,19.19999990463257,79.9,18.59999990463257,79.9C17.999999904632567,79.9,17.499999904632567,79.7,16.999999904632567,79.3C16.499999904632567,78.8,16.39999990463257,78.3,16.39999990463257,77.7C16.39999990463257,77.1,16.59999990463257,76.6,16.999999904632567,76.1C17.299999904632568,75.6,17.999999904632567,75.5,18.39999990463257,75.5C18.999999904632567,75.5,19.499999904632567,75.8,20.19999990463257,76.3ZM95.99999990463257,48.1C95.99999990463257,44.6,93.09999990463257,41.9,89.79999990463257,41.9C89.59999990463257,41.9,89.59999990463257,41.9,89.49999990463257,41.9C86.09999990463257,42.1,83.59999990463257,44.8,83.59999990463257,48.1C83.59999990463257,51.4,86.19999990463256,54.2,89.49999990463257,54.3C89.69999990463256,54.3,89.69999990463256,54.3,89.79999990463257,54.3C93.19999990463256,54.4,95.99999990463257,51.5,95.99999990463257,48.1ZM91.99999990463257,48.1C91.99999990463257,49.4,90.99999990463257,50.3,89.79999990463257,50.3Q89.59999990463257,50.3,89.59999990463257,50.3C88.49999990463257,50.1,87.49999990463257,49.2,87.49999990463257,48.1C87.49999990463257,46.8,88.49999990463257,45.9,89.69999990463256,45.9C90.99999990463257,45.9,91.99999990463257,46.9,91.99999990463257,48.1ZM6.599999904632568,54.4C9.999999904632569,54.2,12.499999904632569,51.5,12.499999904632569,48.2C12.499999904632569,44.9,9.899999904632569,42.1,6.599999904632568,42C6.399999904632568,42,6.399999904632568,42,6.2999999046325685,42C2.7999999046325685,42,0.09999990463256836,44.7,0.09999990463256836,48.2C0.09999990463256836,51.7,2.9999999046325683,54.4,6.2999999046325685,54.4C6.199999904632568,54.4,6.399999904632568,54.4,6.599999904632568,54.4ZM6.199999904632568,45.9C7.499999904632569,46.1,8.399999904632569,46.9,8.399999904632569,48.1C8.399999904632569,49.4,7.399999904632568,50.3,6.2999999046325685,50.3Q6.099999904632568,50.3,6.099999904632568,50.3C4.7999999046325685,50.3,3.899999904632568,49.3,3.899999904632568,48.1C3.9999999046325683,46.9,4.999999904632569,45.9,6.199999904632568,45.9ZM22.69999990463257,23C24.89999990463257,20.8,25.09999990463257,16.9,22.89999990463257,14.5L22.69999990463257,14.3C21.59999990463257,13.2,19.999999904632567,12.5,18.39999990463257,12.5C16.799999904632568,12.5,15.199999904632568,13.1,14.099999904632568,14.3C12.999999904632569,15.4,12.299999904632568,17,12.299999904632568,18.6C12.299999904632568,20.2,12.899999904632569,21.8,14.099999904632568,22.9L14.299999904632568,23.1C15.399999904632569,24.1,16.89999990463257,24.7,18.499999904632567,24.7C20.19999990463257,24.8,21.59999990463257,24.2,22.69999990463257,23ZM19.799999904632568,17.3C20.59999990463257,18.3,20.59999990463257,19.5,19.799999904632568,20.3C19.299999904632568,20.8,18.799999904632568,20.9,18.19999990463257,20.9C17.69999990463257,20.9,17.09999990463257,20.6,16.799999904632568,20.3C16.299999904632568,19.8,16.19999990463257,19.3,16.19999990463257,18.7C16.19999990463257,18.1,16.39999990463257,17.6,16.799999904632568,17.1C17.299999904632568,16.6,17.799999904632568,16.5,18.39999990463257,16.5C18.999999904632567,16.5,19.499999904632567,16.6,19.799999904632568,17.3ZM81.89999990463257,82C82.99999990463257,80.9,83.69999990463256,79.3,83.69999990463256,77.7C83.69999990463256,76.1,83.09999990463257,74.5,81.89999990463257,73.4L81.69999990463256,73.2C80.59999990463257,72.2,79.09999990463257,71.6,77.49999990463257,71.6C75.89999990463257,71.6,74.29999990463257,72.2,73.19999990463256,73.4C70.99999990463257,75.6,70.79999990463257,79.5,72.99999990463257,81.9L73.19999990463256,82.1C74.29999990463257,83.2,75.89999990463257,83.9,77.49999990463257,83.9C79.19999990463256,83.8,80.79999990463257,83.2,81.89999990463257,82ZM79.19999990463256,76C79.69999990463256,76.5,79.79999990463257,77,79.79999990463257,77.6C79.79999990463257,78.2,79.59999990463257,78.7,79.19999990463256,79.2C78.69999990463256,79.7,78.19999990463256,79.8,77.59999990463257,79.8C76.99999990463257,79.8,76.49999990463257,79.6,75.99999990463257,79.2C75.19999990463256,78.2,75.19999990463256,77,75.99999990463257,76.2C76.49999990463257,75.7,76.99999990463257,75.6,77.59999990463257,75.6C77.99999990463257,75.5,78.49999990463257,75.6,79.19999990463256,76Z" fill="url(#master_svg1_20_90)" fill-opacity="1" style="mix-blend-mode:passthrough"/></g></g></svg>