<svg xmlns="http://www.w3.org/2000/svg" xmlns:xlink="http://www.w3.org/1999/xlink" fill="none" version="1.1" width="119.44999694824219" height="126.05000305175781" viewBox="0 0 119.44999694824219 126.05000305175781"><defs><clipPath id="master_svg0_4_16"><rect x="0" y="0" width="119.44999694824219" height="126.05000305175781" rx="0"/></clipPath><linearGradient x1="0.05121965333819389" y1="0.15366500616073608" x2="0.871243953704834" y2="0.9309410452842712" id="master_svg1_4_061"><stop offset="0%" stop-color="#33E4EF" stop-opacity="1"/><stop offset="100%" stop-color="#2000DC" stop-opacity="1"/></linearGradient><linearGradient x1="0.14658449590206146" y1="0.14654900133609772" x2="0.8533366322517395" y2="0.8532991409301758" id="master_svg2_4_062"><stop offset="0%" stop-color="#33E4EF" stop-opacity="1"/><stop offset="100%" stop-color="#2000DC" stop-opacity="1"/></linearGradient></defs><g clip-path="url(#master_svg0_4_16)"><g><g><g><path d="M88.87,126.05000188827515C85.3,126.05000188827515,82.39,123.15000188827514,82.39,119.58000188827515C82.39,118.00000188827515,82.96,116.51000188827514,83.98,115.35000188827514L76.56,99.51000188827514C72.11,101.39000188827515,67.4,102.34000188827514,62.52,102.34000188827514C54.02,102.34000188827514,45.84,99.36000188827515,39.32,93.93000188827514L12.72,115.26000188827514C12.86,115.80000188827515,12.94,116.35000188827514,12.94,116.91000188827515C12.94,120.48000188827514,10.04,123.39000188827515,6.47,123.39000188827515C2.9,123.39000188827515,0,120.49000188827515,0,116.92000188827515C0,113.35000188827514,2.9,110.45000188827515,6.47,110.45000188827515C7.5,110.45000188827515,8.52,110.70000188827515,9.43,111.17000188827515L35.51,90.26000188827514C29.52,83.59000188827514,26.24,75.07000188827514,26.24,66.07000188827514C26.24,57.55000188827515,29.23,49.350001888275145,34.69,42.83000188827515L18.2,24.620001888275148C17.55,24.830001888275145,16.87,24.950001888275146,16.18,24.950001888275146C12.61,24.950001888275146,9.71,22.050001888275148,9.71,18.480001888275147C9.71,14.910001888275147,12.61,12.010001888275147,16.18,12.010001888275147C19.75,12.010001888275147,22.66,14.910001888275147,22.66,18.480001888275147C22.66,19.390001888275147,22.47,20.280001888275148,22.1,21.100001888275145L38.36,39.060001888275146C44.41,33.65000188827515,52.02,30.440001888275148,60.1,29.910001888275147L60.3,12.350001888275147C58.06,11.300001888275146,56.58,9.050001888275146,56.58,6.490001888275146C56.58,2.9200018882751464,59.48,0.020002365112146484,63.05,0.020002365112146484C66.62,0.020002365112146484,69.53,2.9200018882751464,69.53,6.490001888275146C69.53,9.140001888275146,67.92,11.480001888275147,65.55,12.470001888275146L65.35,29.950001888275146C75.51,30.750001888275147,84.99,35.90000188827515,91.24,44.00000188827514L106.76,30.900001888275145C106.59,30.310001888275146,106.5,29.700001888275146,106.5,29.080001888275145C106.5,25.510001888275145,109.4,22.610001888275146,112.97,22.610001888275146C116.55,22.610001888275146,119.46,25.510001888275145,119.46,29.080001888275145C119.46,32.65000188827515,116.55,35.55000188827515,112.97,35.55000188827515C111.98,35.55000188827515,111.03,35.33000188827515,110.16,34.90000188827515L94.17,48.40000188827515C97.19,53.79000188827515,98.78,59.87000188827515,98.78,66.08000188827515C98.78,72.44000188827515,97.11,78.67000188827515,93.93,84.16000188827515L107.26,96.51000188827514C108.06,96.16000188827515,108.93,95.98000188827514,109.82,95.98000188827514C113.39,95.98000188827514,116.3,98.89000188827515,116.3,102.47000188827515C116.3,106.03000188827515,113.39,108.93000188827514,109.82,108.93000188827514C106.25,108.93000188827514,103.35,106.03000188827515,103.35,102.47000188827515C103.35,101.76000188827514,103.47,101.05000188827515,103.7,100.38000188827515L90.95,88.54000188827514C88.25,91.95000188827515,84.94,94.87000188827514,81.24,97.12000188827514L88.73,113.11000188827515C88.78,113.11000188827515,88.82,113.11000188827515,88.87,113.11000188827515C92.43,113.11000188827515,95.33,116.01000188827514,95.33,119.58000188827515C95.33,123.15000188827514,92.43,126.05000188827515,88.87,126.05000188827515ZM88.87,118.37000188827514C88.19,118.37000188827514,87.64,118.91000188827515,87.64,119.58000188827515C87.64,120.25000188827515,88.19,120.80000188827515,88.87,120.80000188827515C89.54,120.80000188827515,90.08,120.25000188827515,90.08,119.58000188827515C90.08,118.91000188827515,89.53,118.37000188827514,88.87,118.37000188827514ZM6.47,115.70000188827515C5.8,115.70000188827515,5.25,116.25000188827515,5.25,116.92000188827515C5.25,117.60000188827514,5.8,118.15000188827514,6.47,118.15000188827514C7.14,118.15000188827514,7.69,117.60000188827514,7.69,116.92000188827515C7.69,116.25000188827515,7.14,115.70000188827515,6.47,115.70000188827515ZM109.82,101.23000188827514C109.15,101.23000188827514,108.6,101.78000188827515,108.6,102.46000188827514C108.6,103.13000188827515,109.15,103.67000188827515,109.82,103.67000188827515C110.5,103.67000188827515,111.05,103.13000188827515,111.05,102.46000188827514C111.05,101.78000188827515,110.49,101.23000188827514,109.82,101.23000188827514ZM62.52,35.060001888275146C45.41,35.060001888275146,31.5,48.97000188827515,31.5,66.07000188827514C31.5,83.18000188827514,45.42,97.09000188827514,62.52,97.09000188827514C79.62,97.09000188827514,93.53,83.17000188827515,93.53,66.07000188827514C93.52,48.97000188827515,79.61,35.060001888275146,62.52,35.060001888275146ZM112.97,27.840001888275147C112.3,27.840001888275147,111.75,28.390001888275147,111.75,29.060001888275146C111.75,29.730001888275147,112.3,30.280001888275148,112.97,30.280001888275148C113.65,30.280001888275148,114.2,29.730001888275147,114.2,29.060001888275146C114.2,28.390001888275147,113.65,27.840001888275147,112.97,27.840001888275147ZM16.18,17.260001888275145C15.51,17.260001888275145,14.96,17.800001888275148,14.96,18.470001888275146C14.96,19.140001888275147,15.51,19.690001888275148,16.18,19.690001888275148C16.86,19.690001888275148,17.41,19.140001888275147,17.41,18.470001888275146C17.4,17.800001888275148,16.85,17.260001888275145,16.18,17.260001888275145ZM62.95,7.650001888275146C63.06,7.650001888275146,63.17,7.660001888275146,63.27,7.670001888275147C63.85,7.570001888275146,64.28,7.070001888275146,64.28,6.470001888275147C64.28,5.800001888275147,63.73,5.250001888275147,63.05,5.250001888275147C62.38,5.250001888275147,61.83,5.800001888275147,61.83,6.470001888275147C61.83,7.040001888275146,62.23,7.530001888275146,62.78,7.650001888275146C62.84,7.650001888275146,62.9,7.650001888275146,62.95,7.650001888275146Z" fill="url(#master_svg1_4_061)" fill-opacity="1" style="mix-blend-mode:passthrough"/></g></g><g><g><path d="M62.51999984741211,91.43000265121461C48.53999984741211,91.43000265121461,37.15999984741211,80.0500026512146,37.15999984741211,66.0700026512146C37.15999984741211,52.0900026512146,48.53999984741211,40.7200026512146,62.51999984741211,40.7200026512146C76.49999984741211,40.7200026512146,87.86999984741212,52.0900026512146,87.86999984741212,66.0700026512146C87.85999984741211,80.0500026512146,76.48999984741211,91.43000265121461,62.51999984741211,91.43000265121461ZM62.51999984741211,45.9700026512146C51.429999847412105,45.9700026512146,42.40999984741211,54.9800026512146,42.40999984741211,66.0600026512146C42.40999984741211,77.1500026512146,51.429999847412105,86.1700026512146,62.51999984741211,86.1700026512146C73.5999998474121,86.1700026512146,82.60999984741211,77.1500026512146,82.60999984741211,66.0600026512146C82.60999984741211,54.990002651214596,73.5999998474121,45.9700026512146,62.51999984741211,45.9700026512146Z" fill="url(#master_svg2_4_062)" fill-opacity="1" style="mix-blend-mode:passthrough"/></g></g></g></g></svg>