<svg xmlns="http://www.w3.org/2000/svg" xmlns:xlink="http://www.w3.org/1999/xlink" fill="none" version="1.1" width="80.80000305175781" height="93.69999694824219" viewBox="0 0 80.80000305175781 93.69999694824219"><defs><clipPath id="master_svg0_20_8"><rect x="0" y="0" width="80.80000305175781" height="93.69999694824219" rx="0"/></clipPath><linearGradient x1="0.03542698174715042" y1="0.11400960385799408" x2="0.9116448163986206" y2="0.8695955276489258" id="master_svg1_20_92"><stop offset="0%" stop-color="#33E2ED" stop-opacity="1"/><stop offset="100%" stop-color="#2000DA" stop-opacity="1"/></linearGradient></defs><g clip-path="url(#master_svg0_20_8)"><g><path d="M68.7,43.4L72.7,43.4L72.7,29.2L68.7,29.2L68.7,43.4ZM62.7,43.4L66.7,43.4L66.7,35.3L62.7,35.3L62.7,43.4ZM56.6,43.4L60.6,43.4L60.6,25.2L56.6,25.2L56.6,43.4ZM50.6,43.4L54.6,43.4L54.6,35.3L50.6,35.3L50.6,43.4ZM44.5,43.4L48.5,43.4L48.5,33.2L44.5,33.2L44.5,43.4ZM38.4,65.5C37.8,65.5,37.3,65.8,36.9,66.1C36.4,66.4,36.3,67.1,36.3,67.6C36.3,68.7,37.3,69.7,38.4,69.7C39,69.7,39.5,69.4,39.9,69.1C40.4,68.8,40.5,68.3,40.5,67.6C40.5,67,40.2,66.5,39.9,66.1C39.5,65.6,39,65.5,38.4,65.5ZM32.4,65.5C31.8,65.5,31.3,65.8,30.9,66.1C30.4,66.4,30.3,67.1,30.3,67.6C30.3,68.7,31.3,69.7,32.4,69.7C33,69.7,33.5,69.4,33.9,69.1C34.4,68.8,34.5,68.3,34.5,67.6C34.5,67,34.2,66.5,33.9,66.1C33.5,65.6,32.9,65.5,32.4,65.5ZM62.7,67.6C62.7,66.5,61.7,65.5,60.6,65.5L44.5,65.5C43.4,65.5,42.4,66.3,42.4,67.4C42.4,68.5,43.4,69.5,44.5,69.5L60.6,69.5C61.8,69.5,62.7,68.7,62.7,67.6ZM62.7,83.5C62.7,82.4,61.7,81.4,60.6,81.4L24.3,81.4C23.2,81.4,22.2,82.4,22.2,83.5C22.2,84.6,23.2,85.6,24.3,85.6L60.6,85.6C61.8,85.6,62.7,84.7,62.7,83.5ZM62.4,91.8L62.4,69.5L72.6,69.5C73.7,69.5,74.7,68.5,74.7,67.4L74.7,52.2L78.7,52.2C79.8,52.2,80.8,51.2,80.8,50.1L80.8,34C80.8,26.4,77.9,19.3,72.6,14C67.3,8.7,60.2,5.8,52.6,5.8L50.5,5.8C45.7,5.8,40.7,7.1,36.5,9.5C35.5,10,35.2,11.3,35.7,12.2C36.2,13.2,37.5,13.5,38.4,13C42.1,10.9,46.3,9.8,50.5,9.8L52.6,9.8C66.1,9.8,76.8,20.4,76.8,34L76.8,48.2L73,48.2C71.9,48.2,70.9,49.2,70.9,50.3L70.9,65.5L60.8,65.5C59.7,65.5,58.7,66.5,58.7,67.6L58.7,89.7L26.4,89.7L26.4,43.2C26.4,42.1,25.4,41.1,24.3,41.1C23.2,41.1,22.2,42.1,22.2,43.2L22.2,91.6C22.2,92.7,23.2,93.7,24.3,93.7L60.6,93.7C61.8,93.7,62.7,92.7,62.4,91.8ZM30.3,22.7C30.3,18.5,26.9,15.1,22.7,15.1C18.5,15.1,15.1,18.5,15.1,22.7C15.1,26.9,18.5,30.3,22.7,30.3C26.9,30.3,30.3,26.9,30.3,22.7ZM26.3,22.7C26.3,24.6,24.7,26.2,22.8,26.2C20.9,26.2,19.3,24.6,19.3,22.7C19.3,20.8,20.9,19.2,22.8,19.2C24.7,19.2,26.3,20.8,26.3,22.7ZM26.6,43.5L27.6,38.8C28.7,38.5,29.7,38,30.7,37.5L34.7,40.1C35.5,40.6,36.6,40.4,37.3,39.8L40,37.1C40.6,36.3,40.8,35.3,40.3,34.5L37.7,30.5C38.2,29.5,38.7,28.4,39,27.4L43.7,26.4C44.7,26.2,45.3,25.4,45.3,24.5L45.3,20.6C45.3,19.6,44.7,18.8,43.7,18.7L39,17.7C38.7,16.6,38.2,15.6,37.7,14.6L40.3,10.6C40.8,9.8,40.6,8.7,40,8L37.3,5.3C36.5,4.7,35.5,4.5,34.7,5L30.7,7.6C29.7,7.1,28.8,6.6,27.6,6.3L26.6,1.6C26.4,0.6,25.6,3.57628e-7,24.7,3.57628e-7L20.8,3.57628e-7C19.8,3.57628e-7,19,0.6,18.9,1.6L17.9,6.3C16.8,6.6,15.8,7.1,14.8,7.6L10.8,5C10,4.5,8.9,4.7,8.2,5.3L5.5,8.1C4.9,8.9,4.7,9.9,5.2,10.7L7.6,14.9C7.1,15.9,6.6,17,6.3,18L1.6,19C0.6,19.2,3.57628e-7,20,3.57628e-7,20.9L3.57628e-7,24.8C3.57628e-7,25.8,0.6,26.6,1.6,26.7L6.3,27.7C6.6,28.8,7.1,29.8,7.6,30.8L5,34.8C4.5,35.6,4.7,36.7,5.3,37.4L8.1,40C8.9,40.6,9.9,40.8,10.7,40.3L14.9,37.7C15.9,38.2,17,38.7,18,39L19,43.7C19.2,44.7,20,45.3,20.9,45.3L24.8,45.3C25.6,45.3,26.4,44.7,26.6,43.5ZM21.3,36.8C21.1,36.2,20.7,35.5,19.8,35.3C18.3,35,16.9,34.3,15.6,33.5C15,33,14.1,33,13.5,33.5L9.8,36L9.3,35.5L11.7,31.8C12.2,31.2,12.2,30.3,11.7,29.7C10.9,28.4,10.2,27,9.9,25.5C9.7,24.9,9.3,24.2,8.4,24L4,23L4,22.4L8.5,21.3C9.1,21.1,9.8,20.7,10,19.8C10.3,18.3,11,16.9,11.8,15.6C12.3,15,12.3,14.1,11.8,13.5L9.5,9.8L10,9.4L13.7,11.8C14.3,12.3,15.2,12.3,15.8,11.8C17.1,11,18.5,10.3,20,10C20.6,9.8,21.3,9.4,21.5,8.5L22.5,4.1L23.1,4.1L24.1,8.8C24.3,9.4,24.7,10.1,25.6,10.3C27.2,10.6,28.5,11.3,29.8,12.1C30.4,12.6,31.3,12.6,31.9,12.1L35.6,9.7L36.1,10.2L33.7,13.9C33.2,14.5,33.2,15.4,33.7,16C34.5,17.3,35.2,18.7,35.5,20.2C35.7,20.8,36.1,21.5,37,21.7L41.4,22.7L41.4,23.3L37,24.3C36.4,24.5,35.7,24.9,35.5,25.8C35.2,27.3,34.5,28.7,33.7,30C33.2,30.6,33.2,31.5,33.7,32.1L36.1,35.8L35.6,36.3L31.9,33.9C31.3,33.4,30.4,33.4,29.8,33.9C28.5,34.7,27.1,35.4,25.6,35.7C25,35.9,24.3,36.3,24.1,37.2L23.1,41.6L22.5,41.6L21.3,36.8ZM3.4,75.1L10.3,68.2L14.7,72.4C15.5,73.2,16.8,73.2,17.6,72.4L38.9,51.3C39.7,50.5,39.7,49.2,38.9,48.4C38.1,47.6,36.8,47.6,36,48.4L16.3,68L11.9,63.8C11.1,63,9.8,63,9,63.9L0.8,72.1C0,72.9,0,74.2,0.8,75C1.3,75.5,1.8,75.6,2.3,75.6C2.7,75.6,3.2,75.3,3.4,75.1ZM39.3,55.3L39.3,49.7C39.3,48.6,38.3,47.6,37.2,47.6L31.6,47.6C30.5,47.6,29.5,48.6,29.5,49.7C29.5,50.8,30.5,51.8,31.6,51.8L35.1,51.8L35.1,55.5C35.1,56.6,36.1,57.6,37.2,57.6C38.4,57.6,39.3,56.6,39.3,55.3Z" fill="url(#master_svg1_20_92)" fill-opacity="1" style="mix-blend-mode:passthrough"/></g></g></svg>