<svg xmlns="http://www.w3.org/2000/svg" xmlns:xlink="http://www.w3.org/1999/xlink" fill="none" version="1.1" width="96.9000015258789" height="96.69999694824219" viewBox="0 0 96.9000015258789 96.69999694824219"><defs><clipPath id="master_svg0_20_4"><rect x="0" y="0" width="96.9000015258789" height="96.69999694824219" rx="0"/></clipPath><linearGradient x1="0.14602063596248627" y1="0.14533574879169464" x2="0.8532549142837524" y2="0.8533006310462952" id="master_svg1_20_91"><stop offset="0%" stop-color="#33E2ED" stop-opacity="1"/><stop offset="100%" stop-color="#2000DA" stop-opacity="1"/></linearGradient></defs><g clip-path="url(#master_svg0_20_4)"><g><path d="M69.8,69.8C75.4,64,78.7,56.4,78.7,48.4C78.7,40.3,75.5,32.6,69.8,27C64,21.4,56.4,18.1,48.4,18.1C40.4,18.1,32.6,21.3,27,27C21.4,32.8,18.1,40.4,18.1,48.4C18.1,56.5,21.3,64.2,27,69.8C32.8,75.4,40.4,78.7,48.4,78.7C56.4,78.7,64,75.5,69.8,69.8ZM66.9,30C71.9,35,74.6,41.6,74.6,48.5C74.6,55.4,71.9,62,66.9,67C61.9,72,55.3,74.7,48.4,74.7C41.5,74.7,34.9,72,29.9,67C24.9,62,22.2,55.4,22.2,48.5C22.2,41.6,24.9,35,29.9,30C34.9,25,41.5,22.3,48.4,22.3C55.3,22.3,61.9,24.8,66.9,30ZM64.5,48.4C64.5,39.5,57.2,32.3,48.4,32.3C39.5,32.3,32.3,39.6,32.3,48.4C32.3,57.3,39.6,64.5,48.4,64.5C57.2,64.5,64.5,57.2,64.5,48.4ZM60.5,48.4C60.5,55,55,60.5,48.4,60.5C41.8,60.5,36.3,55,36.3,48.4C36.3,41.8,41.8,36.3,48.4,36.3C55,36.3,60.5,41.8,60.5,48.4ZM56.6,48.2C56.6,43.7,53.1,40.1,48.5,40.1C47.4,40.1,46.4,41.1,46.4,42.2C46.4,43.3,47.4,44.3,48.5,44.3C50.8,44.3,52.5,46.1,52.5,48.3C52.5,50.6,50.7,52.3,48.5,52.3C46.2,52.3,44.5,50.5,44.5,48.3C44.5,47.2,43.5,46.2,42.4,46.2C41.3,46.2,40.3,47.2,40.3,48.3C40.3,52.8,43.8,56.4,48.4,56.4C52.9,56.4,56.4,52.9,56.6,48.2ZM50.5,24.2L50.5,2.1C50.5,1,49.5,0,48.4,0C47.3,0,46.3,1,46.3,2.1L46.3,24.2C46.3,25.3,47.3,26.3,48.4,26.3C49.5,26.3,50.5,25.3,50.5,24.2ZM50.5,94.8L50.5,72.6C50.5,71.5,49.5,70.5,48.4,70.5C47.3,70.5,46.3,71.5,46.3,72.6L46.3,94.7C46.3,95.8,47.3,96.8,48.4,96.8C49.5,96.7,50.5,95.8,50.5,94.8ZM54.7,86.1C62.4,84.8,69.7,81.1,75.3,75.5C80.9,69.9,84.7,62.8,85.9,54.9C86.1,53.9,85.4,52.8,84.3,52.6C83.3,52.4,82.2,53.1,82,54.2C80.9,61.3,77.5,67.7,72.5,72.7C67.3,77.7,61.1,81.1,54,82.2C52.9,82.4,52.2,83.3,52.4,84.5C52.6,85.5,53.4,86.1,54.3,86.1Q54.5,86.1,54.7,86.1ZM14.5,42.7C15.6,35.6,19,29.2,24,24.2C29.2,19.2,35.4,15.8,42.5,14.7C43.6,14.5,44.3,13.6,44.1,12.4C43.9,11.3,43,10.6,41.8,10.8C34.1,12.1,26.8,15.8,21.2,21.4C15.6,27,11.8,34.1,10.6,42C10.4,43,11.1,44.1,12.2,44.3C12.4,44.3,12.4,44.3,12.5,44.3C13.5,44.3,14.4,43.7,14.5,42.7ZM44.3,84.5C44.5,83.5,43.8,82.4,42.7,82.2C35.6,81.1,29.2,77.7,24.2,72.7C19.2,67.5,15.8,61.3,14.7,54.2C14.5,53.1,13.6,52.4,12.4,52.6C11.3,52.8,10.6,53.7,10.8,54.9C12.1,62.6,15.8,69.9,21.4,75.5C27,81.1,34.1,84.9,42,86.1C42.2,86.1,42.2,86.1,42.3,86.1C43.4,86.1,44.2,85.5,44.3,84.5ZM84.5,44.3C85.6,44.1,86.3,43.2,86.1,42C84.8,34.3,81.1,27,75.5,21.4C69.9,15.8,62.8,12,54.9,10.8C53.9,10.6,52.8,11.3,52.6,12.4C52.4,13.4,53.1,14.5,54.2,14.7C61.3,15.8,67.7,19.2,72.7,24.2C77.7,29.4,81.1,35.6,82.2,42.7C82.4,43.7,83.2,44.3,84.1,44.3C84.3,44.3,84.3,44.3,84.5,44.3ZM56,7.3C56.6,6.5,56.5,5.2,55.5,4.6L49.4,0.6C48.8,0.1,47.8,0.1,47.1,0.6L41,4.6C40.2,5.1,39.9,6.4,40.5,7.3C41,8.1,42.3,8.4,43.2,7.8L48.2,4.6L53.2,7.8C53.5,8,54,8.1,54.3,8.1C55.1,8.1,55.6,7.7,56,7.3ZM49.5,96.4L55.6,92.4C56.4,91.9,56.7,90.6,56.1,89.7C55.6,88.9,54.3,88.6,53.4,89.2L48.4,92.4L43.4,89.2C42.6,88.6,41.3,88.7,40.7,89.7C40.1,90.5,40.2,91.8,41.2,92.4L47.3,96.4C47.6,96.6,48.1,96.7,48.4,96.7C48.7,96.7,49.2,96.6,49.5,96.4ZM66.9,32.6L82.5,17C83.3,16.2,83.3,14.9,82.5,14.1C81.7,13.3,80.4,13.3,79.6,14.1L64,29.7C63.2,30.5,63.2,31.8,64,32.6C64.5,33.1,65,33.2,65.5,33.2C66,33.2,66.4,33.1,66.9,32.6ZM17.1,82.6L32.7,67C33.5,66.2,33.5,64.9,32.7,64.1C31.9,63.3,30.6,63.3,29.8,64.1L14.2,79.7C13.4,80.5,13.4,81.8,14.2,82.6C14.7,83.1,15.2,83.2,15.7,83.2C16.1,83.2,16.6,83,17.1,82.6ZM83,24.7C84.1,24.4,84.8,23.4,84.6,22.3L83.1,15.2C82.9,14.4,82.3,13.7,81.5,13.6L74.4,12.1C73.3,11.9,72.1,12.6,72,13.7C71.8,14.8,72.5,16,73.6,16.1L79.4,17.2L80.5,23C80.7,24,81.5,24.6,82.4,24.6C82.7,24.7,82.9,24.7,83,24.7ZM24.8,83C25,81.9,24.3,80.7,23.2,80.6L17.4,79.5L16.3,73.7C16,72.6,15,71.9,13.9,72.1C12.8,72.4,12.1,73.4,12.3,74.5L13.8,81.6C14,82.4,14.6,83.1,15.4,83.2L22.5,84.7Q22.7,84.7,22.8,84.7C23.7,84.7,24.5,84,24.8,83ZM96.9,48.4C96.9,47.3,95.9,46.3,94.8,46.3L72.6,46.3C71.5,46.3,70.5,47.3,70.5,48.4C70.5,49.5,71.5,50.5,72.6,50.5L94.9,50.5C95.8,50.5,96.7,49.5,96.9,48.4ZM26.3,48.4C26.3,47.3,25.3,46.3,24.2,46.3L2.1,46.3C1,46.3,0,47.3,0,48.4C0,49.5,1,50.5,2.1,50.5L24.2,50.5C25.3,50.5,26.3,49.5,26.3,48.4ZM92.2,55.6L96.2,49.5C96.7,48.9,96.7,47.9,96.2,47.2L92.2,41.1C91.7,40.3,90.4,40,89.5,40.6C88.7,41.1,88.4,42.4,89,43.3L92.2,48.3L89,53.3C88.4,54.1,88.5,55.4,89.5,56C89.8,56.2,90.3,56.3,90.6,56.3C91.4,56.4,91.9,56.1,92.2,55.6ZM7.3,56C8.1,55.5,8.4,54.2,7.8,53.3L4.6,48.3L7.8,43.3C8.4,42.5,8.1,41.2,7.3,40.6C6.5,39.8,5.2,40,4.5,41L0.5,47.1C0,47.7,0,48.7,0.5,49.4L4.5,55.5C4.8,56.1,5.5,56.5,6.1,56.5C6.5,56.4,6.8,56.3,7.3,56ZM32.7,32.6C33.5,31.8,33.5,30.5,32.7,29.7L17.1,14C16.3,13.2,15,13.2,14.2,14C13.4,14.8,13.4,16.1,14.2,16.9L29.8,32.5C30.3,33,30.8,33.1,31.3,33.1C31.8,33.2,32.2,33.1,32.7,32.6ZM82.6,82.6C83.4,81.8,83.4,80.5,82.6,79.7L66.9,64C66.1,63.2,64.8,63.2,64,64C63.2,64.8,63.2,66.1,64,66.9L79.6,82.5C80.1,83,80.6,83.1,81.1,83.1C81.6,83.2,82.2,83,82.6,82.6ZM16.1,23.1L17.4,17.3L23.2,16.2C24.3,15.9,25,14.9,24.8,13.8C24.5,12.7,23.5,12,22.4,12.2L15.3,13.7C14.5,13.9,13.8,14.5,13.7,15.3L12.2,22.4C12,23.5,12.7,24.7,13.8,24.8Q14,24.8,14.1,24.8C15.2,24.7,16,24,16.1,23.1ZM74.5,84.7L81.6,83.2C82.4,83,83.1,82.4,83.2,81.6L84.7,74.5C84.9,73.4,84.2,72.2,83.1,72.1C82,71.9,80.8,72.6,80.7,73.7L79.6,79.5L73.8,80.6C72.7,80.9,72,81.9,72.2,83C72.4,84,73.2,84.6,74.1,84.6C74.2,84.7,74.3,84.7,74.5,84.7Z" fill="url(#master_svg1_20_91)" fill-opacity="1" style="mix-blend-mode:passthrough"/></g></g></svg>