<svg xmlns="http://www.w3.org/2000/svg" xmlns:xlink="http://www.w3.org/1999/xlink" fill="none" version="1.1" width="47.11000061035156" height="37.97999954223633" viewBox="0 0 47.11000061035156 37.97999954223633"><defs><clipPath id="master_svg0_4_39"><rect x="0" y="0" width="47.11000061035156" height="37.97999954223633" rx="0"/></clipPath></defs><g clip-path="url(#master_svg0_4_39)"><g><g><path d="M17.05,0C19.51,0.02,21.79,0.38,24,1.19C25.99,1.92,27.82,2.93,29.44,4.31C31.02,5.66,32.29,7.24,33.17,9.13C33.58,10,33.89,10.9,34.08,11.85C34.12,12.07,34.1,12.1,33.88,12.09C32.54,12,31.21,12.13,29.89,12.36C28.5,12.6,27.15,13.01,25.86,13.59C24.08,14.38,22.49,15.44,21.12,16.83C19.63,18.34,18.55,20.09,17.98,22.13C17.77,22.89,17.65,23.66,17.6,24.45C17.52,25.76,17.69,27.04,18.07,28.29C18.08,28.34,18.09,28.38,18.11,28.43C18.15,28.55,18.11,28.59,17.99,28.6C17.3,28.66,16.62,28.62,15.93,28.58C15.12,28.53,14.31,28.43,13.5,28.28C12.85,28.16,12.21,28.01,11.58,27.83C11.09,27.69,10.64,27.76,10.21,28.01C8.96,28.73,7.72,29.44,6.47,30.16C6.23,30.3,5.98,30.35,5.75,30.17C5.51,29.99,5.47,29.74,5.55,29.46C5.82,28.47,6.08,27.48,6.35,26.49C6.52,25.85,6.4,25.45,5.87,25.06C4.47,24.03,3.26,22.81,2.27,21.38C1.44,20.16,0.820002,18.85,0.440002,17.42C0.13,16.37,-0.01,15.32,0,14.26C0.01,12.49,0.39,10.79,1.14,9.18C2,7.33,3.23,5.77,4.76,4.43C6.83,2.63,9.22,1.43,11.85,0.71C12.99,0.4,14.16,0.19,15.35,0.0899998C15.96,0.04,16.56,0.01,17.05,0ZM8.72,9.75C8.71,11.18,9.86,12.47,11.47,12.48C12.95,12.49,14.2,11.24,14.2,9.77C14.2,8.25,12.96,7,11.46,7C9.93,7,8.71,8.22,8.72,9.75ZM25.61,9.73C25.61,8.22,24.39,6.99,22.87,7C21.37,7,20.11,8.24,20.13,9.74C20.15,11.22,21.26,12.46,22.87,12.47C24.39,12.49,25.61,11.24,25.61,9.73Z" fill="#47AB2C" fill-opacity="1" style="mix-blend-mode:passthrough"/></g><g><path d="M20.489999775742188,25.770016691589355C20.489999775742188,23.599996691589354,21.099999885742186,21.789996691589355,22.230002885742188,20.129996691589355C23.150002885742186,18.779996691589353,24.33000288574219,17.699996691589355,25.700002885742187,16.809996691589355C26.890002885742188,16.039996691589355,28.180002885742187,15.480001691589356,29.54000288574219,15.090000691589356C30.50998288574219,14.810001691589356,31.499982885742188,14.650001691589356,32.499982885742185,14.570001591589355C34.07998288574219,14.440001491589355,35.64998288574219,14.540001891589355,37.19998288574219,14.880001691589355C38.749982885742185,15.220001691589356,40.21998288574218,15.790006691589355,41.57998288574218,16.610006691589355C42.61998288574219,17.230006691589356,43.54998288574219,17.980006691589356,44.36998288574219,18.870006691589357C45.669982885742186,20.290006691589355,46.56998288574219,21.920006691589357,46.92998288574219,23.820006691589356C47.28998288574219,25.690016691589356,47.08998288574219,27.520016691589355,46.33998288574219,29.270016691589355C45.82998288574218,30.480016691589356,45.099982885742186,31.540016691589354,44.18998288574218,32.49001669158936C43.65998288574219,33.04001669158936,43.07998288574218,33.520016691589355,42.47998288574219,33.99001669158936C42.19998288574219,34.200016691589354,42.07998288574218,34.50001669158935,42.169982885742186,34.85001669158936C42.36998288574219,35.65001669158936,42.58998288574219,36.450016691589354,42.80998288574219,37.26001669158936C42.859982885742184,37.450016691589354,42.89998288574219,37.630016691589354,42.749982885742185,37.800016691589356C42.58998288574219,37.99001669158936,42.37998288574219,38.03001669158935,42.14998288574219,37.90001669158936C41.69998288574219,37.65001669158936,41.249982885742185,37.380016691589354,40.79998288574219,37.120016691589356C40.25998288574219,36.810016691589354,39.70998288574219,36.49001669158936,39.169982885742186,36.18001669158936C38.849982885742186,36.00001669158935,38.50998288574219,35.96001669158936,38.15998288574219,36.060016691589354C37.04998288574219,36.380016691589354,35.919982885742186,36.57001669158936,34.75998288574219,36.64001669158935C33.57998288574219,36.71001669158936,32.39998288574219,36.660016691589355,31.239982885742187,36.47001669158935C29.76000288574219,36.230016691589356,28.340002885742187,35.79001669158936,27.000002885742187,35.11001669158935C24.820002885742188,34.020016691589355,23.040002885742187,32.49001669158936,21.800002885742188,30.370016691589356C21.12000288574219,29.210016691589356,20.71000288574219,27.960016691589356,20.560003285742187,26.620016691589356C20.510000185742186,26.290016691589358,20.47999954574219,25.950016691589354,20.489999775742188,25.770016691589355ZM38.23998288574219,19.949996691589355C37.05998288574219,19.949996691589355,36.109982885742184,20.889996691589356,36.109982885742184,22.049996691589357C36.109982885742184,23.199996691589355,37.06998288574219,24.179996691589356,38.19998288574219,24.179996691589356C39.389982885742185,24.179996691589356,40.33998288574219,23.249996691589356,40.33998288574219,22.069996691589356C40.33998288574219,20.879996691589355,39.419982885742186,19.949996691589355,38.23998288574219,19.949996691589355ZM27.250002885742187,22.049996691589357C27.250002885742187,23.219996691589355,28.180002885742187,24.159996691589356,29.340002885742187,24.169996691589354C30.519982885742188,24.179996691589356,31.47998288574219,23.239996691589354,31.47998288574219,22.059996691589355C31.47998288574219,20.889996691589356,30.54998288574219,19.949996691589355,29.390002885742188,19.949996691589355C28.19000288574219,19.949996691589355,27.250002885742187,20.869996691589357,27.250002885742187,22.049996691589357Z" fill="#47AB2C" fill-opacity="1" style="mix-blend-mode:passthrough"/></g></g></g></svg>